<svg width="24" height="24" viewBox="0 0 24 24" fill="none" xmlns="http://www.w3.org/2000/svg">
<path d="M14 4.5H15.25V5.75H14V4.5ZM16.5 4.5H17.75V5.75H16.5V4.5ZM14 7H15.25V8.25H14V7ZM16.5 7H17.75V8.25H16.5V7ZM14 9.5H15.25V10.75H14V9.5ZM16.5 9.5H17.75V10.75H16.5V9.5ZM14 12H15.25V13.25H14V12ZM16.5 12H17.75V13.25H16.5V12ZM14 14.5H15.25V15.75H14V14.5ZM16.5 14.5H17.75V15.75H16.5V14.5ZM19 2H12.75C12.4185 2 12.1005 2.1317 11.8661 2.36612C11.6317 2.60054 11.5 2.91848 11.5 3.25V7H5.25C4.91848 7 4.60054 7.1317 4.36612 7.36612C4.1317 7.60054 4 7.91848 4 8.25V20.75C4 21.0815 4.1317 21.3995 4.36612 21.6339C4.60054 21.8683 4.91848 22 5.25 22H19C19.3315 22 19.6495 21.8683 19.8839 21.6339C20.1183 21.3995 20.25 21.0815 20.25 20.75V3.25C20.25 2.91848 20.1183 2.60054 19.8839 2.36612C19.6495 2.1317 19.3315 2 19 2ZM9 20.75H7.75V18.25H9V20.75ZM10.25 20.75V17H6.5V20.75H5.25V8.25H11.5V20.75H10.25ZM16.5 20.75H15.25V18.25H16.5V20.75ZM19 20.75H17.75V17H14V20.75H12.75V3.25H19V20.75ZM6.5 9.5H7.75V10.75H6.5V9.5ZM9 9.5H10.25V10.75H9V9.5ZM6.5 12H7.75V13.25H6.5V12ZM9 12H10.25V13.25H9V12ZM6.5 14.5H7.75V15.75H6.5V14.5ZM9 14.5H10.25V15.75H9V14.5Z" fill="#109b4f"/>
<path d="M11.5 8.25H5.25V20.75H11.5V8.25Z" fill="#109b4f" stroke="#109b4f" stroke-width="0.833333"/>
<path d="M19 3.25H12.75V20.75H19V3.25Z" fill="#109b4f" stroke="#109b4f" stroke-width="0.833333"/>
<path d="M14 17V20.3333H16.9167V17H14Z" fill="black" stroke="black" stroke-width="0.833333"/>
<path d="M14 4.91667V4.5H14.4167V4.91667H14Z" stroke="black" stroke-width="0.833333"/>
<path d="M16.5 4.91667V4.5H16.9167V4.91667H16.5Z" stroke="black" stroke-width="0.833333"/>
<path d="M14 7.41667V7H14.4167V7.41667H14Z" stroke="black" stroke-width="0.833333"/>
<path d="M16.5 7.41667V7H16.9167V7.41667H16.5Z" stroke="black" stroke-width="0.833333"/>
<path d="M14 9.91667V9.5H14.4167V9.91667H14Z" stroke="black" stroke-width="0.833333"/>
<path d="M14 12.4167V12H14.4167V12.4167H14Z" stroke="black" stroke-width="0.833333"/>
<path d="M14 14.9167V14.5H14.4167V14.9167H14Z" stroke="black" stroke-width="0.833333"/>
<path d="M16.5 9.91667V9.5H16.9167V9.91667H16.5Z" stroke="black" stroke-width="0.833333"/>
<path d="M16.5 12.4167V12H16.9167V12.4167H16.5Z" stroke="black" stroke-width="0.833333"/>
<path d="M16.5 14.9167V14.5H16.9167V14.9167H16.5Z" stroke="black" stroke-width="0.833333"/>
<path d="M6.5 9.91667V9.5H6.91667V9.91667H6.5Z" stroke="black" stroke-width="0.833333"/>
<path d="M9 9.91667V9.5H9.41667V9.91667H9Z" stroke="black" stroke-width="0.833333"/>
<path d="M6.5 12.4167V12H6.91667V12.4167H6.5Z" stroke="black" stroke-width="0.833333"/>
<path d="M9 12.4167V12H9.41667V12.4167H9Z" stroke="black" stroke-width="0.833333"/>
<path d="M6.5 14.9167V14.5H6.91667V14.9167H6.5Z" stroke="black" stroke-width="0.833333"/>
<path d="M9 14.9167V14.5H9.41667V14.9167H9Z" stroke="black" stroke-width="0.833333"/>
<path d="M6.5 17.5007V20.3334H9.41667V17.5007H6.5Z" fill="black" stroke="black" stroke-width="0.833333"/>
</svg>
