<svg width="24" height="24" viewBox="0 0 24 24" fill="none" xmlns="http://www.w3.org/2000/svg">
<g id="Calendar">
<path id="Vector" d="M8.01973 4C7.90522 4 7.7954 4.04692 7.71443 4.13043C7.63346 4.21395 7.58797 4.32722 7.58797 4.44533V5.33333H5.64893C5.56384 5.33298 5.47951 5.34997 5.40079 5.38331C5.32207 5.41666 5.25052 5.46571 5.19022 5.52765C5.12993 5.58959 5.08209 5.6632 5.04945 5.74426C5.0168 5.82532 5 5.91223 5 6V19.3333C5 19.4211 5.0168 19.508 5.04945 19.5891C5.08209 19.6701 5.12993 19.7437 5.19022 19.8057C5.25052 19.8676 5.32207 19.9167 5.40079 19.95C5.47951 19.9834 5.56384 20.0003 5.64893 20H18.5759C18.7473 20 18.9117 19.9298 19.0329 19.8047C19.1541 19.6797 19.2222 19.5101 19.2222 19.3333V6C19.2222 5.82319 19.1541 5.65362 19.0329 5.5286C18.9117 5.40357 18.7473 5.33333 18.5759 5.33333H16.6368V4.44533C16.6368 4.32722 16.5913 4.21395 16.5104 4.13043C16.4294 4.04692 16.3196 4 16.2051 4H15.7759C15.6614 4 15.5516 4.04692 15.4706 4.13043C15.3896 4.21395 15.3441 4.32722 15.3441 4.44533V5.33333H8.88067V4.44533C8.88067 4.32722 8.83518 4.21395 8.75421 4.13043C8.67324 4.04692 8.56342 4 8.44891 4H8.01973ZM6.29528 6.66667H17.9295V8H6.29528V6.66667ZM6.29528 9.33333H17.9295V18.6667H6.29528V9.33333ZM7.58797 10.6667V12H8.88067V10.6667H7.58797ZM10.1734 10.6667V12H11.4661V10.6667H10.1734ZM12.7587 10.6667V12H14.0514V10.6667H12.7587ZM15.3441 10.6667V12H16.6368V10.6667H15.3441ZM7.58797 13.3333V14.6667H8.88067V13.3333H7.58797ZM10.1734 13.3333V14.6667H11.4661V13.3333H10.1734ZM12.7587 13.3333V14.6667H14.0514V13.3333H12.7587ZM15.3441 13.3333V14.6667H16.6368V13.3333H15.3441ZM7.58797 16V17.3333H8.88067V16H7.58797ZM10.1734 16V17.3333H11.4661V16H10.1734ZM12.7587 16V17.3333H14.0514V16H12.7587Z" fill="url(#paint0_linear_7146_4955)"/>
</g>
<defs>
<linearGradient id="paint0_linear_7146_4955" x1="12.1111" y1="4.20513" x2="12.1111" y2="19.3846" gradientUnits="userSpaceOnUse">
<stop stop-color="#FF7312"/>
<stop offset="1" stop-color="#182452"/>
</linearGradient>
</defs>
</svg>
