<svg xmlns="http://www.w3.org/2000/svg" width="36" height="36" viewBox="0 0 36 36" fill="none">
  <circle cx="18" cy="18" r="18" fill="#F2F2F2"/>
  <path d="M11.5296 6C11.3578 6 11.1931 6.07038 11.0716 6.19565C10.9502 6.32093 10.882 6.49084 10.882 6.668V8H7.9734C7.84575 7.99947 7.71926 8.02495 7.60119 8.07497C7.48311 8.12499 7.37578 8.19856 7.28534 8.29147C7.1949 8.38439 7.12313 8.4948 7.07417 8.61639C7.0252 8.73798 7 8.86834 7 9V29C7 29.1317 7.0252 29.262 7.07417 29.3836C7.12313 29.5052 7.1949 29.6156 7.28534 29.7085C7.37578 29.8014 7.48311 29.875 7.60119 29.925C7.71926 29.975 7.84575 30.0005 7.9734 30H27.3638C27.6209 30 27.8675 29.8946 28.0494 29.7071C28.2312 29.5196 28.3333 29.2652 28.3333 29V9C28.3333 8.73478 28.2312 8.48043 28.0494 8.29289C27.8675 8.10536 27.6209 8 27.3638 8H24.4552V6.668C24.4552 6.49084 24.387 6.32093 24.2656 6.19565C24.1441 6.07038 23.9794 6 23.8076 6H23.1638C22.9921 6 22.8273 6.07038 22.7059 6.19565C22.5844 6.32093 22.5162 6.49084 22.5162 6.668V8H12.821V6.668C12.821 6.49084 12.7528 6.32093 12.6313 6.19565C12.5099 6.07038 12.3451 6 12.1734 6H11.5296ZM8.94292 10H26.3943V12H8.94292V10ZM8.94292 14H26.3943V28H8.94292V14ZM10.882 16V18H12.821V16H10.882ZM14.76 16V18H16.6991V16H14.76ZM18.6381 16V18H20.5772V16H18.6381ZM22.5162 16V18H24.4552V16H22.5162ZM10.882 20V22H12.821V20H10.882ZM14.76 20V22H16.6991V20H14.76ZM18.6381 20V22H20.5772V20H18.6381ZM22.5162 20V22H24.4552V20H22.5162ZM10.882 24V26H12.821V24H10.882ZM14.76 24V26H16.6991V24H14.76ZM18.6381 24V26H20.5772V24H18.6381Z" fill="url(#paint0_linear_7146_456)"/>
  <defs>
    <linearGradient id="paint0_linear_7146_456" x1="17.6667" y1="6.30769" x2="17.6667" y2="29.0769" gradientUnits="userSpaceOnUse">
      <stop stop-color="#FF7312"/>
      <stop offset="1" stop-color="#182452"/>
    </linearGradient>
  </defs>
</svg>