<svg width="20" height="20" viewBox="0 0 20 20" fill="none" xmlns="http://www.w3.org/2000/svg">
<g id="Call">
<path id="Vector" d="M15.2649 10.7223C15.1103 10.7223 14.9488 10.673 14.7942 10.6377C14.4812 10.5686 14.1737 10.4767 13.8739 10.363C13.548 10.2441 13.1898 10.2502 12.8681 10.3803C12.5465 10.5104 12.2842 10.7552 12.1317 11.0675L11.9771 11.3846C11.2928 11.0028 10.6641 10.5287 10.1084 9.97545C9.55675 9.41815 9.08399 8.78755 8.70334 8.1013L8.9984 7.90402C9.30988 7.75107 9.55394 7.48799 9.68364 7.16541C9.81333 6.84284 9.81949 6.48355 9.70093 6.15669C9.58938 5.85543 9.49785 5.5471 9.42694 5.23371C9.39182 5.0787 9.36372 4.91665 9.34264 4.7546C9.25733 4.25831 8.99814 3.80889 8.61175 3.48725C8.22536 3.16561 7.73716 2.9929 7.23507 3.00022H5.12751C4.82474 2.99737 4.52492 3.05998 4.24845 3.18379C3.97198 3.30759 3.72535 3.48968 3.52536 3.71767C3.32536 3.94566 3.1767 4.21419 3.08948 4.50498C3.00227 4.79577 2.97855 5.10199 3.01994 5.4028C3.3942 8.35451 4.73833 11.097 6.84001 13.1972C8.94169 15.2973 11.6811 16.6354 14.6256 17H14.8926C15.4106 17.0008 15.9108 16.8101 16.2976 16.4645C16.5199 16.2652 16.6974 16.0208 16.8185 15.7475C16.9396 15.4742 17.0015 15.1783 17.0001 14.8792V12.7655C16.9915 12.2761 16.8138 11.8049 16.4974 11.4323C16.1809 11.0596 15.7453 10.8087 15.2649 10.7223ZM15.6162 14.9497C15.616 15.0497 15.5947 15.1486 15.5535 15.2397C15.5123 15.3308 15.4522 15.4121 15.3773 15.4781C15.2988 15.5461 15.207 15.5969 15.1078 15.6272C15.0086 15.6575 14.9042 15.6668 14.8012 15.6543C12.1702 15.3159 9.72638 14.1088 7.8552 12.2232C5.98402 10.3377 4.79199 7.88101 4.46714 5.24075C4.45596 5.13754 4.46575 5.03314 4.49594 4.93383C4.52613 4.83453 4.57608 4.7424 4.64277 4.66301C4.7086 4.58785 4.78964 4.52762 4.88049 4.48631C4.97133 4.44501 5.06991 4.42358 5.16966 4.42345H7.27722C7.44059 4.41981 7.60012 4.47339 7.72834 4.57498C7.85657 4.67658 7.94547 4.81982 7.97975 4.98006C8.00785 5.17264 8.04297 5.36288 8.08512 5.55076C8.16628 5.92217 8.27429 6.28716 8.40828 6.64284L7.42475 7.10081C7.34066 7.13951 7.26502 7.19448 7.20217 7.26258C7.13931 7.33067 7.09049 7.41055 7.05851 7.49762C7.02652 7.58469 7.012 7.67724 7.01578 7.76996C7.01956 7.86267 7.04156 7.95372 7.08052 8.03789C8.09159 10.2099 9.83247 11.9559 11.9982 12.9699C12.1692 13.0403 12.3611 13.0403 12.5321 12.9699C12.6197 12.9384 12.7002 12.8899 12.769 12.827C12.8377 12.7641 12.8933 12.6881 12.9325 12.6035L13.3681 11.6171C13.7313 11.7474 14.1019 11.8556 14.4781 11.9412C14.6654 11.9835 14.8551 12.0187 15.0471 12.0469C15.2069 12.0813 15.3497 12.1704 15.451 12.299C15.5523 12.4276 15.6057 12.5876 15.6021 12.7515L15.6162 14.9497Z" fill="url(#paint0_linear_7146_3306)"/>
</g>
<defs>
<linearGradient id="paint0_linear_7146_3306" x1="10.0002" y1="3.17949" x2="10.0002" y2="16.4615" gradientUnits="userSpaceOnUse">
<stop stop-color="#109b4f"/>
<stop offset="1" stop-color="#109b4f"/>
</linearGradient>
</defs>
</svg>
