<svg width="24" height="24" viewBox="0 0 24 24" fill="none" xmlns="http://www.w3.org/2000/svg">
<g clip-path="url(#clip0_689_15532)">
<path d="M17.5 16.5C17.5 15.2844 17.0219 14.2967 16.2938 13.5061C17.3877 13.5498 18.9085 13.8284 20.188 14.3405C20.8869 14.6201 21.4823 14.9571 21.8949 15.3377C22.3042 15.7151 22.5 16.1012 22.5 16.5V18C22.5 18.2739 22.2739 18.5 22 18.5H17.841C17.7742 18.5 17.6992 18.4695 17.6264 18.3772C17.5501 18.2805 17.5 18.1403 17.5 18V16.5ZM18.49 8C18.49 9.38604 17.3817 10.5 16 10.5C14.6161 10.5 13.5 9.38386 13.5 8C13.5 6.61614 14.6161 5.5 16 5.5C17.3817 5.5 18.49 6.61396 18.49 8ZM10.49 8C10.49 9.38604 9.38168 10.5 8 10.5C6.61614 10.5 5.5 9.38386 5.5 8C5.5 6.61614 6.61614 5.5 8 5.5C9.38168 5.5 10.49 6.61396 10.49 8ZM1.5 16.5C1.5 16.1012 1.69583 15.7151 2.10507 15.3377C2.51773 14.9571 3.11313 14.6201 3.81201 14.3405C5.21059 13.7808 6.89745 13.5 8 13.5C9.10255 13.5 10.7894 13.7808 12.188 14.3405C12.8869 14.6201 13.4823 14.9571 13.8949 15.3377C14.3042 15.7151 14.5 16.1012 14.5 16.5V18C14.5 18.2739 14.2739 18.5 14 18.5H2C1.72614 18.5 1.5 18.2739 1.5 18V16.5Z" fill="#FF7312" stroke="#FF7312"/>
</g>
<defs>
<clipPath id="clip0_689_15532">
<rect width="24" height="24" fill="white"/>
</clipPath>
</defs>
</svg>
