<svg width="22" height="14" viewBox="0 0 22 14" fill="none" xmlns="http://www.w3.org/2000/svg">
<path d="M16.5 11.5C16.5 10.2844 16.0219 9.29672 15.2938 8.50611C16.3877 8.54984 17.9085 8.82844 19.188 9.34046C19.8869 9.62013 20.4823 9.95714 20.8949 10.3377C21.3042 10.7151 21.5 11.1012 21.5 11.5V13C21.5 13.2739 21.2739 13.5 21 13.5H16.841C16.7742 13.5 16.6992 13.4695 16.6264 13.3772C16.5501 13.2805 16.5 13.1403 16.5 13V11.5ZM17.49 3C17.49 4.38604 16.3817 5.5 15 5.5C13.6161 5.5 12.5 4.38386 12.5 3C12.5 1.61614 13.6161 0.5 15 0.5C16.3817 0.5 17.49 1.61396 17.49 3ZM9.49 3C9.49 4.38604 8.38168 5.5 7 5.5C5.61614 5.5 4.5 4.38386 4.5 3C4.5 1.61614 5.61614 0.5 7 0.5C8.38168 0.5 9.49 1.61396 9.49 3ZM0.5 11.5C0.5 11.1012 0.695825 10.7151 1.10507 10.3377C1.51773 9.95714 2.11313 9.62013 2.81201 9.34046C4.21059 8.78079 5.89745 8.5 7 8.5C8.10255 8.5 9.78941 8.78079 11.188 9.34046C11.8869 9.62013 12.4823 9.95714 12.8949 10.3377C13.3042 10.7151 13.5 11.1012 13.5 11.5V13C13.5 13.2739 13.2739 13.5 13 13.5H1C0.726143 13.5 0.5 13.2739 0.5 13V11.5Z" stroke="#CCD4F2"/>
</svg>
