<svg width="24" height="24" viewBox="0 0 24 24" fill="none" xmlns="http://www.w3.org/2000/svg">
<g id="Clock">
<path id="Vector" d="M14.4 11.2H12.8V8C12.8 7.78783 12.7157 7.58434 12.5657 7.43431C12.4157 7.28428 12.2122 7.2 12 7.2C11.7878 7.2 11.5843 7.28428 11.4343 7.43431C11.2843 7.58434 11.2 7.78783 11.2 8V12C11.2 12.2122 11.2843 12.4157 11.4343 12.5657C11.5843 12.7157 11.7878 12.8 12 12.8H14.4C14.6122 12.8 14.8157 12.7157 14.9657 12.5657C15.1157 12.4157 15.2 12.2122 15.2 12C15.2 11.7878 15.1157 11.5843 14.9657 11.4343C14.8157 11.2843 14.6122 11.2 14.4 11.2ZM12 4C10.4178 4 8.87103 4.46919 7.55544 5.34824C6.23985 6.22729 5.21447 7.47672 4.60897 8.93853C4.00347 10.4003 3.84504 12.0089 4.15372 13.5607C4.4624 15.1126 5.22433 16.538 6.34315 17.6569C7.46197 18.7757 8.88743 19.5376 10.4393 19.8463C11.9911 20.155 13.5997 19.9965 15.0615 19.391C16.5233 18.7855 17.7727 17.7602 18.6518 16.4446C19.5308 15.129 20 13.5822 20 12C19.9976 9.87899 19.154 7.84553 17.6542 6.34575C16.1545 4.84597 14.121 4.00236 12 4ZM12 18.4C10.7342 18.4 9.49683 18.0246 8.44435 17.3214C7.39188 16.6182 6.57157 15.6186 6.08717 14.4492C5.60277 13.2797 5.47603 11.9929 5.72298 10.7514C5.96992 9.50994 6.57946 8.36957 7.47452 7.47452C8.36958 6.57946 9.50995 5.96992 10.7514 5.72297C11.9929 5.47603 13.2797 5.60277 14.4492 6.08717C15.6186 6.57157 16.6182 7.39187 17.3214 8.44435C18.0246 9.49682 18.4 10.7342 18.4 12C18.3981 13.6968 17.7232 15.3235 16.5233 16.5233C15.3235 17.7231 13.6968 18.3981 12 18.4Z" fill="url(#paint0_linear_7146_4947)"/>
</g>
<defs>
<linearGradient id="paint0_linear_7146_4947" x1="12" y1="4.20513" x2="12" y2="19.3846" gradientUnits="userSpaceOnUse">
<stop stop-color="#FF7312"/>
<stop offset="1" stop-color="#182452"/>
</linearGradient>
</defs>
</svg>
