<svg width="16" height="16" viewBox="0 0 16 16" fill="none" xmlns="http://www.w3.org/2000/svg">
<g id="Close">
<path id="Vector" d="M1.61958 4V4.00088C1.45573 4.00226 1.29897 4.07099 1.18308 4.19225C1.06718 4.31351 1.00143 4.47759 1 4.64913V12.3518C1 12.7074 1.28028 13 1.61958 13H13.8804C14.2197 13 14.5 12.7074 14.5 12.3518V4.64825C14.5005 4.56318 14.4845 4.47889 14.4532 4.40042C14.4218 4.32195 14.3757 4.2509 14.3175 4.19152C14.2017 4.06977 14.0445 4.00093 13.8804 4H1.61958ZM1.61958 4.44217H13.8804C13.9082 4.44217 13.9348 4.44746 13.9584 4.45761H13.9592C14.0309 4.4885 14.0789 4.56176 14.0789 4.64913V4.76298L7.86211 9.42383L7.85368 9.43089C7.80184 9.47855 7.7795 9.4834 7.75758 9.48384C7.73524 9.48384 7.69225 9.47369 7.61765 9.41765L1.44593 4.77622L1.42106 4.75901V4.64957C1.42066 4.6222 1.42552 4.59503 1.43537 4.56967C1.44521 4.54431 1.45984 4.52129 1.47836 4.50198C1.49689 4.48266 1.51894 4.46745 1.5432 4.45725C1.56746 4.44705 1.59344 4.44163 1.61958 4.44217ZM1.42148 5.30091L7.37151 9.77642H7.37235C7.49036 9.86555 7.61892 9.92557 7.75885 9.92469C7.8992 9.92469 8.02901 9.85629 8.13101 9.76274L8.11542 9.77597L14.0789 5.30444V12.3518C14.0795 12.3792 14.0748 12.4064 14.065 12.4318C14.0552 12.4572 14.0406 12.4803 14.022 12.4996C14.0034 12.5189 13.9813 12.5341 13.957 12.5442C13.9326 12.5543 13.9066 12.5591 13.8804 12.5583H1.61958C1.5062 12.5583 1.42148 12.47 1.42148 12.3513V5.30091Z" fill="#121212"/>
</g>
</svg>
