<svg width="18" height="18" viewBox="0 0 18 18" fill="none" xmlns="http://www.w3.org/2000/svg">
<g id="Office Building">
<path id="Vector" fill-rule="evenodd" clip-rule="evenodd" d="M3 16.125C3 15.9179 3.16789 15.75 3.375 15.75H14.625C14.8321 15.75 15 15.9179 15 16.125C15 16.3321 14.8321 16.5 14.625 16.5H3.375C3.16789 16.5 3 16.3321 3 16.125Z" fill="url(#paint0_linear_7146_6211)"/>
<path id="Vector_2" fill-rule="evenodd" clip-rule="evenodd" d="M4.5 8.25V15.75H6.375V8.25H4.5ZM4.125 7.5C3.91789 7.5 3.75 7.66789 3.75 7.875V16.125C3.75 16.3321 3.91789 16.5 4.125 16.5H6.75C6.95711 16.5 7.125 16.3321 7.125 16.125V7.875C7.125 7.66789 6.95711 7.5 6.75 7.5H4.125Z" fill="url(#paint1_linear_7146_6211)"/>
<path id="Vector_3" fill-rule="evenodd" clip-rule="evenodd" d="M6.375 1.5L12.375 3.75V9H11.625V4.26975L7.125 2.58225V15.75H10.125C10.125 15.9571 10.2929 16.125 10.5 16.125H12.375V16.5H6.375V15.75V1.5Z" fill="url(#paint2_linear_7146_6211)"/>
<path id="Vector_4" d="M7.5 4.875H8.25V5.625H7.5V4.875ZM9 4.875H9.75V5.625H9V4.875ZM10.5 4.875H11.25V5.625H10.5V4.875ZM7.5 6.375H8.25V7.125H7.5V6.375ZM9 6.375H9.75V7.125H9V6.375ZM10.5 6.375H11.25V7.125H10.5V6.375ZM7.5 7.875H8.25V8.625H7.5V7.875ZM9 7.875H9.75V8.625H9V7.875ZM10.5 7.875H11.25V8.625H10.5V7.875ZM7.5 9.375H8.25V10.125H7.5V9.375ZM9 9.375H9.75V10.125H9V9.375ZM7.5 10.875H8.25V11.625H7.5V10.875ZM9 10.875H9.75V11.625H9V10.875ZM7.5 12.375H8.25V13.125H7.5V12.375ZM9 12.375H9.75V13.125H9V12.375ZM7.5 13.875H8.25V14.625H7.5V13.875ZM9 13.875H9.75V14.625H9V13.875Z" fill="url(#paint3_linear_7146_6211)"/>
<path id="Vector_5" fill-rule="evenodd" clip-rule="evenodd" d="M10.875 9.75V15.75H13.5V9.75H10.875ZM10.5 9C10.2929 9 10.125 9.16789 10.125 9.375V16.125C10.125 16.3321 10.2929 16.5 10.5 16.5H13.875C14.0821 16.5 14.25 16.3321 14.25 16.125V9.375C14.25 9.16789 14.0821 9 13.875 9H10.5Z" fill="url(#paint4_linear_7146_6211)"/>
<path id="Vector_6" fill-rule="evenodd" clip-rule="evenodd" d="M12.75 11.25H11.625V10.5H12.75V11.25ZM12.75 12.75H11.625V12H12.75V12.75ZM12.75 14.25H11.625V13.5H12.75V14.25ZM12.75 15.75H11.625V15H12.75V15.75ZM5.625 4.875V8.25H4.875V4.875H5.625Z" fill="url(#paint5_linear_7146_6211)"/>
</g>
<defs>
<linearGradient id="paint0_linear_7146_6211" x1="9" y1="15.7596" x2="9" y2="16.4712" gradientUnits="userSpaceOnUse">
<stop stop-color="#109b4f"/>
<stop offset="1" stop-color="#109b4f"/>
</linearGradient>
<linearGradient id="paint1_linear_7146_6211" x1="5.4375" y1="7.61538" x2="5.4375" y2="16.1538" gradientUnits="userSpaceOnUse">
<stop stop-color="#109b4f"/>
<stop offset="1" stop-color="#109b4f"/>
</linearGradient>
<linearGradient id="paint2_linear_7146_6211" x1="9.375" y1="1.69231" x2="9.375" y2="15.9231" gradientUnits="userSpaceOnUse">
<stop stop-color="#109b4f"/>
<stop offset="1" stop-color="#109b4f"/>
</linearGradient>
<linearGradient id="paint3_linear_7146_6211" x1="9.375" y1="5" x2="9.375" y2="14.25" gradientUnits="userSpaceOnUse">
<stop stop-color="#109b4f"/>
<stop offset="1" stop-color="#109b4f"/>
</linearGradient>
<linearGradient id="paint4_linear_7146_6211" x1="12.1875" y1="9.09615" x2="12.1875" y2="16.2115" gradientUnits="userSpaceOnUse">
<stop stop-color="#109b4f"/>
<stop offset="1" stop-color="#109b4f"/>
</linearGradient>
<linearGradient id="paint5_linear_7146_6211" x1="8.8125" y1="5.01442" x2="8.8125" y2="15.3317" gradientUnits="userSpaceOnUse">
<stop stop-color="#109b4f"/>
<stop offset="1" stop-color="#109b4f"/>
</linearGradient>
</defs>
</svg>
