<svg width="11" height="11" viewBox="0 0 11 11" fill="none" xmlns="http://www.w3.org/2000/svg">
<path d="M8.96362 0.714177L5.42809 4.24971L1.89256 0.714177C1.73628 0.557897 1.52431 0.4701 1.3033 0.4701C1.08229 0.4701 0.870326 0.557897 0.714045 0.714177C0.557765 0.870458 0.469968 1.08242 0.469968 1.30343C0.469968 1.52445 0.557765 1.73641 0.714045 1.89269L4.24958 5.42822L0.714045 8.96376C0.557765 9.12004 0.469968 9.332 0.469968 9.55301C0.469968 9.77403 0.557765 9.98599 0.714045 10.1423C0.870326 10.2985 1.08229 10.3863 1.3033 10.3863C1.52431 10.3863 1.73628 10.2985 1.89256 10.1423L5.42809 6.60673L8.96362 10.1423C9.11991 10.2985 9.33187 10.3863 9.55288 10.3863C9.7739 10.3863 9.98586 10.2985 10.1421 10.1423C10.2984 9.98599 10.3862 9.77403 10.3862 9.55301C10.3862 9.332 10.2984 9.12004 10.1421 8.96376L6.6066 5.42822L10.1421 1.89269C10.2984 1.73641 10.3862 1.52445 10.3862 1.30343C10.3862 1.08242 10.2984 0.870458 10.1421 0.714177C9.98586 0.557897 9.7739 0.470099 9.55288 0.470099C9.33187 0.470099 9.11991 0.557897 8.96362 0.714177Z" fill="white"/>
</svg>
