<svg width="16" height="16" viewBox="0 0 16 16" fill="none" xmlns="http://www.w3.org/2000/svg">
<g id="Accept">
<path id="Vector" d="M12.8973 3.09901C12.7653 2.967 12.5306 2.967 12.3986 3.09901L7.99817 7.49945L3.59773 3.09901C3.46571 2.967 3.23102 2.967 3.09901 3.09901C2.967 3.23102 2.967 3.46571 3.09901 3.59773L7.49945 7.99817L3.09901 12.3986C2.967 12.5306 2.967 12.7653 3.09901 12.8973C3.17235 12.9707 3.26036 13 3.34837 13C3.43638 13 3.52439 12.9707 3.59773 12.8973L7.99817 8.49688L12.3986 12.8973C12.4719 12.9707 12.56 13 12.648 13C12.736 13 12.824 12.9707 12.8973 12.8973C13.0293 12.7653 13.0293 12.5306 12.8973 12.3986L8.49689 7.99817L12.8973 3.59773C13.0293 3.46571 13.0293 3.24569 12.8973 3.09901Z" fill="#C11919"/>
</g>
</svg>
