<svg xmlns="http://www.w3.org/2000/svg" width="24" height="24" viewBox="0 0 24 24" fill="none">
  <path d="M19.8415 4.15842C19.6302 3.94719 19.2546 3.94719 19.0433 4.15842L12 11.1991L4.95671 4.15842C4.74541 3.94719 4.36977 3.94719 4.15847 4.15842C3.94718 4.36964 3.94718 4.74514 4.15847 4.95636L11.2018 11.9971L4.15847 19.0378C3.94718 19.249 3.94718 19.6245 4.15847 19.8357C4.27586 19.9531 4.41673 20 4.55759 20C4.69846 20 4.83932 19.9531 4.95671 19.8357L12 12.795L19.0433 19.8357C19.1607 19.9531 19.3015 20 19.4424 20C19.5833 20 19.7241 19.9531 19.8415 19.8357C20.0528 19.6245 20.0528 19.249 19.8415 19.0378L12.7982 11.9971L19.8415 4.95636C20.0528 4.74514 20.0528 4.39311 19.8415 4.15842Z" fill="#121212"/>
</svg>