<svg width="40" height="40" viewBox="0 0 40 40" fill="none" xmlns="http://www.w3.org/2000/svg">
<g filter="url(#filter0_d_7146_6799)">
<circle cx="20" cy="20" r="16" fill="white"/>
<path d="M25.2229 14.7685C25.082 14.6276 24.8317 14.6276 24.6909 14.7685L19.9971 19.4623L15.3033 14.7685C15.1625 14.6276 14.9121 14.6276 14.7713 14.7685C14.6305 14.9093 14.6305 15.1596 14.7713 15.3004L19.4651 19.9942L14.7713 24.688C14.6305 24.8288 14.6305 25.0792 14.7713 25.22C14.8496 25.2982 14.9434 25.3295 15.0373 25.3295C15.1312 25.3295 15.2251 25.2982 15.3033 25.22L19.9971 20.5262L24.6909 25.22C24.7691 25.2982 24.863 25.3295 24.9569 25.3295C25.0508 25.3295 25.1446 25.2982 25.2229 25.22C25.3637 25.0792 25.3637 24.8288 25.2229 24.688L20.5291 19.9942L25.2229 15.3004C25.3637 15.1596 25.3637 14.9249 25.2229 14.7685Z" fill="#121212"/>
</g>
<defs>
<filter id="filter0_d_7146_6799" x="0" y="0" width="40" height="40" filterUnits="userSpaceOnUse" color-interpolation-filters="sRGB">
<feFlood flood-opacity="0" result="BackgroundImageFix"/>
<feColorMatrix in="SourceAlpha" type="matrix" values="0 0 0 0 0 0 0 0 0 0 0 0 0 0 0 0 0 0 127 0" result="hardAlpha"/>
<feOffset/>
<feGaussianBlur stdDeviation="2"/>
<feComposite in2="hardAlpha" operator="out"/>
<feColorMatrix type="matrix" values="0 0 0 0 0.0705882 0 0 0 0 0.0705882 0 0 0 0 0.0705882 0 0 0 0.3 0"/>
<feBlend mode="normal" in2="BackgroundImageFix" result="effect1_dropShadow_7146_6799"/>
<feBlend mode="normal" in="SourceGraphic" in2="effect1_dropShadow_7146_6799" result="shape"/>
</filter>
</defs>
</svg>
