<svg width="40" height="40" viewBox="0 0 40 40" fill="none" xmlns="http://www.w3.org/2000/svg">
<circle cx="20" cy="20" r="20" fill="#FBF1F1"/>
<g clip-path="url(#clip0_8902_1319)">
<path d="M25.1664 17.7152L24.9144 25.5151C24.8929 26.1831 24.6177 26.8163 24.1471 27.2802C23.6766 27.7442 23.0477 28.0024 22.394 28H17.6054C16.9521 28.0024 16.3236 27.7446 15.8531 27.2812C15.3826 26.8178 15.1071 26.1853 15.085 25.5177L14.833 17.7152C14.8275 17.5443 14.8886 17.3782 15.0028 17.2534C15.1171 17.1286 15.2752 17.0553 15.4423 17.0496C15.6094 17.044 15.7718 17.1065 15.8939 17.2233C16.016 17.3401 16.0876 17.5018 16.0931 17.6726L16.3452 25.4745C16.3577 25.8076 16.496 26.1227 16.731 26.3537C16.966 26.5847 17.2794 26.7137 17.6054 26.7134H22.394C22.7204 26.7136 23.0342 26.5844 23.2692 26.3528C23.5043 26.1212 23.6423 25.8055 23.6542 25.4719L23.9062 17.6726C23.9117 17.5018 23.9834 17.3401 24.1055 17.2233C24.2275 17.1065 24.39 17.044 24.5571 17.0496C24.7242 17.0553 24.8823 17.1286 24.9965 17.2534C25.1108 17.3782 25.1719 17.5443 25.1664 17.7152ZM26 15.1195C26 15.2903 25.9336 15.4542 25.8155 15.575C25.6973 15.6958 25.537 15.7637 25.3699 15.7637H14.6301C14.463 15.7637 14.3027 15.6958 14.1845 15.575C14.0664 15.4542 14 15.2903 14 15.1195C14 14.9486 14.0664 14.7847 14.1845 14.6639C14.3027 14.5431 14.463 14.4752 14.6301 14.4752H16.5834C16.783 14.4758 16.9757 14.4004 17.124 14.2636C17.2722 14.1269 17.3654 13.9387 17.3855 13.7356C17.432 13.2592 17.6503 12.8175 17.9978 12.4967C18.3454 12.1758 18.7974 11.9988 19.2656 12H20.7337C21.202 11.9988 21.654 12.1758 22.0015 12.4967C22.3491 12.8175 22.5674 13.2592 22.6139 13.7356C22.6339 13.9387 22.7272 14.1269 22.8754 14.2636C23.0237 14.4004 23.2164 14.4758 23.416 14.4752H25.3693C25.5364 14.4752 25.6967 14.5431 25.8148 14.6639C25.933 14.7847 25.9994 14.9486 25.9994 15.1195H26ZM18.4793 14.4752H21.5213C21.4385 14.2818 21.3844 14.0768 21.3607 13.867C21.3451 13.7082 21.2724 13.561 21.1566 13.4539C21.0409 13.3468 20.8905 13.2874 20.7344 13.2872H19.2663C19.1102 13.2874 18.9597 13.3468 18.844 13.4539C18.7283 13.561 18.6556 13.7082 18.64 13.867C18.616 14.0768 18.5623 14.2818 18.4793 14.4752ZM19.1138 24.2363V18.7505C19.1138 18.5796 19.0474 18.4157 18.9292 18.2949C18.8111 18.1741 18.6508 18.1062 18.4837 18.1062C18.3166 18.1062 18.1563 18.1741 18.0382 18.2949C17.92 18.4157 17.8536 18.5796 17.8536 18.7505V24.2388C17.8536 24.4097 17.92 24.5736 18.0382 24.6944C18.1563 24.8152 18.3166 24.8831 18.4837 24.8831C18.6508 24.8831 18.8111 24.8152 18.9292 24.6944C19.0474 24.5736 19.1138 24.4097 19.1138 24.2388V24.2363ZM22.147 24.2363V18.7505C22.147 18.5796 22.0806 18.4157 21.9625 18.2949C21.8443 18.1741 21.684 18.1062 21.5169 18.1062C21.3498 18.1062 21.1896 18.1741 21.0714 18.2949C20.9532 18.4157 20.8868 18.5796 20.8868 18.7505V24.2388C20.8868 24.4097 20.9532 24.5736 21.0714 24.6944C21.1896 24.8152 21.3498 24.8831 21.5169 24.8831C21.684 24.8831 21.8443 24.8152 21.9625 24.6944C22.0806 24.5736 22.147 24.4097 22.147 24.2388V24.2363Z" fill="#C11919"/>
</g>
<defs>
<clipPath id="clip0_8902_1319">
<rect width="16" height="16" fill="white" transform="translate(12 12)"/>
</clipPath>
</defs>
</svg>
