<svg width="16" height="16" viewBox="0 0 16 16" fill="none" xmlns="http://www.w3.org/2000/svg">
<g id="Delete">
<path id="Vector" d="M4.88004 14.9334H11.1734C11.8934 14.9334 12.4534 14.3468 12.4534 13.6534V4.98676H13.0134C13.1734 4.98676 13.28 4.8801 13.28 4.7201V4.10676C13.28 3.54676 12.8267 3.1201 12.2934 3.1201H10.0267V2.42676C10.0267 1.97343 9.65337 1.6001 9.20004 1.6001H6.8267C6.37337 1.6001 6.00004 1.97343 6.00004 2.42676V3.1201H3.73337C3.17337 3.1201 2.7467 3.57343 2.7467 4.10676V4.7201C2.7467 4.8801 2.85337 4.98676 3.01337 4.98676H3.57337V13.6534C3.57337 14.3468 4.16004 14.9334 4.88004 14.9334ZM11.92 13.6534C11.92 14.0801 11.5734 14.4001 11.1734 14.4001H4.88004C4.45337 14.4001 4.13337 14.0534 4.13337 13.6534V4.98676H11.9467V13.6534H11.92ZM6.53337 2.42676C6.53337 2.26676 6.6667 2.13343 6.8267 2.13343H9.20004C9.36004 2.13343 9.49337 2.26676 9.49337 2.42676V3.1201H6.56004V2.42676H6.53337ZM3.28004 4.10676C3.28004 3.8401 3.49337 3.65343 3.73337 3.65343H12.2667C12.5334 3.65343 12.72 3.86676 12.72 4.10676V4.45343H3.28004V4.10676Z" fill="url(#paint0_linear_7216_1622)"/>
<path id="Vector_2" d="M10.1067 13.1202C10.2667 13.1202 10.3733 13.0136 10.3733 12.8536V6.5069C10.3733 6.3469 10.2667 6.24023 10.1067 6.24023C9.94665 6.24023 9.83999 6.3469 9.83999 6.5069V12.8536C9.83999 13.0136 9.97332 13.1202 10.1067 13.1202ZM8.02665 13.1202C8.18665 13.1202 8.29332 13.0136 8.29332 12.8536V6.5069C8.29332 6.3469 8.18665 6.24023 8.02665 6.24023C7.86665 6.24023 7.75999 6.3469 7.75999 6.5069V12.8536C7.75999 13.0136 7.86665 13.1202 8.02665 13.1202ZM5.91999 13.1202C6.07999 13.1202 6.18665 13.0136 6.18665 12.8536V6.5069C6.18665 6.3469 6.07999 6.24023 5.91999 6.24023C5.75999 6.24023 5.65332 6.3469 5.65332 6.5069V12.8536C5.65332 13.0136 5.75999 13.1202 5.91999 13.1202Z" fill="url(#paint1_linear_7216_1622)"/>
</g>
<defs>
<linearGradient id="paint0_linear_7216_1622" x1="8.01337" y1="1.77104" x2="8.01337" y2="14.4206" gradientUnits="userSpaceOnUse">
<stop stop-color="#FF7312"/>
<stop offset="1" stop-color="#182452"/>
</linearGradient>
<linearGradient id="paint1_linear_7216_1622" x1="8.01332" y1="6.32844" x2="8.01332" y2="12.8556" gradientUnits="userSpaceOnUse">
<stop stop-color="#FF7312"/>
<stop offset="1" stop-color="#182452"/>
</linearGradient>
</defs>
</svg>
