<svg width="24" height="24" viewBox="0 0 24 24" fill="none" xmlns="http://www.w3.org/2000/svg">
<g id="people" clip-path="url(#clip0_7146_200)">
<path id="Vector" d="M14.9171 7.42857C14.9171 9.05175 13.6188 10.3571 12 10.3571C10.379 10.3571 9.07143 9.04957 9.07143 7.42857C9.07143 5.80757 10.379 4.5 12 4.5C13.6188 4.5 14.9171 5.80539 14.9171 7.42857ZM4.5 17.1429C4.5 16.6609 4.73752 16.2019 5.21451 15.762C5.69491 15.319 6.38411 14.9299 7.18719 14.6085C8.79416 13.9654 10.731 13.6429 12 13.6429C13.269 13.6429 15.2058 13.9654 16.8128 14.6085C17.6159 14.9299 18.3051 15.319 18.7855 15.762C19.2625 16.2019 19.5 16.6609 19.5 17.1429V18.8571C19.5 19.2096 19.2096 19.5 18.8571 19.5H5.14286C4.79043 19.5 4.5 19.2096 4.5 18.8571V17.1429Z" stroke="url(#paint0_linear_7146_200)"/>
</g>
<defs>
<linearGradient id="paint0_linear_7146_200" x1="12" y1="4.20513" x2="12" y2="19.3846" gradientUnits="userSpaceOnUse">
<stop stop-color="#FF7312"/>
<stop offset="1" stop-color="#182452"/>
</linearGradient>
<clipPath id="clip0_7146_200">
<rect width="24" height="24" fill="white"/>
</clipPath>
</defs>
</svg>
