<svg width="24" height="24" viewBox="0 0 24 24" fill="none" xmlns="http://www.w3.org/2000/svg">
<g id="Event">
<path id="Vector" d="M7.25663 4.00004C7.21773 4.00066 7.17934 4.00893 7.14364 4.0244C7.10795 4.03986 7.07565 4.06221 7.04858 4.09016C7.02152 4.11812 7.00023 4.15113 6.98592 4.18732C6.97161 4.22351 6.96457 4.26216 6.9652 4.30107V5.18522H4.29616C4.21762 5.18522 4.14229 5.21644 4.08674 5.272C4.0312 5.32757 4 5.40293 4 5.48152L4.00355 9.03706L4.59233 8.74073L4.59233 5.77781H6.9652V6.42492C6.62165 6.54818 6.37287 6.87588 6.37287 7.25929C6.37287 7.7464 6.77388 8.14818 7.26137 8.14818C7.74826 8.14818 8.14986 7.7464 8.14986 7.25929C8.14986 6.87588 7.90049 6.54818 7.55753 6.42492V5.77781H16.4425V6.42492C16.0989 6.54818 15.8501 6.87588 15.8501 7.25929C15.8501 7.7464 16.2511 8.14818 16.7386 8.14818C17.2255 8.14818 17.6271 7.7464 17.6271 7.25929C17.6271 6.87588 17.3778 6.54818 17.0348 6.42492V5.77781H19.4077V8.74077L19.9964 9.03706L20 5.48152C20 5.40293 19.9688 5.32757 19.9133 5.272C19.8577 5.21644 19.7824 5.18522 19.7038 5.18522H17.0348V4.30107C17.0354 4.26137 17.0281 4.22193 17.0132 4.18512C16.9983 4.14831 16.9762 4.11487 16.9481 4.08678C16.92 4.0587 16.8866 4.03655 16.8498 4.02165C16.813 4.00675 16.7736 3.9994 16.7339 4.00004C16.695 4.00066 16.6566 4.00893 16.6209 4.0244C16.5852 4.03986 16.5529 4.06221 16.5259 4.09016C16.4988 4.11812 16.4775 4.15113 16.4632 4.18732C16.4489 4.22351 16.4418 4.26216 16.4425 4.30107V5.18522H7.55753V4.30107C7.55817 4.26137 7.55082 4.22193 7.53593 4.18512C7.52103 4.14831 7.49889 4.11487 7.47082 4.08678C7.44275 4.0587 7.40933 4.03655 7.37253 4.02165C7.33573 4.00675 7.29632 3.9994 7.25663 4.00004ZM7.22879 6.96892C7.25005 6.97123 7.2715 6.97123 7.29276 6.96892C7.36534 6.97504 7.43294 7.00835 7.48203 7.06219C7.53112 7.11602 7.55809 7.18642 7.55753 7.25929C7.55753 7.4264 7.4284 7.55559 7.26137 7.55559C7.22232 7.55614 7.18356 7.54886 7.14737 7.53417C7.11119 7.51948 7.07831 7.49767 7.0507 7.47005C7.02309 7.44242 7.00129 7.40954 6.98661 7.37333C6.97192 7.33713 6.96464 7.29835 6.9652 7.25929C6.9652 7.10403 7.07893 6.98492 7.22879 6.96892ZM16.7061 6.96892C16.7273 6.97123 16.7488 6.97123 16.77 6.96892C16.8426 6.97504 16.9102 7.00835 16.9593 7.06219C17.0084 7.11602 17.0354 7.18642 17.0348 7.25929C17.0348 7.4264 16.9057 7.55559 16.7386 7.55559C16.6996 7.55614 16.6608 7.54886 16.6246 7.53417C16.5885 7.51948 16.5556 7.49767 16.528 7.47005C16.5004 7.44242 16.4786 7.40954 16.4639 7.37333C16.4492 7.33713 16.4419 7.29835 16.4425 7.25929C16.4425 7.10403 16.5562 6.98492 16.7061 6.96892ZM4.29972 8.74077C4.22117 8.74077 4.14584 8.77198 4.0903 8.82755C4.03476 8.88312 4.00355 8.95848 4.00355 9.03706L4.00355 19.7037C4.00355 19.7823 4.03476 19.8577 4.0903 19.9132C4.14584 19.9688 4.22117 20 4.29972 20H19.7003C19.7788 20 19.8542 19.9688 19.9097 19.9132C19.9652 19.8577 19.9964 19.7823 19.9964 19.7037V9.03706C19.9964 8.95848 19.9652 8.88312 19.9097 8.82755C19.8542 8.77198 19.7788 8.74077 19.7003 8.74077H4.29972ZM4.59588 9.33336H19.4041V19.4074H4.59588V9.33336ZM10.223 9.92595C10.1445 9.92595 10.0691 9.95717 10.0136 10.0127C9.95805 10.0683 9.92685 10.1437 9.92685 10.2222V11.4074C9.92685 11.486 9.95805 11.5614 10.0136 11.6169C10.0691 11.6725 10.1445 11.7037 10.223 11.7037H11.4077C11.4862 11.7037 11.5615 11.6725 11.6171 11.6169C11.6726 11.5614 11.7038 11.486 11.7038 11.4074V10.2222C11.7038 10.1437 11.6726 10.0683 11.6171 10.0127C11.5615 9.95717 11.4862 9.92595 11.4077 9.92595H10.223ZM12.5923 9.92595C12.5138 9.92595 12.4385 9.95717 12.3829 10.0127C12.3274 10.0683 12.2962 10.1437 12.2962 10.2222V11.4074C12.2962 11.486 12.3274 11.5614 12.3829 11.6169C12.4385 11.6725 12.5138 11.7037 12.5923 11.7037H13.777C13.8555 11.7037 13.9309 11.6725 13.9864 11.6169C14.042 11.5614 14.0732 11.486 14.0732 11.4074V10.2222C14.0732 10.1437 14.042 10.0683 13.9864 10.0127C13.9309 9.95717 13.8555 9.92595 13.777 9.92595H12.5923ZM14.9616 9.92595C14.8831 9.92595 14.8078 9.95717 14.7522 10.0127C14.6967 10.0683 14.6655 10.1437 14.6655 10.2222V11.4074C14.6655 11.486 14.6967 11.5614 14.7522 11.6169C14.8078 11.6725 14.8831 11.7037 14.9616 11.7037H16.1463C16.2249 11.7037 16.3002 11.6725 16.3557 11.6169C16.4113 11.5614 16.4425 11.486 16.4425 11.4074V10.2222C16.4425 10.1437 16.4113 10.0683 16.3557 10.0127C16.3002 9.95717 16.2249 9.92595 16.1463 9.92595H14.9616ZM17.331 9.92595C17.2524 9.92595 17.1771 9.95717 17.1215 10.0127C17.066 10.0683 17.0348 10.1437 17.0348 10.2222V11.4074C17.0348 11.486 17.066 11.5614 17.1215 11.6169C17.1771 11.6725 17.2524 11.7037 17.331 11.7037H18.5156C18.5942 11.7037 18.6695 11.6725 18.725 11.6169C18.7806 11.5614 18.8118 11.486 18.8118 11.4074V10.2222C18.8118 10.1437 18.7806 10.0683 18.725 10.0127C18.6695 9.95717 18.5942 9.92595 18.5156 9.92595H17.331ZM9.03006 10.3313C8.95335 10.333 8.8803 10.3644 8.8263 10.419L8.24937 10.9908L8.06397 10.8077C8.03648 10.7796 8.00368 10.7573 7.96747 10.742C7.93126 10.7267 7.89237 10.7188 7.85307 10.7187C7.81376 10.7186 7.77483 10.7263 7.73855 10.7414C7.70226 10.7565 7.66934 10.7787 7.64171 10.8066C7.61407 10.8346 7.59228 10.8678 7.57759 10.9043C7.56291 10.9407 7.55563 10.9798 7.55617 11.0191C7.55672 11.0584 7.56508 11.0972 7.58077 11.1333C7.59646 11.1693 7.61917 11.2019 7.64756 11.2291L8.04087 11.6178C8.09631 11.6726 8.17112 11.7034 8.24907 11.7034C8.32703 11.7034 8.40184 11.6726 8.45728 11.6178L9.2433 10.8403C9.28632 10.7989 9.31581 10.7454 9.3279 10.6869C9.34 10.6284 9.33413 10.5676 9.31107 10.5125C9.28801 10.4574 9.24884 10.4105 9.19869 10.3781C9.14854 10.3456 9.08976 10.3297 9.03006 10.3313ZM5.78054 10.5185V11.1111H6.37287V10.5185H5.78054ZM10.5192 10.5185H11.1115V11.1111H10.5192V10.5185ZM12.8885 10.5185H13.4808V11.1111H12.8885V10.5185ZM15.2578 10.5185H15.8501V11.1111H15.2578V10.5185ZM17.6271 10.5185H18.2195V11.1111H17.6271V10.5185ZM5.48438 12.2963C5.40583 12.2963 5.3305 12.3275 5.27496 12.3831C5.21942 12.4387 5.18821 12.514 5.18821 12.5926V13.7778C5.18821 13.8564 5.21942 13.9317 5.27496 13.9873C5.3305 14.0429 5.40583 14.0741 5.48438 14.0741H6.66904C6.74758 14.0741 6.82291 14.0429 6.87846 13.9873C6.934 13.9317 6.9652 13.8564 6.9652 13.7778V12.5926C6.9652 12.514 6.934 12.4387 6.87846 12.3831C6.82291 12.3275 6.74758 12.2963 6.66904 12.2963H5.48438ZM7.85369 12.2963C7.77515 12.2963 7.69982 12.3275 7.64427 12.3831C7.58873 12.4387 7.55753 12.514 7.55753 12.5926V13.7778C7.55753 13.8564 7.58873 13.9317 7.64427 13.9873C7.69982 14.0429 7.77515 14.0741 7.85369 14.0741H9.03835C9.1169 14.0741 9.19223 14.0429 9.24777 13.9873C9.30332 13.9317 9.33452 13.8564 9.33452 13.7778V12.5926C9.33452 12.514 9.30332 12.4387 9.24777 12.3831C9.19223 12.3275 9.1169 12.2963 9.03835 12.2963H7.85369ZM10.223 12.2963C10.1445 12.2963 10.0691 12.3275 10.0136 12.3831C9.95805 12.4387 9.92685 12.514 9.92685 12.5926V13.7778C9.92685 13.8564 9.95805 13.9317 10.0136 13.9873C10.0691 14.0429 10.1445 14.0741 10.223 14.0741H11.4077C11.4862 14.0741 11.5615 14.0429 11.6171 13.9873C11.6726 13.9317 11.7038 13.8564 11.7038 13.7778V12.5926C11.7038 12.514 11.6726 12.4387 11.6171 12.3831C11.5615 12.3275 11.4862 12.2963 11.4077 12.2963H10.223ZM12.5923 12.2963C12.5138 12.2963 12.4385 12.3275 12.3829 12.3831C12.3274 12.4387 12.2962 12.514 12.2962 12.5926V13.7778C12.2962 13.8564 12.3274 13.9317 12.3829 13.9873C12.4385 14.0429 12.5138 14.0741 12.5923 14.0741H13.777C13.8555 14.0741 13.9309 14.0429 13.9864 13.9873C14.042 13.9317 14.0732 13.8564 14.0732 13.7778V12.5926C14.0732 12.514 14.042 12.4387 13.9864 12.3831C13.9309 12.3275 13.8555 12.2963 13.777 12.2963H12.5923ZM17.331 12.2963C17.2524 12.2963 17.1771 12.3275 17.1215 12.3831C17.066 12.4387 17.0348 12.514 17.0348 12.5926V13.7778C17.0348 13.8564 17.066 13.9317 17.1215 13.9873C17.1771 14.0429 17.2524 14.0741 17.331 14.0741H18.5156C18.5942 14.0741 18.6695 14.0429 18.725 13.9873C18.7806 13.9317 18.8118 13.8564 18.8118 13.7778V12.5926C18.8118 12.514 18.7806 12.4387 18.725 12.3831C18.6695 12.3275 18.5942 12.2963 18.5156 12.2963H17.331ZM16.1392 12.7016C16.0625 12.7034 15.9894 12.7348 15.9354 12.7894L15.3573 13.3612L15.1719 13.1781C15.1444 13.15 15.1116 13.1276 15.0754 13.1124C15.0392 13.0971 15.0003 13.0891 14.961 13.089C14.9217 13.0889 14.8828 13.0967 14.8465 13.1118C14.8102 13.1269 14.7773 13.149 14.7497 13.177C14.722 13.205 14.7002 13.2382 14.6855 13.2746C14.6709 13.3111 14.6636 13.3501 14.6641 13.3894C14.6647 13.4288 14.673 13.4676 14.6887 13.5036C14.7044 13.5397 14.7271 13.5722 14.7555 13.5994L15.1488 13.9882C15.2043 14.043 15.2791 14.0737 15.357 14.0737C15.435 14.0737 15.5098 14.043 15.5652 13.9882L16.3524 13.2107C16.3955 13.1692 16.4249 13.1158 16.437 13.0573C16.4491 12.9987 16.4433 12.9379 16.4202 12.8828C16.3971 12.8277 16.358 12.7809 16.3078 12.7484C16.2577 12.716 16.1989 12.7001 16.1392 12.7016ZM5.78054 12.8889H6.37287V13.4815H5.78054V12.8889ZM8.14986 12.8889H8.74219V13.4815H8.14986V12.8889ZM10.5192 12.8889H11.1115V13.4815H10.5192V12.8889ZM12.8885 12.8889H13.4808V13.4815H12.8885V12.8889ZM17.6271 12.8889H18.2195V13.4815H17.6271V12.8889ZM5.48438 14.6667C5.40583 14.6667 5.3305 14.6979 5.27496 14.7535C5.21942 14.809 5.18821 14.8844 5.18821 14.963V16.1482C5.18821 16.2267 5.21942 16.3021 5.27496 16.3577C5.3305 16.4132 5.40583 16.4445 5.48438 16.4445H6.66904C6.74758 16.4445 6.82291 16.4132 6.87846 16.3577C6.934 16.3021 6.9652 16.2267 6.9652 16.1482V14.963C6.9652 14.8844 6.934 14.809 6.87846 14.7535C6.82291 14.6979 6.74758 14.6667 6.66904 14.6667H5.48438ZM7.85369 14.6667C7.77515 14.6667 7.69982 14.6979 7.64427 14.7535C7.58873 14.809 7.55753 14.8844 7.55753 14.963V16.1482C7.55753 16.2267 7.58873 16.3021 7.64427 16.3577C7.69982 16.4132 7.77515 16.4445 7.85369 16.4445H9.03835C9.1169 16.4445 9.19223 16.4132 9.24777 16.3577C9.30332 16.3021 9.33452 16.2267 9.33452 16.1482V14.963C9.33452 14.8844 9.30332 14.809 9.24777 14.7535C9.19223 14.6979 9.1169 14.6667 9.03835 14.6667H7.85369ZM12.5923 14.6667C12.5138 14.6667 12.4385 14.6979 12.3829 14.7535C12.3274 14.809 12.2962 14.8844 12.2962 14.963V16.1482C12.2962 16.2267 12.3274 16.3021 12.3829 16.3577C12.4385 16.4132 12.5138 16.4445 12.5923 16.4445H13.777C13.8555 16.4445 13.9309 16.4132 13.9864 16.3577C14.042 16.3021 14.0732 16.2267 14.0732 16.1482V14.963C14.0732 14.8844 14.042 14.809 13.9864 14.7535C13.9309 14.6979 13.8555 14.6667 13.777 14.6667H12.5923ZM14.9616 14.6667C14.8831 14.6667 14.8078 14.6979 14.7522 14.7535C14.6967 14.809 14.6655 14.8844 14.6655 14.963V16.1482C14.6655 16.2267 14.6967 16.3021 14.7522 16.3577C14.8078 16.4132 14.8831 16.4445 14.9616 16.4445H16.1463C16.2249 16.4445 16.3002 16.4132 16.3557 16.3577C16.4113 16.3021 16.4425 16.2267 16.4425 16.1482V14.963C16.4425 14.8844 16.4113 14.809 16.3557 14.7535C16.3002 14.6979 16.2249 14.6667 16.1463 14.6667H14.9616ZM17.331 14.6667C17.2524 14.6667 17.1771 14.6979 17.1215 14.7535C17.066 14.809 17.0348 14.8844 17.0348 14.963V16.1482C17.0348 16.2267 17.066 16.3021 17.1215 16.3577C17.1771 16.4132 17.2524 16.4445 17.331 16.4445H18.5156C18.5942 16.4445 18.6695 16.4132 18.725 16.3577C18.7806 16.3021 18.8118 16.2267 18.8118 16.1482V14.963C18.8118 14.8844 18.7806 14.809 18.725 14.7535C18.6695 14.6979 18.5942 14.6667 18.5156 14.6667H17.331ZM11.4006 15.0708C11.3234 15.0722 11.2499 15.1037 11.1956 15.1585L10.6187 15.7316L10.4333 15.5485C10.4058 15.5204 10.373 15.498 10.3368 15.4827C10.3006 15.4674 10.2617 15.4595 10.2224 15.4594C10.1831 15.4593 10.1442 15.467 10.1079 15.4821C10.0716 15.4972 10.0387 15.5194 10.011 15.5474C9.98339 15.5753 9.9616 15.6085 9.94691 15.645C9.93223 15.6815 9.92494 15.7205 9.92549 15.7598C9.92603 15.7991 9.9344 15.8379 9.95009 15.874C9.96578 15.91 9.98848 15.9426 10.0169 15.9698L10.4102 16.3585C10.4656 16.4134 10.5404 16.4441 10.6184 16.4441C10.6963 16.4441 10.7712 16.4134 10.8266 16.3585L11.6126 15.5799C11.6556 15.5385 11.685 15.4851 11.6971 15.4267C11.7093 15.3683 11.7035 15.3076 11.6806 15.2526C11.6577 15.1975 11.6187 15.1507 11.5687 15.1181C11.5188 15.0856 11.4602 15.0695 11.4006 15.0708ZM5.78054 15.2593H6.37287V15.8519H5.78054V15.2593ZM8.14986 15.2593H8.74219V15.8519H8.14986V15.2593ZM12.8885 15.2593H13.4808V15.8519H12.8885V15.2593ZM15.2578 15.2593H15.8501V15.8519H15.2578V15.2593ZM17.6271 15.2593H18.2195V15.8519H17.6271V15.2593ZM5.48438 17.037C5.40583 17.037 5.3305 17.0683 5.27496 17.1238C5.21942 17.1794 5.18821 17.2548 5.18821 17.3333V18.5185C5.18821 18.5971 5.21942 18.6725 5.27496 18.728C5.3305 18.7836 5.40583 18.8148 5.48438 18.8148H6.66904C6.74758 18.8148 6.82291 18.7836 6.87846 18.728C6.934 18.6725 6.9652 18.5971 6.9652 18.5185V17.3333C6.9652 17.2548 6.934 17.1794 6.87846 17.1238C6.82291 17.0683 6.74758 17.037 6.66904 17.037H5.48438ZM7.85369 17.037C7.77515 17.037 7.69982 17.0683 7.64427 17.1238C7.58873 17.1794 7.55753 17.2548 7.55753 17.3333V18.5185C7.55753 18.5971 7.58873 18.6725 7.64427 18.728C7.69982 18.7836 7.77515 18.8148 7.85369 18.8148H9.03835C9.1169 18.8148 9.19223 18.7836 9.24777 18.728C9.30332 18.6725 9.33452 18.5971 9.33452 18.5185V17.3333C9.33452 17.2548 9.30332 17.1794 9.24777 17.1238C9.19223 17.0683 9.1169 17.037 9.03835 17.037H7.85369ZM5.78054 17.6296H6.37287V18.2222H5.78054V17.6296ZM8.14986 17.6296H8.74219V18.2222H8.14986V17.6296ZM10.5192 17.6296V18.2222H11.1115V17.6296H10.5192ZM12.8885 17.6296V18.2222H13.4808V17.6296H12.8885ZM15.2578 17.6296V18.2222H15.8501V17.6296H15.2578ZM17.6271 17.6296V18.2222H18.2195V17.6296H17.6271Z" fill="url(#paint0_linear_7146_4927)"/>
</g>
<defs>
<linearGradient id="paint0_linear_7146_4927" x1="12" y1="4.20513" x2="12" y2="19.3846" gradientUnits="userSpaceOnUse">
<stop stop-color="#109b4f"/>
<stop offset="1" stop-color="#109b4f"/>
</linearGradient>
</defs>
</svg>
