<svg width="16" height="16" viewBox="0 0 16 16" fill="none" xmlns="http://www.w3.org/2000/svg">
<g id="Excel App" clip-path="url(#clip0_7208_1393)">
<path id="Vector" d="M8.36869 0H9.44817V1.48837C11.2674 1.48837 13.0864 1.49209 14.9055 1.48272C15.2127 1.49567 15.5507 1.47349 15.8177 1.66132C16.0049 1.93667 15.9832 2.28644 15.9958 2.60272C15.9868 5.83248 15.9905 9.06046 15.9923 12.2883C15.9833 12.8298 16.0413 13.3823 15.9306 13.9163C15.8579 14.3033 15.4035 14.3125 15.1 14.3256C13.2173 14.3311 11.3328 14.3219 9.44817 14.3256V16H8.31955C5.54998 15.4846 2.77489 15.0084 0.00183105 14.5116V1.49031C2.79146 0.993488 5.58095 0.50426 8.36869 0Z" fill="#207245"/>
<path id="Vector_2" d="M9.44751 2.04639H15.4446V13.7673H9.44751V12.651H10.9014V11.3487H9.44751V10.6045H10.9014V9.3022H9.44751V8.55802H10.9014V7.25569H9.44751V6.5115H10.9014V5.20918H9.44751V4.46499H10.9014V3.16267H9.44751V2.04639Z" fill="white"/>
<path id="Vector_3" d="M11.6283 3.1626H14.1725V4.46492H11.6283V3.1626Z" fill="#207245"/>
<path id="Vector_4" d="M5.38397 4.90579C5.79468 4.87603 6.20728 4.84998 6.61974 4.82959C6.13526 5.84819 5.64642 6.8646 5.15325 7.87882C5.65308 8.92068 6.16352 9.9551 6.6651 10.997C6.22761 10.9713 5.79029 10.9427 5.35315 10.9114C5.04421 10.1355 4.66796 9.38579 4.44624 8.57463C4.19924 9.32998 3.84653 10.0425 3.56318 10.7831C3.16512 10.7774 2.76706 10.7608 2.36914 10.7439C2.83611 9.80819 3.28681 8.86486 3.76832 7.93463C3.3595 6.97642 2.91055 6.03696 2.48894 5.0844C2.88874 5.06014 3.28855 5.03603 3.68836 5.0137C3.95906 5.74122 4.25521 6.45921 4.47896 7.20533C4.71869 6.41471 5.07678 5.67052 5.38397 4.90579Z" fill="white"/>
<path id="Vector_5" d="M11.6283 5.20947H14.1725V6.5118H11.6283V5.20947ZM11.6283 7.25598H14.1725V8.55831H11.6283V7.25598ZM11.6283 9.3025H14.1725V10.6048H11.6283V9.3025ZM11.6283 11.349H14.1725V12.6513H11.6283V11.349Z" fill="#207245"/>
</g>
<defs>
<clipPath id="clip0_7208_1393">
<rect width="16" height="16" fill="white"/>
</clipPath>
</defs>
</svg>
