<svg width="20" height="20" viewBox="0 0 20 20" fill="none" xmlns="http://www.w3.org/2000/svg">
<g id="external-link">
<path id="Vector" d="M10.0335 12.1631C10.0885 11.7478 10.0445 11.3089 9.83699 10.9395L9.46815 11.2995C9.80371 12.2795 9.3121 12.8263 8.64153 13.451L6.96171 15.0329C6.60086 15.3772 6.25037 15.793 5.76404 15.9585C5.39308 16.0847 4.92461 16.0663 4.57272 15.8892C4.16777 15.6854 3.69319 15.1728 3.55799 14.7521C3.23582 13.7497 4.00658 13.1602 4.63882 12.5696L6.55278 10.7595C6.88103 10.4464 7.16837 10.1239 7.61646 9.98421C8.02176 9.85785 8.48927 9.91358 8.86221 10.1117L9.15085 9.83505C8.52056 9.36267 7.6079 9.32232 6.95001 9.77342C6.79797 9.8777 6.66528 10.0087 6.5321 10.1355L4.59602 11.966C4.52052 12.0374 4.43548 12.1345 4.33477 12.168C4.22705 12.2039 4.10515 12.1299 4.07702 12.022C4.04141 11.8851 4.16793 11.793 4.25332 11.7088L6.40099 9.67544C7.29578 8.88594 8.51758 8.82143 9.46812 9.52482L9.72682 9.28689C9.31393 8.33658 9.28465 7.2916 9.99692 6.45425C10.1843 6.23394 10.409 6.04552 10.62 5.84853L12.8611 3.7244C13.347 3.27094 13.8124 2.98677 14.4982 2.93373C14.9703 2.89839 15.4733 3.01406 15.8789 3.25891C16.2416 3.47782 16.7655 4.03888 16.9822 4.39243C17.4124 5.09418 17.4346 6.0368 17.0065 6.74364C16.776 7.12408 16.4247 7.42085 16.1087 7.72782L13.8164 9.92804C13.2196 10.4824 12.7048 10.8868 11.8106 10.8366C11.3208 10.8092 10.882 10.5852 10.4708 10.3351L10.2251 10.5655C10.1703 10.618 10.1584 10.6011 10.1902 10.6697C10.5589 11.4655 10.5923 12.4318 10.08 13.176C9.89158 13.4497 9.65828 13.6731 9.42063 13.903L7.14914 16.0592C6.99496 16.2062 6.84164 16.3607 6.66981 16.4872C5.91896 17.0396 4.72539 17.0811 3.94011 16.5612C3.6194 16.3488 3.29128 16.0218 3.06404 15.711C2.42374 14.8352 2.48158 13.5602 3.21067 12.7575C3.32667 12.6298 3.56565 12.3742 3.71264 12.6064C3.83066 12.7928 3.62933 12.9028 3.52071 13.0279C2.96102 13.6727 2.87816 14.6596 3.34956 15.3765C3.58023 15.7273 4.00277 16.1391 4.37865 16.3186C4.96772 16.6 5.80907 16.5619 6.35183 16.198C6.55368 16.0626 6.72378 15.8889 6.8988 15.7219L8.87986 13.8363C9.4397 13.3017 9.87487 12.9647 10.0335 12.1631ZM14.4878 3.36005C13.8031 3.42605 13.4593 3.74565 12.9835 4.19287L11.0212 6.04409C10.7897 6.25907 10.5346 6.46151 10.334 6.70663C9.81612 7.33921 9.71953 8.24217 10.0515 8.98337L10.4056 8.64985C10.1854 8.08532 10.3409 7.42888 10.7351 6.98094C10.8847 6.811 11.0596 6.66054 11.2254 6.50655L13.041 4.78557C13.259 4.57769 13.472 4.3554 13.7056 4.16539C14.1224 3.82632 14.7191 3.70914 15.2182 3.93897C15.6363 4.13155 16.1682 4.68495 16.3228 5.11527C16.4983 5.6036 16.3943 6.12523 16.0549 6.51011C15.8602 6.73157 15.6445 6.93814 15.4331 7.14381L13.5826 8.92667C12.8757 9.60032 12.1848 10.2675 11.1864 9.70258L10.7992 10.0157C10.833 10.0551 10.894 10.0891 10.9382 10.1165C11.6658 10.5678 12.5387 10.4852 13.1752 9.93678L16.0015 7.24185C16.4916 6.76339 16.8468 6.44225 16.8994 5.70806C16.9784 4.60521 15.8532 3.42763 14.7772 3.35676L14.4878 3.36005ZM14.6492 4.25199C14.1544 4.27835 13.9317 4.5147 13.592 4.84127L11.6948 6.64535C11.1553 7.15181 10.6837 7.42808 10.7423 8.26875L10.7512 8.34682C10.9767 8.13454 11.232 7.85334 11.5684 7.86436C11.9316 7.87627 12.1484 8.21543 12.1257 8.55534C12.1083 8.81647 11.8748 9.02341 11.6942 9.18848L11.4752 9.38084C12.2316 9.77792 12.8812 9.01817 13.366 8.55342L14.3939 7.56148C14.8067 7.15603 15.2509 6.76919 15.6391 6.34027C16.2175 5.70127 16.027 5.2059 15.4837 4.661C15.2294 4.40596 15.0175 4.26449 14.6492 4.25199ZM11.5212 8.28171C11.2852 8.35559 11.0503 8.63946 10.8706 8.80453L8.35524 11.1295C8.19142 11.2911 8.08856 11.5279 8.41932 11.5735C8.66749 11.5265 9.28285 10.8886 9.48638 10.6997L11.4277 8.87769C11.5086 8.80161 11.6136 8.71877 11.678 8.62826C11.7754 8.49141 11.7038 8.2854 11.5212 8.28171ZM7.91652 10.3476C7.47289 10.4149 7.19377 10.7317 6.88658 11.0266L4.40077 13.3792C4.06089 13.7131 3.84508 13.9837 3.92929 14.5027C3.98825 14.866 4.3348 15.2091 4.62716 15.4183C5.072 15.7366 5.6239 15.6592 6.03236 15.3288L8.33329 13.1561C8.79695 12.7162 9.29647 12.3127 9.12033 11.594C8.85247 11.7717 8.66932 12.0644 8.3049 11.9887C7.98084 11.9214 7.70998 11.5867 7.78615 11.2496C7.83553 11.0311 8.0247 10.862 8.18754 10.7213L8.52525 10.4304C8.31551 10.3623 8.13869 10.328 7.91652 10.3476Z" fill="url(#paint0_linear_7146_5318)"/>
</g>
<defs>
<linearGradient id="paint0_linear_7146_5318" x1="9.96872" y1="3.10698" x2="9.96871" y2="16.389" gradientUnits="userSpaceOnUse">
<stop stop-color="#FF7312"/>
<stop offset="1" stop-color="#182452"/>
</linearGradient>
</defs>
</svg>
