<svg width="24" height="24" viewBox="0 0 24 24" fill="none" xmlns="http://www.w3.org/2000/svg">
<g id="Faq">
<path id="26 Faq, Answer Bubble, Customer Response" d="M6.85714 19C6.81884 18.9999 6.78095 18.9923 6.74571 18.9776C6.69407 18.9562 6.65001 18.9203 6.61902 18.8745C6.58802 18.8287 6.57147 18.775 6.57143 18.72V16.2H5.42857C5.04969 16.2 4.68633 16.0525 4.41842 15.7899C4.15051 15.5274 4 15.1713 4 14.8V8.08C4 7.7087 4.15051 7.3526 4.41842 7.09005C4.68633 6.8275 5.04969 6.68 5.42857 6.68H16.8571C17.236 6.68 17.5994 6.8275 17.8673 7.09005C18.1352 7.3526 18.2857 7.7087 18.2857 8.08V14.8C18.2857 15.1713 18.1352 15.5274 17.8673 15.7899C17.5994 16.0525 17.236 16.2 16.8571 16.2H9.95429L7.05429 18.9216C7.00132 18.9716 6.93071 18.9997 6.85714 19ZM5.42857 7.24C5.20124 7.24 4.98323 7.3285 4.82248 7.48603C4.66173 7.64356 4.57143 7.85722 4.57143 8.08V14.8C4.57143 15.0228 4.66173 15.2364 4.82248 15.394C4.98323 15.5515 5.20124 15.64 5.42857 15.64H6.85714C6.93292 15.64 7.00559 15.6695 7.05917 15.722C7.11276 15.7745 7.14286 15.8457 7.14286 15.92V18.0648L9.64286 15.7184C9.69582 15.6684 9.76644 15.6403 9.84 15.64H16.8571C17.0845 15.64 17.3025 15.5515 17.4632 15.394C17.624 15.2364 17.7143 15.0228 17.7143 14.8V8.08C17.7143 7.85722 17.624 7.64356 17.4632 7.48603C17.3025 7.3285 17.0845 7.24 16.8571 7.24H5.42857ZM20 13.12V6.4C20 6.0287 19.8495 5.6726 19.5816 5.41005C19.3137 5.1475 18.9503 5 18.5714 5H7.14286C6.76398 5 6.40061 5.1475 6.1327 5.41005C5.8648 5.6726 5.71429 6.0287 5.71429 6.4H6.28571C6.28571 6.17722 6.37602 5.96356 6.53677 5.80603C6.69751 5.6485 6.91553 5.56 7.14286 5.56H18.5714C18.7988 5.56 19.0168 5.6485 19.1775 5.80603C19.3383 5.96356 19.4286 6.17722 19.4286 6.4V13.12C19.4286 13.3428 19.3383 13.5564 19.1775 13.714C19.0168 13.8715 18.7988 13.96 18.5714 13.96V14.52C18.759 14.52 18.9448 14.4838 19.1181 14.4134C19.2914 14.3431 19.4489 14.24 19.5816 14.1099C19.7142 13.9799 19.8195 13.8256 19.8913 13.6558C19.963 13.4859 20 13.3039 20 13.12ZM11.4286 11.9776C11.7508 11.9242 12.0507 11.7817 12.2931 11.5668C12.5354 11.352 12.71 11.0737 12.7963 10.7648C12.8826 10.4559 12.877 10.1293 12.7802 9.8234C12.6834 9.51752 12.4994 9.24513 12.2499 9.03833C12.0003 8.83153 11.6957 8.69893 11.3718 8.65615C11.048 8.61338 10.7184 8.66221 10.4219 8.7969C10.1254 8.93159 9.87437 9.14652 9.69839 9.41637C9.5224 9.68622 9.42879 9.99974 9.42857 10.32H10C10 10.0985 10.067 9.88194 10.1926 9.69776C10.3182 9.51358 10.4967 9.37003 10.7055 9.28525C10.9143 9.20048 11.1441 9.17831 11.3658 9.22152C11.5875 9.26474 11.7911 9.37141 11.951 9.52804C12.1108 9.68468 12.2197 9.88424 12.2638 10.1015C12.3079 10.3188 12.2852 10.544 12.1987 10.7486C12.1122 10.9533 11.9657 11.1282 11.7778 11.2512C11.5899 11.3743 11.3689 11.44 11.1429 11.44C11.0671 11.44 10.9944 11.4695 10.9408 11.522C10.8872 11.5745 10.8571 11.6457 10.8571 11.72V13.12H11.4286V11.9776ZM11.4286 13.68H10.8571V14.24H11.4286V13.68Z" fill="#868686"/>
</g>
</svg>
