<svg width="24" height="24" viewBox="0 0 24 24" fill="none" xmlns="http://www.w3.org/2000/svg">
    <g id="Faq">
    <path id="26 Faq, Answer Bubble, Customer Response" d="M6.21429 20C6.1712 19.9999 6.12857 19.9912 6.08893 19.9744C6.03083 19.9499 5.98126 19.9089 5.94639 19.8566C5.91153 19.8042 5.89291 19.7428 5.89286 19.68V16.8H4.60714C4.1809 16.8 3.77212 16.6314 3.47072 16.3314C3.16932 16.0313 3 15.6243 3 15.2V7.52C3 7.09565 3.16932 6.68869 3.47072 6.38863C3.77212 6.08857 4.1809 5.92 4.60714 5.92H17.4643C17.8905 5.92 18.2993 6.08857 18.6007 6.38863C18.9021 6.68869 19.0714 7.09565 19.0714 7.52V15.2C19.0714 15.6243 18.9021 16.0313 18.6007 16.3314C18.2993 16.6314 17.8905 16.8 17.4643 16.8H9.69857L6.43607 19.9104C6.37649 19.9676 6.29704 19.9997 6.21429 20ZM4.60714 6.56C4.3514 6.56 4.10613 6.66114 3.92529 6.84118C3.74445 7.02121 3.64286 7.26539 3.64286 7.52V15.2C3.64286 15.4546 3.74445 15.6988 3.92529 15.8788C4.10613 16.0589 4.3514 16.16 4.60714 16.16H6.21429C6.29953 16.16 6.38129 16.1937 6.44157 16.2537C6.50185 16.3137 6.53571 16.3951 6.53571 16.48V18.9312L9.34821 16.2496C9.4078 16.1924 9.48724 16.1603 9.57 16.16H17.4643C17.72 16.16 17.9653 16.0589 18.1461 15.8788C18.327 15.6988 18.4286 15.4546 18.4286 15.2V7.52C18.4286 7.26539 18.327 7.02121 18.1461 6.84118C17.9653 6.66114 17.72 6.56 17.4643 6.56H4.60714ZM21 13.28V5.6C21 5.17565 20.8307 4.76869 20.5293 4.46863C20.2279 4.16857 19.8191 4 19.3929 4H6.53571C6.10947 4 5.70069 4.16857 5.39929 4.46863C5.09789 4.76869 4.92857 5.17565 4.92857 5.6H5.57143C5.57143 5.34539 5.67302 5.10121 5.85386 4.92118C6.0347 4.74114 6.27997 4.64 6.53571 4.64H19.3929C19.6486 4.64 19.8939 4.74114 20.0747 4.92118C20.2555 5.10121 20.3571 5.34539 20.3571 5.6V13.28C20.3571 13.5346 20.2555 13.7788 20.0747 13.9588C19.8939 14.1389 19.6486 14.24 19.3929 14.24V14.88C19.6039 14.88 19.8129 14.8386 20.0079 14.7582C20.2029 14.6778 20.38 14.5599 20.5293 14.4114C20.6785 14.2628 20.7969 14.0864 20.8777 13.8923C20.9584 13.6982 21 13.4901 21 13.28ZM11.3571 11.9744C11.7196 11.9134 12.0571 11.7505 12.3297 11.5049C12.6023 11.2594 12.7987 10.9413 12.8958 10.5883C12.9929 10.2353 12.9866 9.86204 12.8777 9.51246C12.7688 9.16288 12.5618 8.85158 12.2811 8.61523C12.0004 8.37889 11.6576 8.22734 11.2933 8.17846C10.929 8.12957 10.5582 8.18538 10.2246 8.33931C9.89107 8.49324 9.60867 8.73888 9.41069 9.04728C9.2127 9.35568 9.10738 9.71399 9.10714 10.08H9.75C9.75 9.82684 9.82541 9.57937 9.96668 9.36887C10.108 9.15838 10.3088 8.99431 10.5437 8.89743C10.7786 8.80055 11.0371 8.77521 11.2865 8.82459C11.5359 8.87398 11.765 8.99589 11.9449 9.1749C12.1247 9.35391 12.2471 9.58199 12.2967 9.83028C12.3463 10.0786 12.3209 10.3359 12.2236 10.5698C12.1262 10.8037 11.9615 11.0036 11.75 11.1443C11.5386 11.2849 11.29 11.36 11.0357 11.36C10.9505 11.36 10.8687 11.3937 10.8084 11.4537C10.7481 11.5137 10.7143 11.5951 10.7143 11.68V13.28H11.3571V11.9744ZM11.3571 13.92H10.7143V14.56H11.3571V13.92Z" fill="url(#paint0_linear_7146_1781)"/>
    </g>
    <defs>
    <linearGradient id="paint0_linear_7146_1781" x1="12" y1="4.20513" x2="12" y2="19.3846" gradientUnits="userSpaceOnUse">
    <stop stop-color="#109b4f"/>
    <stop offset="1" stop-color="#109b4f"/>
    </linearGradient>
    </defs>
    </svg>