<svg width="24" height="24" viewBox="0 0 24 24" fill="none" xmlns="http://www.w3.org/2000/svg">
<g id="log out">
<g id="Group 1000001916">
<path id="Vector" d="M4.49988 12.0117C4.49988 7.8696 7.85776 4.51172 11.9999 4.51172C16.1418 4.51172 19.4996 7.86928 19.4999 12.0111C19.495 16.1516 16.1397 19.5069 11.9993 19.5117C7.85744 19.5114 4.49988 16.1536 4.49988 12.0117Z" fill="#109b4f" stroke="#109b4f"/>
<path id="Vector_2" d="M12.4485 9.07602C11.3799 8.79932 10.2894 9.44121 10.0127 10.5098C9.95744 10.7238 10.0862 10.942 10.3002 10.9973C10.5142 11.0525 10.7324 10.9238 10.7877 10.7098C10.889 10.3152 11.1838 9.99902 11.5702 9.87017C12.1989 9.66059 12.8783 10.0003 13.0878 10.6289C13.2974 11.2575 12.9577 11.937 12.3291 12.1465C11.8462 12.3259 11.5307 12.7924 11.5439 13.3074V13.8102C11.544 14.031 11.7231 14.2099 11.9439 14.2098C12.1647 14.2096 12.3441 14.0306 12.3439 13.8098V13.3074C12.3331 13.1355 12.4299 12.975 12.5869 12.9043C13.226 12.6885 13.7131 12.1648 13.8822 11.5118C14.1589 10.4433 13.517 9.35273 12.4485 9.07602ZM11.9438 14.9097C11.6676 14.9097 11.4438 15.1336 11.4438 15.4097C11.4438 15.6858 11.6676 15.9097 11.9438 15.9097C12.2199 15.9097 12.4438 15.6858 12.4438 15.4097C12.4438 15.1336 12.2199 14.9097 11.9438 14.9097Z" fill="#182452"/>
</g>
</g>
</svg>
