<svg width="24" height="24" viewBox="0 0 24 24" fill="none" xmlns="http://www.w3.org/2000/svg">
<g id="log out">
<g id="Group 1000001916">
<path id="Vector" d="M4.5 12.0117C4.5 7.8696 7.85788 4.51172 12 4.51172C16.1419 4.51172 19.4997 7.86928 19.5 12.0111C19.4951 16.1516 16.1398 19.5069 11.9994 19.5117C7.85756 19.5114 4.5 16.1536 4.5 12.0117Z" stroke="#868686"/>
<path id="Vector_2" d="M12.4486 9.07602C11.38 8.79932 10.2895 9.44121 10.0128 10.5098C9.95757 10.7238 10.0863 10.942 10.3003 10.9973C10.5143 11.0525 10.7326 10.9238 10.7878 10.7098C10.8892 10.3152 11.1839 9.99902 11.5704 9.87017C12.199 9.66059 12.8784 10.0003 13.0879 10.6289C13.2975 11.2575 12.9578 11.937 12.3292 12.1465C11.8463 12.3259 11.5308 12.7924 11.544 13.3074V13.8102C11.5441 14.031 11.7232 14.2099 11.944 14.2098C12.1648 14.2096 12.3442 14.0306 12.344 13.8098V13.3074C12.3332 13.1355 12.43 12.975 12.587 12.9043C13.2261 12.6885 13.7132 12.1648 13.8823 11.5118C14.159 10.4433 13.5171 9.35273 12.4486 9.07602ZM11.9439 14.9097C11.6677 14.9097 11.4439 15.1336 11.4439 15.4097C11.4439 15.6858 11.6677 15.9097 11.9439 15.9097C12.22 15.9097 12.4439 15.6858 12.4439 15.4097C12.4439 15.1336 12.22 14.9097 11.9439 14.9097Z" fill="#868686"/>
</g>
</g>
</svg>
