<svg width="16" height="16" viewBox="0 0 16 16" fill="none" xmlns="http://www.w3.org/2000/svg">
<g id="Hide">
<path id="Vector" fill-rule="evenodd" clip-rule="evenodd" d="M8.00006 4.66675C5.56806 4.66675 3.49431 6.1045 2.64056 8.1295C2.62355 8.16983 2.59877 8.20642 2.56762 8.23717C2.53648 8.26793 2.49958 8.29225 2.45903 8.30874C2.41849 8.32523 2.37509 8.33358 2.33132 8.3333C2.28755 8.33303 2.24427 8.32413 2.20393 8.30713C2.1636 8.29012 2.12701 8.26534 2.09626 8.23419C2.0655 8.20304 2.04119 8.16614 2.02469 8.1256C2.0082 8.08506 1.99985 8.04166 2.00013 7.99789C2.00041 7.95412 2.0093 7.91083 2.02631 7.8705C2.98556 5.5955 5.30306 4 8.00006 4C10.6971 4 13.0146 5.5955 13.9738 7.8705C14.0082 7.95195 14.0087 8.04372 13.9754 8.1256C13.9421 8.20748 13.8776 8.27278 13.7962 8.30713C13.7147 8.34147 13.623 8.34205 13.5411 8.30874C13.4592 8.27543 13.3939 8.21096 13.3596 8.1295C12.5058 6.1045 10.4321 4.66675 8.00006 4.66675Z" fill="url(#paint0_linear_7146_4366)"/>
<path id="Vector_2" fill-rule="evenodd" clip-rule="evenodd" d="M7.99994 11.3306C5.56794 11.3306 3.49419 9.89287 2.64044 7.86787C2.62343 7.82754 2.59865 7.79095 2.5675 7.7602C2.53635 7.72945 2.49945 7.70513 2.45891 7.68863C2.41837 7.67214 2.37497 7.66379 2.3312 7.66407C2.28743 7.66435 2.24414 7.67324 2.20381 7.69025C2.16348 7.70725 2.12689 7.73204 2.09614 7.76318C2.06538 7.79433 2.04106 7.83123 2.02457 7.87177C2.00808 7.91232 1.99973 7.95571 2.00001 7.99948C2.00028 8.04325 2.00918 8.08654 2.02619 8.12687C2.98544 10.4019 5.30294 11.9974 7.99994 11.9974C10.6969 11.9974 13.0144 10.4019 13.9737 8.12687C14.008 8.04542 14.0086 7.95366 13.9753 7.87177C13.942 7.78989 13.8775 7.72459 13.7961 7.69025C13.7146 7.6559 13.6228 7.65532 13.541 7.68863C13.4591 7.72194 13.3938 7.78642 13.3594 7.86787C12.5057 9.89287 10.4319 11.3306 7.99994 11.3306Z" fill="url(#paint1_linear_7146_4366)"/>
<path id="Vector_3" fill-rule="evenodd" clip-rule="evenodd" d="M8 6.33081C7.77942 6.32811 7.56049 6.36922 7.35592 6.45177C7.15135 6.53431 6.96519 6.65664 6.80825 6.81167C6.65132 6.9667 6.52671 7.15134 6.44167 7.35489C6.35663 7.55843 6.31284 7.77684 6.31284 7.99744C6.31284 8.21804 6.35663 8.43644 6.44167 8.63999C6.52671 8.84353 6.65132 9.02817 6.80825 9.1832C6.96519 9.33823 7.15135 9.46056 7.35592 9.54311C7.56049 9.62565 7.77942 9.66676 8 9.66406C8.43848 9.65869 8.85718 9.48074 9.16535 9.16877C9.47352 8.8568 9.64634 8.43595 9.64634 7.99744C9.64634 7.55892 9.47352 7.13808 9.16535 6.82611C8.85718 6.51414 8.43848 6.33618 8 6.33081ZM5.66675 7.99731C5.66675 7.69091 5.7271 7.3875 5.84436 7.10442C5.96161 6.82133 6.13348 6.56412 6.35014 6.34746C6.5668 6.13079 6.82402 5.95893 7.1071 5.84167C7.39018 5.72441 7.69359 5.66406 8 5.66406C8.3064 5.66406 8.60981 5.72441 8.89289 5.84167C9.17598 5.95893 9.43319 6.13079 9.64985 6.34746C9.86652 6.56412 10.0384 6.82133 10.1556 7.10442C10.2729 7.3875 10.3332 7.69091 10.3332 7.99731C10.3332 8.61613 10.0874 9.2096 9.64985 9.64717C9.21229 10.0847 8.61881 10.3306 8 10.3306C7.38118 10.3306 6.78771 10.0847 6.35014 9.64717C5.91257 9.2096 5.66675 8.61613 5.66675 7.99731Z" fill="url(#paint2_linear_7146_4366)"/>
<path id="Vector_4" fill-rule="evenodd" clip-rule="evenodd" d="M13.9024 2.09769C14.0324 2.22794 14.0324 2.43894 13.9024 2.56919L2.56869 13.9027C2.53773 13.9336 2.50098 13.9582 2.46054 13.9749C2.4201 13.9917 2.37675 14.0003 2.33298 14.0002C2.28921 14.0002 2.24587 13.9916 2.20543 13.9748C2.165 13.9581 2.12826 13.9335 2.09732 13.9026C2.06638 13.8716 2.04183 13.8349 2.02509 13.7944C2.00835 13.754 1.99974 13.7106 1.99976 13.6668C1.99977 13.6231 2.0084 13.5797 2.02516 13.5393C2.04192 13.4989 2.06648 13.4621 2.09744 13.4312L13.4309 2.09769C13.5609 1.96744 13.7722 1.96744 13.9024 2.09769Z" fill="url(#paint3_linear_7146_4366)"/>
</g>
<defs>
<linearGradient id="paint0_linear_7146_4366" x1="8.00006" y1="4.05556" x2="8.00006" y2="8.16664" gradientUnits="userSpaceOnUse">
<stop stop-color="#109b4f"/>
<stop offset="1" stop-color="#109b4f"/>
</linearGradient>
<linearGradient id="paint1_linear_7146_4366" x1="7.99994" y1="7.71962" x2="7.99994" y2="11.8307" gradientUnits="userSpaceOnUse">
<stop stop-color="#109b4f"/>
<stop offset="1" stop-color="#109b4f"/>
</linearGradient>
<linearGradient id="paint2_linear_7146_4366" x1="8" y1="5.72389" x2="8" y2="10.1511" gradientUnits="userSpaceOnUse">
<stop stop-color="#109b4f"/>
<stop offset="1" stop-color="#109b4f"/>
</linearGradient>
<linearGradient id="paint3_linear_7146_4366" x1="7.99985" y1="2.15385" x2="7.99985" y2="13.5387" gradientUnits="userSpaceOnUse">
<stop stop-color="#109b4f"/>
<stop offset="1" stop-color="#109b4f"/>
</linearGradient>
</defs>
</svg>
