<svg width="24" height="24" viewBox="0 0 24 24" fill="none" xmlns="http://www.w3.org/2000/svg">
<g clip-path="url(#clip0_689_13850)">
<path d="M10.0413 13.736H9.54132V14.236V19.0393C9.54132 19.283 9.33355 19.5 9.06307 19.5H6.12831C5.85783 19.5 5.65006 19.283 5.65006 19.0393V12.3146V11.8146H5.15006H3.53926L11.6724 4.62058C11.6726 4.62043 11.6728 4.62028 11.6729 4.62012C11.8558 4.45996 12.1399 4.45996 12.3227 4.62012C12.3229 4.62028 12.3231 4.62043 12.3232 4.62058L20.4564 11.8146H18.8456H18.3456V12.3146V19.0393C18.3456 19.283 18.1378 19.5 17.8673 19.5H14.9326C14.6621 19.5 14.4543 19.283 14.4543 19.0393V14.236V13.736H13.9543H10.0413Z" stroke="#868686"/>
</g>
<defs>
<clipPath id="clip0_689_13850">
<rect width="24" height="24" fill="white"/>
</clipPath>
</defs>
</svg>
