<svg width="24" height="24" viewBox="0 0 24 24" fill="none" xmlns="http://www.w3.org/2000/svg">
<g id="job">
<path id="Vector" fill-rule="evenodd" clip-rule="evenodd" d="M6.62088 6.43278C7.18049 6.35707 7.86576 6.3438 8.68995 6.34224C8.73892 5.70495 9.02668 5.10963 9.49568 4.67536C9.96468 4.24109 10.5803 3.99989 11.2195 4H12.7805C13.4194 4.00007 14.0348 4.24125 14.5036 4.67534C14.9724 5.10942 15.2601 5.70444 15.3093 6.34146C16.1342 6.3438 16.8195 6.35707 17.3791 6.43278C18.0816 6.52644 18.6732 6.72937 19.143 7.19844C19.6129 7.66829 19.8142 8.2599 19.9095 8.96234C20 9.63902 20 10.4999 20 11.5668V14.7746C20 15.8416 20 16.7024 19.9095 17.3791C19.8142 18.0816 19.6129 18.6732 19.143 19.143C18.6732 19.6129 18.0816 19.8142 17.3791 19.9095C16.7024 20 15.8416 20 14.7746 20H9.22537C8.15844 20 7.29756 20 6.62088 19.9095C5.91844 19.8142 5.32683 19.6129 4.85698 19.143C4.38712 18.6732 4.18576 18.0816 4.09132 17.3791C4 16.7024 4 15.8416 4 14.7746V11.5668C4 10.4999 4 9.63902 4.09132 8.96234C4.18498 8.2599 4.3879 7.66829 4.85698 7.19844C5.32683 6.72859 5.91844 6.52722 6.62088 6.43278ZM14.1323 6.34146H9.86771C9.91463 6.0164 10.0771 5.71912 10.3254 5.50411C10.5736 5.2891 10.8911 5.17074 11.2195 5.17073H12.7805C13.1089 5.17074 13.4264 5.2891 13.6746 5.50411C13.9229 5.71912 14.0854 6.0164 14.1323 6.34146ZM6.77698 18.7489C6.2041 18.6716 5.90127 18.5303 5.68507 18.3149C5.46888 18.0987 5.32839 17.7959 5.25112 17.2222C5.17229 16.633 5.17073 15.8517 5.17073 14.7317V12.1015C8.04917 13.3097 9.73034 13.97 11.5005 14.0527C11.833 14.0683 12.167 14.0683 12.4995 14.0527C14.2697 13.97 15.9508 13.3097 18.8293 12.1015V14.7317C18.8293 15.8517 18.8277 16.633 18.7489 17.223C18.6716 17.7959 18.5303 18.0987 18.3149 18.3149C18.0987 18.5311 17.7959 18.6716 17.2222 18.7489C16.633 18.8277 15.8517 18.8293 14.7317 18.8293H9.26829C8.14829 18.8293 7.36624 18.8277 6.77698 18.7489ZM18.8277 10.8316C15.6082 12.1858 14.0597 12.8078 12.4449 12.8827C12.1483 12.8968 11.8517 12.8968 11.5551 12.8827C9.93951 12.8078 8.3918 12.1858 5.17229 10.8316C5.1762 10.1112 5.1918 9.56098 5.25112 9.11844C5.32839 8.54556 5.46966 8.24273 5.68507 8.02654C5.90127 7.81034 6.2041 7.66985 6.77776 7.59259C7.36624 7.51376 8.14829 7.5122 9.26829 7.5122H14.7317C15.8517 7.5122 16.633 7.51376 17.223 7.59259C17.7959 7.66985 18.0987 7.81112 18.3149 8.02654C18.5311 8.24273 18.6716 8.54556 18.7489 9.11922C18.8082 9.56098 18.8238 10.1104 18.8277 10.8316Z" fill="url(#paint0_linear_7146_218)"/>
</g>
<defs>
<linearGradient id="paint0_linear_7146_218" x1="12" y1="4.20513" x2="12" y2="19.3846" gradientUnits="userSpaceOnUse">
<stop stop-color="#109b4f"/>
<stop offset="1" stop-color="#109b4f"/>
</linearGradient>
</defs>
</svg>
