<svg width="20" height="20" viewBox="0 0 20 20" fill="none" xmlns="http://www.w3.org/2000/svg">
<g id="Id">
<g id="Group 1656">
<g id="Group">
<path id="Vector" d="M5.52249 13.8486H13.3668M5.52249 15.5251H13.3668" stroke="#FF7312" stroke-miterlimit="10" strokeLinecap="round" stroke-linejoin="round"/>
</g>
<path id="Vector_2" d="M11.081 5.26416H14.0812C14.1875 5.26435 14.2926 5.28407 14.3907 5.3222C14.4888 5.36032 14.5778 5.4161 14.6528 5.48636C14.7278 5.55661 14.7872 5.63996 14.8277 5.73165C14.8681 5.82334 14.8888 5.92157 14.8886 6.02073V16.2434C14.8888 16.3426 14.8681 16.4408 14.8277 16.5325C14.7872 16.6242 14.7278 16.7075 14.6528 16.7778C14.5778 16.8481 14.4888 16.9038 14.3907 16.942C14.2926 16.9801 14.1875 16.9998 14.0812 17H4.8074C4.70117 16.9998 4.59601 16.9801 4.49794 16.942C4.39987 16.9038 4.31081 16.8481 4.23584 16.7778C4.16086 16.7075 4.10145 16.6242 4.06098 16.5325C4.02052 16.4408 3.9998 16.3426 4 16.2434V6.02073C3.9998 5.92157 4.02052 5.82334 4.06098 5.73165C4.10145 5.63996 4.16086 5.55661 4.23584 5.48636C4.31081 5.4161 4.39987 5.36032 4.49794 5.3222C4.59601 5.28407 4.70117 5.26435 4.8074 5.26416H7.80765" stroke="#FF7312" stroke-miterlimit="10" strokeLinecap="round" stroke-linejoin="round"/>
<g id="Group_2">
<path id="Vector_3" d="M11.6667 12.1707H7.2226C7.2226 11.025 8.21716 10.0967 9.44451 10.0967C10.6719 10.0967 11.6667 11.025 11.6667 12.1707Z" stroke="#FF7312" stroke-miterlimit="10" strokeLinecap="round" stroke-linejoin="round"/>
<path id="Vector_4" d="M10.4214 8.99108C10.4214 9.24336 10.3114 9.51986 10.1352 9.73277L10.1293 9.7386C10.0523 9.8329 9.95816 9.91384 9.85118 9.97776C9.72714 10.0521 9.58872 10.0971 9.44498 10.0971C8.90661 10.0971 8.46823 9.49361 8.46823 8.99108C8.46856 8.74937 8.57158 8.51764 8.75468 8.34673C8.93779 8.17581 9.18604 8.07965 9.44498 8.07935C9.70388 8.07973 9.95205 8.17592 10.1351 8.34683C10.3181 8.51774 10.4211 8.74942 10.4214 8.99108Z" stroke="#FF7312" stroke-miterlimit="10" strokeLinecap="round" stroke-linejoin="round"/>
</g>
<path id="Vector_5" d="M7.80747 6.70584V4.52626C7.80768 4.32559 7.85023 4.12692 7.93271 3.9416C8.01519 3.75629 8.13598 3.58796 8.28817 3.44622C8.44036 3.30449 8.62097 3.19213 8.81969 3.11557C9.01841 3.039 9.23135 2.99973 9.44633 3C9.87988 3.00019 10.2956 3.16088 10.6024 3.44683C10.9089 3.73315 11.0811 4.12124 11.0814 4.52597V6.70584H7.80747Z" stroke="#FF7312" stroke-miterlimit="10" strokeLinecap="round" stroke-linejoin="round"/>
</g>
</g>
</svg>
