<svg width="7" height="12" viewBox="0 0 7 12" fill="none" xmlns="http://www.w3.org/2000/svg">
<g id="Arrow" clip-path="url(#clip0_7146_3421)">
<path id="Vector" fill-rule="evenodd" clip-rule="evenodd" d="M0.221645 11.8246C0.467099 12.0586 0.864069 12.0586 1.10892 11.8246L6.29861 6.86622C6.41478 6.75692 6.50729 6.62537 6.57049 6.47958C6.6337 6.33378 6.6663 6.17678 6.6663 6.01812C6.6663 5.85946 6.6337 5.70246 6.57049 5.55666C6.50729 5.41086 6.41478 5.27932 6.29861 5.17002L1.07134 0.175017C0.952707 0.0633855 0.795603 0.000641209 0.631934 -0.00047318C0.468265 -0.00158757 0.310304 0.0590115 0.19013 0.169017C0.130597 0.223341 0.0829637 0.289186 0.0501785 0.362475C0.0173932 0.435763 0.000154307 0.514934 -0.000470657 0.595086C-0.00109562 0.675238 0.0149066 0.754663 0.0465452 0.828444C0.0781837 0.902225 0.124785 0.96879 0.183463 1.02402L4.96771 5.59422C5.02584 5.64887 5.07213 5.71466 5.10376 5.78759C5.13539 5.86052 5.15171 5.93905 5.15171 6.01842C5.15171 6.09778 5.13539 6.17632 5.10376 6.24925C5.07213 6.32217 5.02584 6.38797 4.96771 6.44262L0.221645 10.9768C0.16353 11.0314 0.11725 11.0972 0.0856241 11.17C0.0539984 11.2429 0.0376889 11.3214 0.0376889 11.4007C0.0376889 11.48 0.0539984 11.5585 0.0856241 11.6314C0.11725 11.7043 0.16353 11.77 0.221645 11.8246Z" fill="#868686"/>
</g>
<defs>
<clipPath id="clip0_7146_3421">
<rect width="6.66667" height="12" fill="white"/>
</clipPath>
</defs>
</svg>
