<svg width="11" height="14" viewBox="0 0 11 14" fill="none" xmlns="http://www.w3.org/2000/svg">
<g id="&#240;&#159;&#166;&#134; icon &#34;location pin&#34;">
<path id="Vector" d="M5.49847 3.2915C5.09817 3.2915 4.70685 3.40381 4.37401 3.61423C4.04116 3.82464 3.78175 4.12372 3.62855 4.47363C3.47536 4.82353 3.43528 5.20856 3.51338 5.58002C3.59147 5.95149 3.78424 6.29269 4.0673 6.5605C4.35036 6.82831 4.711 7.01069 5.10361 7.08458C5.49623 7.15847 5.90319 7.12055 6.27302 6.97561C6.64286 6.83067 6.95896 6.58523 7.18136 6.27032C7.40376 5.95541 7.52246 5.58518 7.52246 5.20644C7.52185 4.69874 7.30841 4.21201 6.92897 3.85301C6.54954 3.49402 6.03508 3.29208 5.49847 3.2915ZM5.49847 6.16391C5.29832 6.16391 5.10266 6.10775 4.93624 6.00254C4.76982 5.89734 4.64011 5.7478 4.56351 5.57285C4.48692 5.39789 4.46688 5.20538 4.50593 5.01965C4.54497 4.83392 4.64136 4.66331 4.78289 4.52941C4.92442 4.3955 5.10474 4.30431 5.30104 4.26737C5.49735 4.23042 5.70083 4.24939 5.88575 4.32185C6.07066 4.39432 6.22872 4.51704 6.33992 4.6745C6.45112 4.83195 6.51047 5.01707 6.51047 5.20644C6.51016 5.46028 6.40344 5.70365 6.21372 5.88315C6.024 6.06264 5.76678 6.16361 5.49847 6.16391Z" fill="url(#paint0_linear_7146_3312)"/>
<path id="Vector_2" d="M9.38903 1.52372C8.4274 0.614143 7.14375 0.0738142 5.78582 0.00702289C4.42788 -0.0597684 3.09193 0.351712 2.0358 1.16205C0.979671 1.97238 0.278235 3.12413 0.0668704 4.395C-0.144494 5.66587 0.149196 6.96576 0.891259 8.04381L4.71492 13.5975C4.80001 13.7211 4.91635 13.8226 5.0534 13.8929C5.19045 13.9632 5.34388 14 5.49977 14C5.65565 14 5.80908 13.9632 5.94613 13.8929C6.08318 13.8226 6.19952 13.7211 6.28461 13.5975L10.1084 8.04381C10.7969 7.04377 11.1012 5.85019 10.9703 4.66312C10.8393 3.47606 10.281 2.36767 9.38903 1.52372ZM9.26047 7.52118L5.49978 12.9832L1.73906 7.52118C0.587914 5.84923 0.834809 3.61175 2.32611 2.20074C2.74288 1.80642 3.23766 1.49362 3.7822 1.28022C4.32674 1.06681 4.91037 0.956969 5.49978 0.956969C6.08919 0.956969 6.67283 1.06681 7.21737 1.28022C7.76191 1.49362 8.25669 1.80642 8.67345 2.20074C10.1648 3.61175 10.4116 5.84923 9.26047 7.52118Z" fill="url(#paint1_linear_7146_3312)"/>
</g>
<defs>
<linearGradient id="paint0_linear_7146_3312" x1="5.49847" y1="3.3406" x2="5.49847" y2="6.97407" gradientUnits="userSpaceOnUse">
<stop stop-color="#FF7312"/>
<stop offset="1" stop-color="#182452"/>
</linearGradient>
<linearGradient id="paint1_linear_7146_3312" x1="5.5" y1="0.179487" x2="5.5" y2="13.4615" gradientUnits="userSpaceOnUse">
<stop stop-color="#FF7312"/>
<stop offset="1" stop-color="#182452"/>
</linearGradient>
</defs>
</svg>
