<svg width="10" height="15" viewBox="0 0 10 15" fill="none" xmlns="http://www.w3.org/2000/svg">
<g id="&#240;&#159;&#166;&#134; icon &#34;location pin&#34;">
<path id="Vector" d="M4.99819 3.62476C4.63428 3.62476 4.27853 3.73706 3.97595 3.94748C3.67336 4.1579 3.43753 4.45697 3.29826 4.80688C3.159 5.15679 3.12256 5.54181 3.19356 5.91328C3.26456 6.28474 3.4398 6.62595 3.69712 6.89375C3.95445 7.16156 4.2823 7.34394 4.63923 7.41783C4.99615 7.49172 5.36611 7.4538 5.70232 7.30886C6.03854 7.16392 6.3259 6.91848 6.52808 6.60357C6.73027 6.28866 6.83818 5.91843 6.83818 5.53969C6.83762 5.032 6.64359 4.54526 6.29865 4.18627C5.9537 3.82727 5.48602 3.62533 4.99819 3.62476ZM4.99819 6.49716C4.81623 6.49716 4.63836 6.441 4.48707 6.3358C4.33578 6.23059 4.21786 6.08105 4.14823 5.9061C4.0786 5.73114 4.06038 5.53863 4.09587 5.3529C4.13137 5.16717 4.21899 4.99656 4.34766 4.86266C4.47632 4.72875 4.64025 4.63756 4.81871 4.60062C4.99717 4.56368 5.18215 4.58264 5.35026 4.65511C5.51836 4.72757 5.66205 4.8503 5.76314 5.00775C5.86423 5.16521 5.91818 5.35032 5.91818 5.53969C5.9179 5.79354 5.82088 6.0369 5.64841 6.2164C5.47594 6.3959 5.2421 6.49687 4.99819 6.49716Z" fill="#109b4f"/>
<path id="Vector_2" d="M8.53548 1.85698C7.66128 0.947395 6.49432 0.407066 5.25983 0.340275C4.02535 0.273484 2.81084 0.684964 1.85073 1.4953C0.89061 2.30564 0.252941 3.45738 0.0607913 4.72825C-0.131358 5.99912 0.135633 7.29902 0.810236 8.37706L4.28629 13.9308C4.36364 14.0543 4.46941 14.1559 4.594 14.2262C4.71859 14.2964 4.85807 14.3333 4.99979 14.3333C5.1415 14.3333 5.28098 14.2964 5.40557 14.2262C5.53016 14.1559 5.63593 14.0543 5.71328 13.9308L9.18945 8.37706C9.81541 7.37702 10.092 6.18344 9.97297 4.99638C9.85391 3.80931 9.34639 2.70092 8.53548 1.85698ZM8.41861 7.85443L4.9998 13.3165L1.58096 7.85443C0.534467 6.18249 0.758917 3.945 2.11464 2.534C2.49352 2.13967 2.94332 1.82687 3.43836 1.61347C3.9334 1.40006 4.46398 1.29022 4.9998 1.29022C5.53563 1.29022 6.06621 1.40006 6.56124 1.61347C7.05628 1.82687 7.50608 2.13967 7.88496 2.534C9.24068 3.945 9.4651 6.18249 8.41861 7.85443Z" fill="#109b4f"/>
</g>
</svg>
