<svg width="24" height="24" viewBox="0 0 24 24" fill="none" xmlns="http://www.w3.org/2000/svg">
<path d="M20.7675 11.424L17.8968 8.35998C17.6044 8.04798 17.1322 8.04798 16.8399 8.35998C16.5476 8.67198 16.5476 9.17598 16.8399 9.48798L18.4289 11.184H11.6607C11.2484 11.184 10.9111 11.544 10.9111 11.984C10.9111 12.424 11.2484 12.784 11.6607 12.784H18.4139L16.8474 14.432C16.5551 14.744 16.5476 15.248 16.8474 15.56C16.9973 15.72 17.1847 15.8 17.3796 15.8C17.5745 15.8 17.7618 15.72 17.9043 15.568L20.775 12.552C20.9174 12.4 20.9998 12.2 20.9998 11.984C20.9998 11.768 20.9249 11.568 20.7825 11.416L20.7675 11.424Z" fill="#CCD4F2"/>
<path d="M14.7339 16.52C13.6021 17.728 12.0956 18.392 10.4916 18.392C8.88757 18.392 7.38101 17.728 6.24922 16.52C3.91068 14.024 3.91068 9.968 6.24922 7.472C7.38101 6.264 8.88757 5.6 10.4916 5.6C12.0956 5.6 13.6021 6.264 14.7339 7.472C15.0262 7.784 15.4984 7.784 15.7907 7.472C16.0831 7.16 16.0831 6.656 15.7907 6.344C14.3741 4.832 12.4928 4 10.4916 4C8.49031 4 6.60899 4.832 5.19238 6.344C2.26921 9.464 2.26921 14.536 5.19238 17.656C6.60899 19.168 8.49031 20 10.4916 20C12.4928 20 14.3741 19.168 15.7907 17.656C16.0831 17.344 16.0831 16.84 15.7907 16.528C15.4984 16.216 15.0262 16.216 14.7339 16.528V16.52Z" fill="#CCD4F2"/>
</svg>
