<svg width="40" height="40" viewBox="0 0 40 40" fill="none" xmlns="http://www.w3.org/2000/svg">
<circle cx="20" cy="20" r="20" fill="#FBF1F1"/>
<path fill-rule="evenodd" clip-rule="evenodd" d="M11.4714 19.5295H22.7656V20.4707H11.4714V19.5295Z" fill="#C11919"/>
<path fill-rule="evenodd" clip-rule="evenodd" d="M14.4324 23.6273L11.1383 20.3332C11.0944 20.2895 11.0597 20.2375 11.0359 20.1804C11.0122 20.1232 11 20.0619 11 20C11 19.9381 11.0122 19.8768 11.0359 19.8196C11.0597 19.7625 11.0944 19.7105 11.1383 19.6668L14.4324 16.3727L15.0987 17.0381L12.1368 20L15.0987 22.9609L14.4324 23.6273ZM16.6479 27.5294C16.6479 27.6542 16.6975 27.7739 16.7857 27.8622C16.874 27.9504 16.9937 28 17.1185 28L28.4126 28C28.5374 28 28.6571 27.9504 28.7454 27.8622C28.8336 27.7739 28.8832 27.6542 28.8832 27.5294L28.8832 12.4706C28.8832 12.3458 28.8336 12.2261 28.7454 12.1378C28.6571 12.0496 28.5374 12 28.4126 12L17.1185 12C16.9937 12 16.874 12.0496 16.7857 12.1378C16.6975 12.2261 16.6479 12.3458 16.6479 12.4706V15.2941H17.5891V12.9412L27.942 12.9412L27.942 27.0588L17.5891 27.0588V24.7059H16.6479V27.5294Z" fill="#C11919"/>
</svg>
