<svg xmlns="http://www.w3.org/2000/svg" width="20" height="20" viewBox="0 0 20 20" fill="none">
  <path d="M17.9132 9.64908L15.3421 6.90489C15.0803 6.62545 14.6574 6.62545 14.3955 6.90489C14.1337 7.18432 14.1337 7.63572 14.3955 7.91515L15.8187 9.43413H9.75687C9.38766 9.43413 9.08557 9.75656 9.08557 10.1506C9.08557 10.5447 9.38766 10.8671 9.75687 10.8671H15.8053L14.4023 12.3431C14.1405 12.6226 14.1337 13.074 14.4023 13.3534C14.5365 13.4967 14.7043 13.5683 14.8789 13.5683C15.0534 13.5683 15.2212 13.4967 15.3488 13.3606L17.9199 10.6594C18.0474 10.5232 18.1213 10.3441 18.1213 10.1506C18.1213 9.95718 18.0541 9.77805 17.9266 9.64192L17.9132 9.64908Z" fill="url(#paint0_linear_9458_853)"/>
  <path d="M12.5092 14.2132C11.4955 15.2951 10.1462 15.8898 8.70963 15.8898C7.27305 15.8898 5.92374 15.2951 4.91008 14.2132C2.81563 11.9777 2.81563 8.34509 4.91008 6.10961C5.92374 5.0277 7.27305 4.433 8.70963 4.433C10.1462 4.433 11.4955 5.0277 12.5092 6.10961C12.771 6.38905 13.1939 6.38905 13.4557 6.10961C13.7175 5.83018 13.7175 5.37878 13.4557 5.09934C12.187 3.74516 10.502 3 8.70963 3C6.91726 3 5.2323 3.74516 3.96355 5.09934C1.34548 7.89369 1.34548 12.4363 3.96355 15.2307C5.2323 16.5848 6.91726 17.33 8.70963 17.33C10.502 17.33 12.187 16.5848 13.4557 15.2307C13.7175 14.9512 13.7175 14.4998 13.4557 14.2204C13.1939 13.941 12.771 13.941 12.5092 14.2204V14.2132Z" fill="url(#paint1_linear_9458_853)"/>
  <defs>
    <linearGradient id="paint0_linear_9458_853" x1="13.6034" y1="6.78343" x2="13.6034" y2="13.304" gradientUnits="userSpaceOnUse">
      <stop stop-color="#FF7312"/>
      <stop offset="1" stop-color="#182452"/>
    </linearGradient>
    <linearGradient id="paint1_linear_9458_853" x1="7.82604" y1="3.18372" x2="7.82603" y2="16.7788" gradientUnits="userSpaceOnUse">
      <stop stop-color="#FF7312"/>
      <stop offset="1" stop-color="#182452"/>
    </linearGradient>
  </defs>
</svg>