<svg width="173" height="176" viewBox="0 0 173 176" fill="none" xmlns="http://www.w3.org/2000/svg">
<path d="M54.7895 3.53664L56.6753 4.1536L54.7895 4.77011C54.0207 5.02145 53.4182 5.62921 53.169 6.40467L52.5573 8.30676L51.9457 6.40467C51.6965 5.62921 51.094 5.02145 50.3252 4.77011L48.4395 4.1536L50.3252 3.53664C51.094 3.28531 51.6965 2.67755 51.9457 1.90209L52.5573 0L53.169 1.90209C53.4182 2.67755 54.0207 3.28531 54.7895 3.53664Z" fill="white"/>
<path d="M170.426 126.847L172.312 127.464L170.426 128.081C169.657 128.332 169.054 128.94 168.805 129.716L168.194 131.618L167.582 129.716C167.333 128.94 166.731 128.332 165.962 128.081L164.076 127.464L165.962 126.847C166.731 126.596 167.333 125.988 167.582 125.213L168.194 123.311L168.805 125.213C169.054 125.988 169.657 126.595 170.426 126.847Z" fill="white"/>
<path d="M6.84962 110.51L8.73536 111.127L6.84962 111.744C6.08082 111.996 5.47829 112.603 5.22912 113.379L4.61746 115.281L4.00625 113.379C3.75707 112.603 3.15454 111.996 2.38574 111.744L0.5 111.127L2.38574 110.51C3.15454 110.259 3.75707 109.651 4.00625 108.876L4.61746 106.974L5.22912 108.876C5.47829 109.651 6.08082 110.259 6.84962 110.51Z" fill="white"/>
<path d="M91.5515 52.6532L92.6463 53.0114L91.5515 53.3696C91.1053 53.5154 90.7554 53.8683 90.6104 54.3184L90.2553 55.4227L89.9002 54.3184C89.7556 53.8683 89.4053 53.5154 88.9591 53.3696L87.8643 53.0114L88.9591 52.6532C89.4053 52.5074 89.7552 52.1545 89.9002 51.7039L90.2553 50.5996L90.6104 51.7039C90.7554 52.1545 91.1053 52.5074 91.5515 52.6532Z" fill="white"/>
<path d="M24.697 28.8866L25.7918 29.2448L24.697 29.6029C24.2508 29.7488 23.9009 30.1017 23.7559 30.5518L23.4008 31.6561L23.0457 30.5518C22.9011 30.1017 22.5513 29.7488 22.1046 29.6029L21.0098 29.2448L22.1046 28.8866C22.5508 28.7408 22.9007 28.3879 23.0457 27.9373L23.4008 26.833L23.7559 27.9373C23.9009 28.3874 24.2508 28.7404 24.697 28.8866Z" fill="white"/>
<path d="M10.9265 100.896L12.0213 101.255L10.9265 101.613C10.4803 101.759 10.1304 102.111 9.98539 102.562L9.6303 103.666L9.2752 102.562C9.13064 102.112 8.78076 101.759 8.33406 101.613L7.23926 101.255L8.33406 100.896C8.78032 100.751 9.13021 100.398 9.2752 99.9471L9.6303 98.8428L9.98539 99.9471C10.1304 100.397 10.4803 100.75 10.9265 100.896Z" fill="white"/>
<path d="M152.53 128.716C152.53 128.716 148.697 129.139 147.2 129.985C145.702 130.831 144.983 133.67 147.619 133.67C150.254 133.67 154.447 133.67 156.244 133.67C158.041 133.67 157.322 129.622 156.364 128.535L152.53 128.716Z" fill="#363C52"/>
<path d="M150.773 122.602C150.773 122.602 151.749 127.883 152.02 128.749C152.435 130.076 156.123 130.007 156.452 128.54C156.936 126.375 156.936 121.974 156.936 121.974L150.773 122.602Z" fill="#FDE2D0"/>
<path d="M150.098 130.094C150.014 129.941 149.906 129.797 149.779 129.678C149.646 129.554 149.498 129.444 149.346 129.346C149.187 129.242 149.001 129.115 148.804 129.128C148.675 129.137 148.539 129.264 148.593 129.407C148.616 129.467 148.638 129.523 148.681 129.573C148.706 129.603 148.735 129.631 148.763 129.658C148.789 129.684 148.819 129.705 148.848 129.728C148.853 129.732 148.863 129.739 148.871 129.744C148.867 129.741 148.864 129.74 148.855 129.733C148.887 129.755 148.917 129.783 148.948 129.808C149.067 129.908 149.182 130.014 149.283 130.131C149.305 130.156 149.324 130.183 149.346 130.208C149.271 130.124 149.365 130.233 149.378 130.251C149.415 130.31 149.459 130.364 149.493 130.426C149.51 130.458 149.526 130.491 149.542 130.524C149.546 130.533 149.547 130.536 149.549 130.537C149.56 130.566 149.571 130.595 149.586 130.623C149.601 130.651 149.615 130.679 149.631 130.707C149.668 130.775 149.726 130.817 149.789 130.857C149.921 130.941 150.087 130.88 150.169 130.757C150.304 130.55 150.206 130.29 150.098 130.094Z" fill="white"/>
<path d="M151.615 129.951C151.586 129.854 151.55 129.758 151.5 129.67C151.411 129.516 151.302 129.371 151.18 129.242C150.937 128.985 150.608 128.755 150.25 128.72C150.157 128.711 150.065 128.788 150.031 128.868C149.998 128.949 150.007 129.073 150.081 129.132C150.148 129.185 150.216 129.235 150.287 129.283C150.303 129.294 150.319 129.305 150.335 129.317C150.337 129.319 150.34 129.32 150.343 129.321C150.368 129.334 150.392 129.362 150.413 129.38C150.524 129.474 150.624 129.573 150.716 129.686C150.726 129.7 150.736 129.714 150.746 129.728C150.765 129.758 150.785 129.788 150.803 129.819C150.84 129.88 150.874 129.944 150.904 130.009C150.934 130.074 150.965 130.139 150.995 130.204C150.999 130.213 150.999 130.213 150.999 130.211C151.004 130.223 151.009 130.235 151.014 130.248C151.033 130.282 151.061 130.316 151.089 130.343C151.114 130.366 151.141 130.388 151.166 130.411C151.311 130.548 151.536 130.485 151.596 130.296C151.634 130.181 151.653 130.072 151.615 129.951Z" fill="white"/>
<path d="M155.794 130.99C155.754 130.846 155.682 130.722 155.578 130.617C155.521 130.572 155.465 130.528 155.408 130.484C155.277 130.408 155.136 130.369 154.985 130.369C154.869 130.364 154.762 130.388 154.662 130.441C154.558 130.476 154.468 130.534 154.392 130.616C154.311 130.693 154.253 130.783 154.219 130.888C154.167 130.989 154.143 131.097 154.147 131.214C154.157 131.289 154.167 131.363 154.177 131.438C154.217 131.582 154.289 131.706 154.392 131.811C154.449 131.856 154.506 131.899 154.562 131.944C154.693 132.02 154.834 132.058 154.985 132.059C155.1 132.063 155.208 132.039 155.308 131.986C155.412 131.952 155.502 131.894 155.577 131.811C155.659 131.735 155.717 131.644 155.751 131.54C155.803 131.439 155.827 131.33 155.823 131.214C155.813 131.139 155.804 131.064 155.794 130.99Z" fill="white"/>
<path d="M150.958 123.59C151.814 123.975 154.018 124.703 156.871 124.554C156.936 123.133 156.936 121.974 156.936 121.974L150.773 122.603C150.773 122.603 150.847 122.999 150.958 123.59Z" fill="#FDE2D0"/>
<path d="M137.433 128.716C137.433 128.716 133.599 129.139 132.102 129.985C130.605 130.831 129.886 133.67 132.521 133.67C135.157 133.67 139.35 133.67 141.146 133.67C142.943 133.67 142.225 129.622 141.266 128.535L137.433 128.716Z" fill="#363C52"/>
<path d="M135.677 122.602C135.677 122.602 136.652 127.883 136.923 128.749C137.339 130.076 141.026 130.007 141.355 128.54C141.84 126.375 141.84 121.974 141.84 121.974L135.677 122.602Z" fill="#FDE2D0"/>
<path d="M135.001 130.094C134.917 129.941 134.809 129.797 134.681 129.678C134.549 129.554 134.401 129.444 134.249 129.346C134.089 129.242 133.904 129.115 133.706 129.128C133.577 129.137 133.442 129.264 133.495 129.407C133.518 129.467 133.541 129.523 133.583 129.573C133.608 129.603 133.638 129.631 133.665 129.658C133.691 129.684 133.721 129.705 133.75 129.728C133.755 129.732 133.765 129.739 133.773 129.744C133.769 129.741 133.766 129.74 133.757 129.733C133.79 129.755 133.82 129.783 133.85 129.808C133.97 129.908 134.084 130.014 134.186 130.131C134.207 130.156 134.226 130.183 134.249 130.208C134.173 130.124 134.267 130.233 134.281 130.251C134.318 130.31 134.361 130.364 134.395 130.426C134.413 130.458 134.428 130.491 134.444 130.524C134.448 130.533 134.45 130.536 134.451 130.537C134.463 130.566 134.473 130.595 134.488 130.623C134.503 130.651 134.517 130.679 134.532 130.707C134.57 130.775 134.628 130.817 134.69 130.857C134.823 130.941 134.989 130.88 135.07 130.757C135.207 130.55 135.109 130.29 135.001 130.094Z" fill="white"/>
<path d="M136.52 129.951C136.491 129.854 136.455 129.758 136.405 129.67C136.317 129.516 136.207 129.371 136.086 129.242C135.842 128.985 135.514 128.755 135.155 128.72C135.062 128.711 134.97 128.788 134.937 128.868C134.903 128.949 134.912 129.073 134.986 129.132C135.053 129.185 135.121 129.235 135.192 129.283C135.208 129.294 135.225 129.305 135.241 129.317C135.243 129.319 135.246 129.32 135.248 129.321C135.273 129.334 135.297 129.362 135.318 129.38C135.429 129.474 135.529 129.573 135.621 129.686C135.631 129.7 135.641 129.714 135.651 129.728C135.671 129.758 135.69 129.788 135.709 129.819C135.745 129.88 135.779 129.944 135.809 130.009C135.839 130.074 135.87 130.139 135.9 130.204C135.905 130.213 135.905 130.213 135.904 130.211C135.909 130.223 135.914 130.235 135.919 130.248C135.938 130.282 135.966 130.316 135.995 130.343C136.019 130.366 136.046 130.388 136.071 130.411C136.216 130.548 136.441 130.485 136.502 130.296C136.539 130.181 136.557 130.072 136.52 129.951Z" fill="white"/>
<path d="M140.696 130.99C140.656 130.846 140.585 130.722 140.481 130.617C140.424 130.572 140.368 130.528 140.311 130.484C140.18 130.408 140.039 130.369 139.888 130.369C139.773 130.364 139.665 130.388 139.565 130.441C139.461 130.476 139.372 130.534 139.296 130.616C139.214 130.693 139.156 130.783 139.122 130.888C139.07 130.989 139.046 131.097 139.05 131.214C139.06 131.289 139.07 131.363 139.08 131.438C139.12 131.582 139.192 131.706 139.296 131.811C139.352 131.856 139.408 131.899 139.465 131.944C139.596 132.02 139.737 132.058 139.888 132.059C140.004 132.063 140.111 132.039 140.211 131.986C140.315 131.952 140.405 131.894 140.481 131.811C140.562 131.735 140.62 131.644 140.654 131.54C140.706 131.439 140.73 131.33 140.726 131.214C140.716 131.139 140.706 131.064 140.696 130.99Z" fill="white"/>
<path d="M135.862 123.59C136.717 123.975 138.922 124.703 141.774 124.554C141.84 123.133 141.84 121.974 141.84 121.974L135.677 122.603C135.677 122.603 135.75 122.999 135.862 123.59Z" fill="#FDE2D0"/>
<path d="M154.444 80.5527C154.929 82.1592 156.452 86.35 156.59 91.2397C156.729 96.1293 157.283 119.668 157.491 123.3H150.081C150.081 123.3 145.164 105.279 144.887 91.6587C144.887 91.6587 143.104 102.548 142.464 107.305C141.702 112.963 142.741 123.37 142.741 123.37H134.847C134.847 123.37 132.284 106.048 133.462 96.9674C134.639 87.8869 136.647 79.9243 136.647 79.9243L154.444 80.5527Z" fill="#363C52"/>
<path d="M154.995 82.3208C154.769 81.5782 154.57 80.9753 154.442 80.554L145.522 80.2388L143.778 80.7633L143.813 82.5446C143.813 82.5446 149.075 84.0605 154.995 82.3208Z" fill="#2E344B"/>
<path d="M132.11 64.4272C132.11 64.4272 134.344 65.5271 136.707 65.3441C139.07 65.1606 136.551 63.5107 136.551 63.5107L132.11 64.4272Z" fill="#2E344B"/>
<path d="M137.442 64.6281C137.624 64.5773 136.784 67.8061 136.057 69.3776C135.605 70.3562 132.11 75.0003 132.11 75.0003L129.028 73.1144C129.028 73.1144 132.11 67.8582 132.37 67.2294C132.629 66.6007 133.253 62.0434 133.253 62.0434L136.473 61.5718L137.442 64.6281Z" fill="#FDE2D0"/>
<path d="M133.253 62.0442C133.253 62.0442 133.081 63.3035 132.88 64.5895C133.48 64.7182 135.83 65.2546 137.192 66.0244C137.407 65.2086 137.522 64.6066 137.443 64.6289L136.606 61.9903L135.762 61.6772L133.253 62.0442Z" fill="#FDE2D0"/>
<path d="M149.483 52.8477C151.95 53.1914 153.924 53.9769 155.066 55.1819C156.209 56.3869 156.52 67.5976 156.001 69.1166L155.413 68.7847L154.079 70.0593C154.079 70.0593 154.027 76.8694 155.118 80.6938C155.118 80.6938 146.497 84.6753 136.213 79.9603C136.213 79.9603 138.239 76.4504 137.668 70.5309C137.577 69.5908 136.577 67.1256 136.629 64.7686C136.629 64.7686 133.617 64.1923 132.11 64.4279C132.11 64.4279 133.461 57.3818 134.707 55.7581C135.953 54.1341 138.706 53.296 139.745 53.0342C140.784 52.7723 142.705 53.4007 142.705 53.4007L146.912 53.1909L149.483 52.8477Z" fill="#F5F5F5"/>
<path d="M154.903 79.8354C154.875 79.711 154.849 79.5854 154.823 79.4575C153.978 79.7386 153.127 79.9978 152.258 80.2067C150.97 80.5158 149.666 80.733 148.349 80.8604C145.711 81.1157 143.04 81.0264 140.41 80.7151C139.131 80.5636 137.861 80.3503 136.593 80.1248C136.931 80.2733 137.266 80.4125 137.6 80.543C139.648 80.9909 141.754 81.2199 143.836 81.3036C146.525 81.4117 149.239 81.2064 151.878 80.6647C152.896 80.455 153.915 80.1835 154.903 79.8354Z" fill="#2E344B"/>
<path d="M124.666 73.3605L143.243 88.8478C144.241 89.6807 145.712 89.5782 146.588 88.6149L146.903 88.2685C147.788 87.296 147.752 85.792 146.823 84.8633L129.721 67.7725L124.666 73.3605Z" fill="#FF7312"/>
<path d="M147.112 38.153C147.112 38.153 147.595 34.8869 151.424 34.6999C155.252 34.513 156.778 37.4292 157.094 40.3213C157.409 43.2134 157.795 44.7306 158.716 45.3204C158.716 45.3204 155.004 48.5059 151.997 44.7582C148.99 41.0105 147.112 38.153 147.112 38.153Z" fill="#3C3C48"/>
<path d="M149.807 35.0103C147.452 35.8658 147.112 38.1528 147.112 38.1528C147.112 38.1528 148.916 40.8947 151.813 44.5268C152.337 44.441 152.743 43.9651 152.95 42.9229C153.831 38.4685 150.969 35.8645 149.807 35.0103Z" fill="#2E344B"/>
<path d="M140.976 50.8041C138.574 49.1275 137.44 49.4345 136.959 43.1148C136.477 36.795 146.296 31.4789 151.04 37.5425C154.024 41.3554 154.285 48.1953 149.483 49.8645C144.105 51.7337 140.976 50.8041 140.976 50.8041Z" fill="#3C3C48"/>
<path d="M116.356 76.4679C125.449 76.4679 132.82 69.0329 132.82 59.8614C132.82 50.6899 125.449 43.2549 116.356 43.2549C107.264 43.2549 99.8926 50.6899 99.8926 59.8614C99.8926 69.0329 107.264 76.4679 116.356 76.4679Z" fill="#FF7312"/>
<path d="M116.357 72.3749C123.209 72.3749 128.764 66.7717 128.764 59.8598C128.764 52.9479 123.209 47.3447 116.357 47.3447C109.504 47.3447 103.949 52.9479 103.949 59.8598C103.949 66.7717 109.504 72.3749 116.357 72.3749Z" fill="#F0F0F0"/>
<path d="M141.666 50.3437C141.666 50.3437 141.631 51.2519 141.458 51.9853C141.285 52.7187 139.744 53.0331 139.744 53.0331C139.744 53.0331 140.8 55.6524 143.224 56.1415L144.055 59.669L145.232 56.2812C145.232 56.2812 148.063 55.8503 149.482 52.8466C149.482 52.8466 148.937 52.7888 148.21 52.4744C147.482 52.16 147.517 50.0298 147.517 50.0298L141.666 50.3437Z" fill="#FDE2D0"/>
<path d="M126.813 77.4796C126.359 75.8393 126.813 74.7556 127.194 74.2315C127.574 73.7078 127.886 74.3712 127.921 74.5809C127.956 74.7906 127.851 76.1874 127.851 76.1874C127.851 76.1874 128.128 75.3143 128.682 74.3366C129.236 73.3588 129.86 73.0444 130.24 73.7778C130.24 73.7778 130.794 73.4635 131.141 74.3015C131.141 74.3015 131.868 74.4412 131.729 75.419C131.729 75.419 132.214 75.838 132.041 76.5364C131.868 77.2348 131.106 78.0383 130.795 79.1207C130.483 80.204 127.429 79.7057 126.813 77.4796Z" fill="#FDE2D0"/>
<path d="M156.001 69.1157C154.936 69.4039 150.314 68.2514 149.717 67.9107C149.717 67.9107 150.041 67.5832 150.496 67.4917L153.301 68.212L154.443 68.487L155.413 68.7838L156.001 69.1157Z" fill="#2E344B"/>
<path d="M150.497 67.4913C150.497 67.4913 150.012 69.29 149.25 70.3724C148.489 71.4553 141.391 78.7716 141.01 79.0859C140.629 79.4003 138.136 79.2957 137.409 79.7498C136.682 80.2038 137.271 80.6929 137.824 80.6579C138.378 80.6229 139.313 80.7625 139.313 80.7625C139.313 80.7625 138.725 81.8104 138.378 82.1593C138.032 82.5087 136.994 83.0324 136.612 83.1371C136.232 83.2417 136.301 84.1148 136.751 84.0802C136.751 84.0802 136.301 84.8837 137.236 85.1977C137.236 85.1977 137.028 85.7214 137.928 85.7914C137.928 85.7914 137.963 86.0358 138.932 85.9661C139.902 85.8961 141.114 84.639 141.633 84.1153C142.152 83.5916 143.052 81.95 143.295 81.7753C143.537 81.6006 151.5 75.0002 152.712 73.603C153.924 72.2058 155.413 68.7834 155.413 68.7834C155.413 68.7834 152.886 67.0022 150.497 67.4913Z" fill="#FDE2D0"/>
<path d="M148.622 52.6325C148.493 52.5882 148.357 52.5379 148.21 52.4744C147.483 52.16 147.518 50.0298 147.518 50.0298L144.373 50.1988L142.453 50.5079L141.599 51.1525C141.586 51.2615 141.57 51.3762 141.552 51.4923C142.2 52.0856 144.647 53.95 148.622 52.6325Z" fill="#FDE2D0"/>
<path d="M149.94 43.7793C149.94 43.7793 151.409 42.9014 152.333 44.3809C153.257 45.8605 151.751 47.1198 150.513 47.1193C150.513 47.1193 149.345 52.3404 144.872 52.5349C140.421 52.7284 138.505 48.1299 138.145 44.7268C138.145 44.7268 140.148 43.7714 140.371 42.6763C140.593 41.5812 143.332 41.4621 144.698 39.4492C144.698 39.4492 145.753 41.4656 147.048 41.572C148.344 41.678 149.639 43.0327 149.94 43.7793Z" fill="#FDE2D0"/>
<path d="M147.048 41.572C145.752 41.4656 144.698 39.4492 144.698 39.4492C143.331 41.4621 140.592 41.5812 140.37 42.6763C140.148 43.7714 138.145 44.7268 138.145 44.7268C138.157 44.8411 138.171 44.9567 138.186 45.0732C138.965 44.8919 140.369 43.8949 140.694 43.1461C141.057 42.308 143.277 41.928 144.576 40.409C144.576 40.409 145.536 41.9021 146.939 42.0593C148.033 42.1819 149.163 43.0813 149.759 43.4382C149.278 42.6802 148.164 41.6639 147.048 41.572Z" fill="#FDE2D0"/>
<path d="M151.745 44.6267C151.793 44.5094 151.683 44.385 151.602 44.3158C151.506 44.234 151.403 44.1683 151.282 44.1306C151.061 44.0623 150.796 44.1061 150.64 44.2878C150.496 44.4551 150.468 44.6867 150.477 44.9008C150.49 45.171 150.524 45.4425 150.567 45.7091C150.59 45.8571 150.813 45.9114 150.906 45.7993C150.996 45.6916 151.206 45.5493 151.327 45.703C151.378 45.7682 151.346 45.8685 151.313 45.9333C151.284 45.9889 151.242 46.0362 151.212 46.0914C151.179 46.1522 151.159 46.2175 151.144 46.2845C151.123 46.3751 151.204 46.471 151.299 46.4408C151.508 46.3751 151.636 46.2201 151.707 46.0134C151.774 45.8151 151.741 45.5983 151.606 45.4377C151.428 45.2262 151.16 45.2012 150.927 45.2914C150.917 45.1876 150.9 45.0843 150.896 44.9792C150.89 44.8492 150.874 44.6731 150.961 44.5702C151.164 44.3312 151.605 44.9726 151.745 44.6267Z" fill="#FDE2D0"/>
<path d="M150.496 67.4913C150.496 67.4913 150.468 67.5946 150.416 67.7632C150.811 67.8897 153.216 68.2939 155.035 69.6083C155.269 69.1131 155.412 68.7834 155.412 68.7834C155.412 68.7834 152.885 67.0022 150.496 67.4913Z" fill="#FDE2D0"/>
<path d="M139.955 82.1849C139.818 82.2489 139.721 82.4034 139.625 82.5164C139.517 82.6443 139.408 82.7739 139.29 82.8939C139.072 83.1163 138.826 83.3125 138.56 83.4736C138.034 83.7924 137.456 84.0205 136.848 84.1102C136.783 84.1199 136.797 84.2311 136.863 84.2267C137.499 84.1834 138.125 84.0017 138.664 83.6527C138.925 83.4832 139.171 83.2884 139.39 83.0668C139.521 82.9355 139.643 82.7966 139.765 82.6574C139.869 82.5374 140.007 82.4218 140.066 82.2716C140.092 82.2025 140.007 82.16 139.955 82.1849Z" fill="#FDE2D0"/>
<path d="M140.657 83.3412C140.412 83.5505 140.189 83.7786 139.931 83.9739C139.676 84.167 139.402 84.3369 139.12 84.4871C138.554 84.7888 137.937 84.9937 137.312 85.1299C137.228 85.1483 137.266 85.2704 137.347 85.2573C137.998 85.1531 138.617 84.9342 139.205 84.6351C139.499 84.4858 139.78 84.3137 140.051 84.1254C140.316 83.9411 140.596 83.7401 140.813 83.4993C140.911 83.392 140.765 83.2488 140.657 83.3412Z" fill="#FDE2D0"/>
<path d="M140.665 84.3418C140.454 84.4106 140.284 84.5941 140.103 84.7206C139.908 84.8576 139.706 84.9842 139.496 85.0967C139.287 85.2092 139.071 85.31 138.85 85.3971C138.623 85.4869 138.382 85.549 138.157 85.6432C138.092 85.6703 138.089 85.7942 138.176 85.7829C138.413 85.7518 138.654 85.6616 138.876 85.5736C139.104 85.4829 139.327 85.38 139.543 85.2644C139.759 85.1488 139.97 85.0218 140.172 84.883C140.359 84.7547 140.608 84.6124 140.711 84.404C140.727 84.3734 140.701 84.33 140.665 84.3418Z" fill="#FDE2D0"/>
<path d="M130.119 73.8375C130.011 73.8344 129.937 73.9443 129.873 74.0209C129.792 74.119 129.718 74.2259 129.646 74.3309C129.491 74.5569 129.355 74.7951 129.233 75.0416C129.118 75.2763 129.013 75.5176 128.923 75.7636C128.878 75.8893 128.836 76.0163 128.798 76.1446C128.766 76.2562 128.697 76.4112 128.742 76.5242C128.768 76.589 128.839 76.614 128.894 76.5645C128.976 76.4901 128.987 76.3552 129.015 76.251C129.049 76.1218 129.088 75.9939 129.131 75.8674C129.216 75.6165 129.316 75.3717 129.437 75.1362C129.552 74.912 129.681 74.6948 129.819 74.4846C129.893 74.373 129.974 74.2674 130.05 74.1584C130.109 74.0752 130.195 73.9859 130.173 73.8786C130.168 73.8541 130.142 73.8379 130.119 73.8375Z" fill="#FDE2D0"/>
<path d="M131.066 74.4307C130.957 74.4302 130.885 74.5182 130.812 74.5905C130.727 74.6763 130.648 74.7687 130.573 74.8655C130.427 75.0559 130.304 75.2626 130.201 75.4798C130.091 75.7105 129.997 75.9523 129.928 76.1983C129.891 76.3314 129.857 76.4654 129.827 76.5999C129.797 76.7299 129.752 76.8687 129.752 77.0031C129.752 77.0649 129.841 77.0933 129.871 77.0355C129.926 76.9287 129.949 76.8061 129.983 76.6914C130.018 76.5736 130.054 76.4562 130.093 76.3398C130.176 76.0911 130.262 75.8423 130.374 75.605C130.47 75.4023 130.582 75.207 130.715 75.0266C130.782 74.936 130.854 74.8497 130.932 74.7683C131.003 74.6943 131.114 74.6268 131.134 74.5204C131.142 74.4758 131.115 74.4311 131.066 74.4307Z" fill="#FDE2D0"/>
<path d="M131.645 75.4852C131.544 75.4751 131.478 75.557 131.414 75.6245C131.342 75.7015 131.278 75.7869 131.218 75.8745C131.089 76.0636 130.985 76.2694 130.895 76.4801C130.808 76.6845 130.734 76.8938 130.667 77.1058C130.604 77.3011 130.474 77.569 130.564 77.7709C130.593 77.8361 130.687 77.7985 130.689 77.7367C130.693 77.6176 130.701 77.5182 130.738 77.404C130.771 77.3015 130.805 77.1999 130.839 77.0979C130.908 76.896 130.98 76.6942 131.067 76.4989C131.148 76.3163 131.241 76.139 131.353 75.9739C131.414 75.8837 131.482 75.7979 131.552 75.7147C131.607 75.6512 131.668 75.5991 131.668 75.5089C131.668 75.4953 131.658 75.4865 131.645 75.4852Z" fill="#FDE2D0"/>
<path d="M137.849 58.7986C137.541 59.1791 137.406 59.6919 137.254 60.1512C137.082 60.6731 136.947 61.2087 136.834 61.7468C136.727 62.2503 136.643 62.7578 136.585 63.2697C136.534 63.7325 136.388 64.3521 136.579 64.7948C136.596 64.8333 136.657 64.8289 136.675 64.7948C136.777 64.6012 136.788 64.3819 136.806 64.1669C136.828 63.9007 136.853 63.6349 136.885 63.3695C136.95 62.8375 137.034 62.3064 137.141 61.7814C137.245 61.2743 137.375 60.7747 137.514 60.2764C137.647 59.7996 137.867 59.3193 137.903 58.8223C137.906 58.7947 137.867 58.7772 137.849 58.7986Z" fill="#2E344B"/>
<path d="M149.099 55.8005C149.555 55.335 149.914 54.7864 150.164 54.1835C150.288 53.8848 150.397 53.5726 150.441 53.2508C150.451 53.1759 150.465 53.0975 150.478 53.0179C150.401 53.0025 150.323 52.9881 150.245 52.9736C150.229 53.0564 150.211 53.1387 150.183 53.2197C150.084 53.5157 149.995 53.8121 149.864 54.0968C149.609 54.648 149.263 55.1599 148.834 55.5886C148.406 56.0164 147.897 56.3671 147.349 56.6184C147.078 56.7423 146.798 56.8339 146.512 56.9127C146.363 56.9538 146.214 56.9915 146.062 57.0208C145.994 57.034 145.933 57.041 145.876 57.0594C145.815 57.055 145.752 57.0826 145.726 57.1561C145.248 58.5358 144.681 59.8678 143.981 61.146C143.724 60.4918 143.537 59.817 143.356 59.1362C143.254 58.753 143.161 58.3677 143.073 57.9811C142.992 57.6264 142.947 57.2065 142.786 56.8798C142.783 56.8733 142.777 56.8728 142.773 56.8676C142.778 56.8448 142.778 56.8198 142.768 56.7909C142.714 56.6254 142.406 56.593 142.264 56.5444C141.48 56.2769 140.756 55.8364 140.16 55.2571C139.596 54.7089 139.131 54.0315 138.787 53.3125C138.742 53.327 138.698 53.3414 138.651 53.3572C139.063 54.7794 140.146 55.9467 141.462 56.6022C141.637 56.6894 141.816 56.7655 142 56.8317C142.162 56.8899 142.354 56.9696 142.533 56.9814C142.532 57.1666 142.583 57.3545 142.618 57.5353C142.657 57.7446 142.699 57.9526 142.745 58.1606C142.83 58.5477 142.917 58.9352 143.019 59.3183C143.226 60.0942 143.508 60.8543 143.829 61.5891C143.877 61.6981 144.042 61.6819 144.095 61.5891C144.861 60.2295 145.517 58.7863 145.982 57.2919C146.184 57.3015 146.437 57.2297 146.59 57.1977C146.905 57.132 147.213 57.0213 147.508 56.8925C148.101 56.6324 148.644 56.2655 149.099 55.8005Z" fill="#2E344B"/>
<path d="M150.925 61.0586C150.919 61.0433 150.893 61.0341 150.885 61.0534C150.686 61.5092 150.721 62.0876 150.678 62.578C150.625 63.1722 150.549 63.7629 150.462 64.3531C150.294 65.4946 150.006 66.6055 149.786 67.7361C149.759 67.8762 149.947 67.9274 149.996 67.7948C150.398 66.7067 150.603 65.5306 150.773 64.386C150.855 63.8382 150.913 63.2865 150.957 62.7343C150.979 62.4563 150.995 62.1791 151.001 61.9002C151.005 61.609 151.028 61.3349 150.925 61.0586Z" fill="#2E344B"/>
<path d="M147.564 71.0653C147.234 71.1791 146.944 71.3705 146.638 71.5368C146.294 71.7229 145.939 71.8902 145.575 72.0316C144.868 72.3053 144.129 72.4988 143.373 72.5558C141.958 72.6617 140.453 72.2913 139.307 71.4331C139.293 71.423 139.276 71.4453 139.289 71.4571C140.396 72.4677 141.852 72.8916 143.329 72.8102C144.106 72.7677 144.879 72.5952 145.605 72.3154C145.963 72.1774 146.312 72.0176 146.651 71.8381C147 71.6533 147.357 71.4633 147.622 71.1647C147.658 71.1235 147.623 71.0451 147.564 71.0653Z" fill="#2E344B"/>
<path d="M148.024 70.0629C147.757 70.2477 147.494 70.4364 147.21 70.595C147.051 70.6834 146.886 70.757 146.725 70.841C146.575 70.9199 146.394 70.9755 146.267 71.0911C146.26 71.0976 146.266 71.1073 146.274 71.1086C146.426 71.1292 146.586 71.07 146.73 71.0276C146.88 70.9833 147.023 70.922 147.166 70.8577C147.459 70.7246 147.751 70.5717 148.013 70.3822C148.107 70.3143 148.329 70.1917 148.316 70.0538C148.301 69.8891 148.09 70.017 148.024 70.0629Z" fill="#2E344B"/>
<path d="M145.058 91.3595C145.054 91.1161 145.054 90.8722 145.054 90.6287C145.054 90.4093 145.11 90.116 145.005 89.9176C144.957 89.8283 144.834 89.8401 144.784 89.9176C144.718 90.0196 144.716 90.1449 144.711 90.2635C144.704 90.3945 144.699 90.5258 144.695 90.6567C144.687 90.9002 144.687 91.1436 144.691 91.3875C144.698 91.8867 144.698 92.3946 144.823 92.8802C144.86 93.0234 145.051 92.9796 145.064 92.8474C145.113 92.353 145.065 91.8552 145.058 91.3595Z" fill="#2E344B"/>
<path d="M142.555 99.1665C142.759 98.1585 142.979 97.154 143.22 96.1544C143.468 95.1258 143.781 94.0964 143.955 93.053C143.961 93.0171 143.907 92.9855 143.89 93.0254C143.537 93.8621 143.322 94.7611 143.086 95.6372C142.841 96.5463 142.629 97.4662 142.432 98.3866C142.038 100.229 141.714 102.088 141.464 103.956C140.968 107.66 140.724 111.429 140.811 115.167C140.858 117.192 140.972 119.231 141.256 121.238C139.304 121.233 137.353 121.227 135.401 121.231C135.119 121.231 134.836 121.23 134.554 121.229C134.57 121.356 134.586 121.478 134.601 121.595C136.835 121.599 139.069 121.593 141.303 121.586C141.73 121.584 142.157 121.583 142.584 121.583C142.575 121.472 142.566 121.36 142.557 121.241C142.225 121.24 141.893 121.24 141.561 121.239C141.402 119.456 141.239 117.676 141.174 115.885C141.106 114.023 141.094 112.151 141.168 110.288C141.315 106.557 141.814 102.824 142.555 99.1665Z" fill="#3C3C48"/>
<path d="M157.403 121.221C156.941 121.223 156.479 121.224 156.017 121.225C156.035 121.203 156.048 121.174 156.047 121.135C155.947 118.663 155.822 116.194 155.804 113.719C155.795 112.501 155.803 111.283 155.847 110.066C155.891 108.838 156.009 107.613 156.042 106.385C156.107 103.968 155.658 101.585 155.552 99.1766C155.499 97.9742 155.554 96.771 155.561 95.5677C155.567 94.3684 155.527 93.1682 155.433 91.9724C155.226 89.3268 154.824 86.6392 154.012 84.1092C153.985 84.0221 153.857 84.0575 153.876 84.1469C154.402 86.4973 154.888 88.8425 155.111 91.2451C155.22 92.4212 155.283 93.6026 155.29 94.7835C155.298 95.9832 155.235 97.1826 155.25 98.3823C155.279 100.794 155.751 103.175 155.769 105.586C155.777 106.795 155.67 108.001 155.602 109.206C155.534 110.422 155.49 111.64 155.487 112.859C155.481 115.618 155.595 118.38 155.755 121.134C155.757 121.173 155.774 121.202 155.795 121.225C154.293 121.23 152.792 121.235 151.291 121.238C150.71 121.238 150.13 121.24 149.55 121.242C149.58 121.362 149.609 121.477 149.637 121.588C151.797 121.592 153.957 121.596 156.117 121.6C156.551 121.601 156.985 121.602 157.418 121.604C157.413 121.481 157.408 121.354 157.403 121.221Z" fill="#3C3C48"/>
<path d="M142.031 46.1369C142.006 45.8256 141.878 45.5243 141.642 45.4017C141.573 45.3658 141.5 45.3491 141.423 45.3513C141.371 45.3417 141.32 45.3456 141.27 45.3627C141.194 45.3719 141.125 45.3991 141.062 45.4446C141.025 45.4766 140.988 45.5085 140.952 45.5405C140.886 45.6154 140.842 45.7008 140.822 45.7971C140.727 46.2433 140.791 47.1501 141.449 47.0726C141.599 47.0546 141.752 46.9951 141.849 46.8764C141.991 46.7026 142.052 46.4158 142.031 46.1369Z" fill="#2E344B"/>
<path d="M146.269 46.2458C146.245 45.9344 146.116 45.6332 145.88 45.5106C145.811 45.4747 145.738 45.458 145.662 45.4602C145.609 45.4506 145.559 45.4545 145.509 45.4716C145.432 45.4808 145.363 45.508 145.3 45.5535C145.263 45.5855 145.227 45.6174 145.19 45.6494C145.124 45.7243 145.081 45.8096 145.06 45.906C144.966 46.3522 145.029 47.259 145.687 47.1815C145.837 47.1635 145.99 47.1044 146.087 46.9853C146.229 46.8115 146.291 46.5247 146.269 46.2458Z" fill="#2E344B"/>
<path d="M143.554 48.5159C143.493 48.4572 143.434 48.4038 143.364 48.3547C143.301 48.3105 143.233 48.2742 143.176 48.2207C143.063 48.1148 142.994 47.9712 143.108 47.8398C143.241 47.6865 143.344 47.5237 143.411 47.331C143.47 47.165 143.54 46.9128 143.453 46.7482C143.416 46.6768 143.311 46.6825 143.272 46.7482C143.218 46.8401 143.215 46.9614 143.185 47.0639C143.157 47.1637 143.116 47.2579 143.063 47.3472C143.011 47.4361 142.952 47.5158 142.882 47.5911C142.796 47.6839 142.723 47.7785 142.71 47.909C142.688 48.1157 142.797 48.3179 142.95 48.4489C143.025 48.5132 143.109 48.5723 143.199 48.6131C143.294 48.656 143.385 48.6682 143.488 48.6739C143.568 48.6796 143.61 48.5702 143.554 48.5159Z" fill="#FDE2D0"/>
<path d="M141.047 47.4552C141.047 47.7753 140.653 48.035 140.167 48.035C139.681 48.035 139.287 47.7753 139.287 47.4552C139.287 47.1351 139.681 46.8755 140.167 46.8755C140.653 46.8755 141.047 47.1351 141.047 47.4552Z" fill="#FDE2D0"/>
<path d="M147.942 47.5822C147.942 47.9023 147.549 48.1619 147.063 48.1619C146.577 48.1619 146.183 47.9023 146.183 47.5822C146.183 47.2621 146.576 47.0024 147.063 47.0024C147.549 47.0024 147.942 47.2621 147.942 47.5822Z" fill="#FDE2D0"/>
<path d="M146.448 45.1073C146.417 45.0763 146.364 45.0579 146.321 45.0736C146.311 45.0771 146.302 45.0811 146.292 45.0854C146.28 45.0889 146.27 45.0946 146.261 45.1034C146.256 45.1078 146.25 45.1122 146.245 45.117C146.243 45.1187 146.241 45.1209 146.239 45.1231C146.231 45.1319 146.222 45.1406 146.214 45.1498L146.164 45.2032C146.149 45.219 146.136 45.2361 146.126 45.2558C146.121 45.2667 146.116 45.2772 146.111 45.2882C146.109 45.2934 146.106 45.2991 146.104 45.3044C146.103 45.3074 146.101 45.3105 146.1 45.3136C146.097 45.3184 146.095 45.3232 146.093 45.3285C146.089 45.3368 146.086 45.346 146.086 45.356C146.083 45.381 146.087 45.4055 146.1 45.4279C146.107 45.4414 146.119 45.4563 146.133 45.4629C146.138 45.4655 146.143 45.4677 146.149 45.4699C146.176 45.4817 146.206 45.4817 146.234 45.4699C146.248 45.4638 146.262 45.4568 146.276 45.4497C146.286 45.4449 146.296 45.4397 146.306 45.4349C146.326 45.4248 146.343 45.4103 146.359 45.3946C146.375 45.3784 146.391 45.3622 146.407 45.346C146.416 45.3372 146.425 45.3289 146.433 45.3201C146.435 45.3184 146.437 45.3162 146.439 45.3144C146.446 45.3053 146.453 45.2956 146.461 45.2864L146.463 45.2834C146.472 45.2689 146.476 45.2523 146.482 45.2365C146.496 45.1914 146.48 45.1389 146.448 45.1073Z" fill="#FDE2D0"/>
<path d="M146.668 45.6241C146.666 45.6175 146.663 45.611 146.66 45.6044C146.655 45.5948 146.648 45.5869 146.639 45.5812C146.634 45.5759 146.627 45.5724 146.621 45.5707C146.611 45.5654 146.601 45.5632 146.589 45.5637L146.55 45.5589C146.543 45.558 146.537 45.5571 146.53 45.5562C146.516 45.5545 146.502 45.5571 146.489 45.5597C146.476 45.5619 146.463 45.5637 146.451 45.5672C146.434 45.572 146.418 45.5825 146.403 45.5913C146.362 45.6145 146.362 45.6788 146.403 45.702C146.418 45.7104 146.433 45.7196 146.449 45.7252C146.462 45.7296 146.475 45.7309 146.489 45.7331C146.502 45.7358 146.515 45.7384 146.528 45.7366C146.535 45.7358 146.541 45.7349 146.548 45.734L146.589 45.7287C146.597 45.7279 146.604 45.7266 146.611 45.7257C146.622 45.7231 146.631 45.7182 146.639 45.7108C146.652 45.7003 146.664 45.685 146.668 45.6679C146.67 45.6609 146.672 45.6526 146.672 45.646C146.671 45.6386 146.67 45.6311 146.668 45.6241Z" fill="#FDE2D0"/>
<path d="M140.53 45.1318C140.526 45.1239 140.52 45.1164 140.514 45.1107C140.502 45.0994 140.489 45.0915 140.473 45.0867L140.486 45.0924C140.474 45.0871 140.463 45.0797 140.452 45.0722C140.449 45.0696 140.447 45.0674 140.444 45.0643C140.435 45.056 140.427 45.0473 140.416 45.0416C140.412 45.0398 140.409 45.0376 140.405 45.0359C140.393 45.0284 140.383 45.0188 140.369 45.0153C140.358 45.0131 140.348 45.0131 140.337 45.0118C140.339 45.0122 140.34 45.0122 140.342 45.0122C140.326 45.01 140.31 45.0149 140.298 45.0267C140.297 45.028 140.296 45.0293 140.294 45.0306C140.289 45.0367 140.284 45.0429 140.28 45.0494C140.275 45.056 140.273 45.0613 140.27 45.0709C140.269 45.0788 140.267 45.0884 140.268 45.0963C140.269 45.1121 140.271 45.1278 140.276 45.1432C140.276 45.1453 140.277 45.1471 140.277 45.1493C140.283 45.1664 140.29 45.1799 140.303 45.1939C140.306 45.1974 140.309 45.201 140.313 45.2045C140.331 45.2228 140.352 45.2395 140.375 45.2517C140.379 45.2539 140.383 45.2557 140.388 45.2574C140.406 45.2658 140.425 45.2758 140.446 45.2749C140.472 45.2736 140.498 45.2644 140.516 45.2447C140.531 45.2281 140.545 45.2066 140.543 45.183C140.541 45.165 140.539 45.1488 140.53 45.1318Z" fill="#FDE2D0"/>
<path d="M140.335 45.5931C140.322 45.5843 140.307 45.5751 140.291 45.5716C140.274 45.5677 140.257 45.5668 140.24 45.5651C140.22 45.5629 140.2 45.562 140.18 45.5616C140.125 45.5611 140.067 45.5655 140.018 45.5931C139.981 45.6141 139.959 45.664 139.973 45.7052C139.987 45.7485 140.023 45.7757 140.068 45.7783C140.076 45.7787 140.085 45.777 140.094 45.7765C140.111 45.7752 140.129 45.7739 140.145 45.7704C140.159 45.7673 140.172 45.7656 140.185 45.7634C140.202 45.7617 140.218 45.7599 140.235 45.759C140.245 45.7586 140.256 45.759 140.266 45.7586C140.284 45.7582 140.299 45.7533 140.315 45.7476C140.347 45.7363 140.37 45.7126 140.375 45.6776C140.379 45.643 140.364 45.6119 140.335 45.5931Z" fill="#FDE2D0"/>
<path d="M141.419 43.6993C141.456 43.6533 141.482 43.6108 141.49 43.5504C141.498 43.4961 141.491 43.4317 141.46 43.3849C141.439 43.3542 141.416 43.3201 141.392 43.2947C141.34 43.2417 141.279 43.2176 141.211 43.1922C141.119 43.1581 141.007 43.176 140.914 43.1935C140.787 43.2176 140.664 43.2666 140.551 43.3293C140.444 43.3892 140.331 43.4667 140.25 43.56C140.146 43.6804 140.032 43.8529 140.034 44.0171C140.037 44.2483 140.282 44.3806 140.478 44.2742C140.567 44.2264 140.63 44.1362 140.709 44.0741C140.686 44.092 140.663 44.11 140.641 44.1275C140.676 44.0999 140.711 44.0714 140.747 44.0434C140.808 43.997 140.876 43.9602 140.945 43.9274C141.003 43.9055 141.061 43.884 141.122 43.8709C141.184 43.8578 141.241 43.8372 141.297 43.8065C141.342 43.7816 141.382 43.7492 141.413 43.708C141.413 43.708 141.416 43.7045 141.416 43.7036C141.412 43.708 141.412 43.7089 141.419 43.6993Z" fill="#3C3C48"/>
<path d="M141.416 43.7031C141.425 43.6928 141.455 43.6557 141.444 43.6665C141.436 43.6738 141.42 43.6971 141.416 43.7031Z" fill="#5F2A3D"/>
<path d="M146.429 44.1279C146.408 44.1364 146.412 44.1349 146.429 44.1279V44.1279Z" fill="#3C3C48"/>
<path d="M145.191 43.6333C145.19 43.6326 145.19 43.6318 145.189 43.6311C145.185 43.6282 145.182 43.6263 145.178 43.623C145.179 43.6238 145.185 43.6285 145.191 43.6333Z" fill="#3C3C48"/>
<path d="M146.512 43.6368C146.384 43.4236 146.154 43.2869 145.923 43.2147C145.809 43.1792 145.688 43.1578 145.569 43.1582C145.418 43.1591 145.263 43.1753 145.151 43.2887C145.045 43.3973 145.082 43.5488 145.191 43.6337C145.223 43.6583 145.249 43.6753 145.289 43.6898C145.309 43.6968 145.329 43.7025 145.35 43.7069C145.395 43.7169 145.439 43.7261 145.483 43.7397C145.522 43.752 145.56 43.7668 145.599 43.7809C145.619 43.7883 145.639 43.7975 145.66 43.8045C145.564 43.7717 145.639 43.7962 145.665 43.8098C145.745 43.85 145.823 43.8995 145.896 43.9507C145.899 43.9529 145.902 43.9556 145.905 43.9582C145.9 43.9538 145.899 43.9529 145.893 43.9472C145.925 43.9783 145.963 44.0059 146 44.0309C146.035 44.0545 146.069 44.0808 146.107 44.0983C146.144 44.1154 146.18 44.1351 146.218 44.1474C146.244 44.1557 146.278 44.1614 146.305 44.1614C146.353 44.1614 146.388 44.1443 146.431 44.1285C146.436 44.1259 146.439 44.1246 146.449 44.1206L146.432 44.1281C146.431 44.1281 146.431 44.1281 146.431 44.1285C146.436 44.1268 146.44 44.125 146.445 44.1233C146.448 44.1224 146.45 44.1206 146.452 44.1198C146.453 44.1193 146.453 44.1193 146.454 44.1189C146.468 44.1101 146.483 44.0979 146.494 44.0869C146.62 43.9691 146.594 43.7721 146.512 43.6368Z" fill="#3C3C48"/>
<path d="M145.906 43.9585C145.929 43.9764 145.949 43.999 145.906 43.9585V43.9585Z" fill="#3C3C48"/>
<path d="M145.193 43.6362C145.194 43.6369 145.195 43.638 145.195 43.6384C145.212 43.6504 145.203 43.6437 145.193 43.6362Z" fill="#3C3C48"/>
<path d="M143.96 49.2849C143.792 49.1837 143.565 49.1469 143.373 49.1627C143.14 49.1824 142.921 49.259 142.745 49.4184C142.626 49.5266 142.778 49.7148 142.913 49.6378C143.059 49.5541 143.223 49.502 143.391 49.5012C143.436 49.5007 143.48 49.5042 143.525 49.509C143.529 49.5095 143.565 49.513 143.546 49.5108C143.529 49.5086 143.559 49.513 143.559 49.513C143.585 49.5178 143.611 49.5226 143.637 49.5292C143.742 49.555 143.811 49.5931 143.894 49.6229C143.947 49.6417 144.01 49.664 144.064 49.6404C144.072 49.6369 144.093 49.6198 144.101 49.6141C144.115 49.6006 144.125 49.5914 144.134 49.5717C144.185 49.4504 144.051 49.34 143.96 49.2849Z" fill="#FDE2D0"/>
<path d="M144.1 49.6125C144.098 49.6143 144.098 49.6162 144.096 49.6181C144.105 49.6095 144.104 49.6099 144.1 49.6125Z" fill="#FDE2D0"/>
<path d="M114.043 51.0955C113.956 50.4365 113.332 49.7368 112.608 49.8174C112.037 49.8809 111.566 50.0355 111.058 50.3139C110.81 50.4501 110.568 50.5985 110.334 50.7557C109.75 51.1463 109.187 51.5881 108.688 52.0855C108.205 52.5681 107.751 53.1115 107.45 53.7284C107.279 54.0778 107.137 54.4408 107.036 54.8169C106.951 55.1348 106.928 55.4462 107.014 55.7689C107.148 56.2698 107.607 56.765 108.169 56.7217C108.552 56.6919 108.873 56.554 109.151 56.286C109.309 56.134 109.413 55.9471 109.531 55.7662C109.665 55.5626 109.811 55.366 109.957 55.1716C110.103 54.986 110.249 54.8012 110.392 54.6129C110.315 54.714 110.237 54.8152 110.16 54.9163C110.547 54.4176 110.995 53.9762 111.483 53.58C111.878 53.2849 112.298 53.0081 112.739 52.7861C112.823 52.7581 112.907 52.727 112.997 52.713C113.321 52.6631 113.722 52.3189 113.87 52.0356C114.026 51.7374 114.088 51.4309 114.043 51.0955Z" fill="#182452"/>
<path d="M118.843 50.3457C118.842 50.2305 118.813 50.1232 118.756 50.0238C118.726 49.9157 118.672 49.822 118.593 49.7423C118.563 49.6836 118.523 49.6341 118.472 49.5947C118.386 49.5277 118.3 49.4607 118.214 49.3937C118.197 49.3819 118.181 49.3701 118.163 49.3587C118.039 49.2773 117.898 49.2208 117.754 49.1818C117.663 49.1568 117.571 49.1363 117.479 49.1201C117.289 49.0863 117.098 49.061 116.906 49.0417C116.813 49.0325 116.719 49.0242 116.626 49.0347C116.441 49.0557 116.253 49.0798 116.071 49.1196C116.026 49.1297 115.981 49.1406 115.937 49.1525C115.866 49.1717 115.811 49.1976 115.739 49.2282C115.599 49.2878 115.451 49.371 115.349 49.4888C115.157 49.7099 115.002 49.9958 115.016 50.3019C115.028 50.5865 115.118 50.9298 115.349 51.115C115.515 51.2477 115.661 51.3795 115.878 51.4289C115.913 51.4368 115.95 51.4408 115.986 51.446C116.079 51.4609 116.172 51.4771 116.264 51.5007C116.369 51.5279 116.477 51.541 116.583 51.5638C116.691 51.5866 116.797 51.615 116.901 51.6492C116.951 51.6654 117.001 51.6829 117.049 51.7017C117.103 51.7227 117.161 51.7306 117.218 51.7407C117.213 51.7398 117.207 51.7394 117.201 51.7385C117.209 51.7398 117.217 51.7411 117.225 51.7424C117.274 51.7508 117.321 51.7613 117.37 51.7661C117.438 51.7775 117.506 51.7871 117.571 51.7889C117.637 51.7946 117.703 51.7876 117.768 51.7678C117.882 51.7674 117.989 51.7385 118.087 51.6807C118.194 51.6505 118.287 51.5958 118.366 51.5169C118.415 51.4876 118.459 51.453 118.499 51.4127C118.506 51.4057 118.513 51.3992 118.52 51.3922C118.736 51.164 118.861 50.8553 118.865 50.5396C118.866 50.4726 118.853 50.4267 118.843 50.3457Z" fill="#182452"/>
<path d="M122.609 67.9939C122.566 67.8126 122.484 67.655 122.362 67.5206C122.11 67.1913 121.707 66.9474 121.278 66.9719C121.235 66.9745 121.192 66.9754 121.149 66.9772C120.838 66.9894 120.582 67.0665 120.314 67.2119C120.213 67.2666 120.122 67.3231 120.028 67.3896C119.942 67.4505 119.854 67.5079 119.763 67.5617C119.653 67.6278 119.55 67.7058 119.449 67.7859C119.09 68.0482 118.649 68.2352 118.439 68.6503C118.339 68.8495 118.295 69.0483 118.325 69.272C118.355 69.4975 118.445 69.656 118.591 69.8321C118.896 70.2016 119.343 70.2476 119.78 70.2909C119.974 70.3102 120.17 70.3168 120.364 70.3058C120.688 70.287 120.981 70.2003 121.278 70.079C121.512 69.9836 121.679 69.9157 121.866 69.7725C122.097 69.5965 122.307 69.4454 122.429 69.1691C122.492 69.0259 122.552 68.8806 122.609 68.7348C122.674 68.4874 122.674 68.2408 122.609 67.9939Z" fill="#182452"/>
<path d="M143.935 175.653H139.261L129.601 135.944H134.275L143.935 175.653Z" fill="#EDEDED"/>
<path d="M172.5 175.653H167.826L158.166 135.944H162.84L172.5 175.653Z" fill="#EDEDED"/>
<path d="M142.637 175.653H137.963L128.303 135.944H132.977L142.637 175.653Z" fill="#EDEDED"/>
<path d="M117.707 175.653H122.381L132.041 135.944H127.367L117.707 175.653Z" fill="#EDEDED"/>
<path d="M171.306 175.653H166.632L156.972 135.944H161.646L171.306 175.653Z" fill="#EDEDED"/>
<path d="M138.897 164.756H166.527V160.67H138.897V164.756Z" fill="#EDEDED"/>
<path d="M115.907 175.653H120.582L130.242 135.944H125.567L115.907 175.653Z" fill="#EDEDED"/>
<path d="M146.308 175.653H150.982L160.642 135.944H155.968L146.308 175.653Z" fill="#EDEDED"/>
<path d="M144.576 175.653H149.25L158.91 135.944H154.236L144.576 175.653Z" fill="#EDEDED"/>
<path d="M148.316 160.669H120.686V164.755H148.316V160.669Z" fill="#EDEDED"/>
<path d="M162.408 136.992H124.458C123.541 136.992 122.797 136.242 122.797 135.316V135.245C122.797 134.319 123.54 133.569 124.458 133.569H162.408C163.325 133.569 164.069 134.319 164.069 135.245V135.316C164.069 136.242 163.325 136.992 162.408 136.992Z" fill="#EDEDED"/>
<path d="M21.2224 101.323H52.1757C53.2067 101.323 54.1821 101.731 54.8289 102.434L59.1986 107.182C59.6297 107.651 60.2804 107.923 60.9676 107.923H109.287C110.999 107.923 112.386 109.137 112.386 110.636V169.801C112.386 173.033 109.393 175.653 105.701 175.653H22.7492C20.1637 175.653 18.0674 173.818 18.0674 171.555V104.084C18.0678 102.559 19.48 101.323 21.2224 101.323Z" fill="#ADADAD"/>
<path d="M43.9152 65.9888L30.8926 79.1243V129.46H94.7296V65.9888H43.9152Z" fill="#F0F0F0"/>
<path d="M43.9152 79.1243V65.9888L30.8926 79.1243H43.9152Z" fill="#182452"/>
<path d="M10.3628 116.152H96.1316C98.1532 116.152 99.8878 117.412 100.261 119.151L111.451 171.296C111.937 173.559 109.953 175.652 107.321 175.652H21.5531C19.5315 175.652 17.7968 174.392 17.4235 172.654L6.23365 120.509C5.74789 118.245 7.73174 116.152 10.3628 116.152Z" fill="#FF7312"/>
<path d="M12.7514 70.257H12.1923C12.1055 69.9868 11.9978 69.7263 11.8711 69.4767L12.267 69.0774C12.6416 68.6995 12.6416 68.0874 12.267 67.7095L11.3228 66.7567C10.9482 66.3792 10.3413 66.3792 9.96711 66.7567L9.5712 67.156C9.32376 67.0286 9.06547 66.9196 8.79763 66.832V66.268C8.79763 65.7338 8.36831 65.3008 7.8387 65.3008H6.50297C5.97336 65.3008 5.54403 65.7338 5.54403 66.268V66.832C5.27619 66.9196 5.0179 67.0282 4.77046 67.156L4.37456 66.7567C4.00036 66.3792 3.39305 66.3792 3.01886 66.7567L2.07425 67.7095C1.70005 68.0874 1.70005 68.6995 2.07425 69.0774L2.47015 69.4767C2.34339 69.7263 2.23574 69.9864 2.14892 70.257H1.58979C1.06019 70.257 0.630859 70.69 0.630859 71.2242V72.5715C0.630859 73.1057 1.06019 73.5388 1.58979 73.5388H2.14892C2.23574 73.809 2.34339 74.0695 2.47015 74.3191L2.07425 74.7184C1.70005 75.0963 1.70005 75.7084 2.07425 76.0859L3.01886 77.0387C3.39305 77.4161 4.00036 77.4161 4.37456 77.0387L4.77046 76.6393C5.0179 76.7667 5.27619 76.8758 5.54403 76.9633V77.5273C5.54403 78.0615 5.97336 78.4946 6.50297 78.4946H7.8387C8.36831 78.4946 8.79763 78.0615 8.79763 77.5273V76.9633C9.06547 76.8758 9.32376 76.7672 9.5712 76.6393L9.96711 77.0387C10.3417 77.4161 10.9486 77.4161 11.3228 77.0387L12.267 76.0859C12.6416 75.708 12.6416 75.0958 12.267 74.7184L11.8711 74.3191C11.9974 74.0695 12.1055 73.8094 12.1923 73.5388H12.7514C13.281 73.5388 13.7104 73.1057 13.7104 72.5715V71.2242C13.7099 70.69 13.2806 70.257 12.7514 70.257ZM7.17062 75.2819C5.31787 75.2819 3.81544 73.7669 3.81544 71.8977C3.81544 70.0289 5.31743 68.5134 7.17062 68.5134C9.0238 68.5134 10.5258 70.0284 10.5258 71.8977C10.5258 73.7669 9.02337 75.2819 7.17062 75.2819Z" fill="#FFDEC8"/>
<path d="M121.451 93.1203H120.891C120.805 92.8502 120.697 92.5896 120.57 92.34L120.966 91.9407C121.34 91.5628 121.34 90.9507 120.966 90.5728L120.021 89.6205C119.647 89.2426 119.04 89.2426 118.665 89.6205L118.269 90.0198C118.022 89.8919 117.764 89.7833 117.496 89.6958V89.1318C117.496 88.5976 117.067 88.1646 116.537 88.1646H115.201C114.672 88.1646 114.242 88.5976 114.242 89.1318V89.6958C113.974 89.7833 113.716 89.8919 113.469 90.0198L113.073 89.6205C112.699 89.2426 112.091 89.2426 111.717 89.6205L110.772 90.5728C110.398 90.9507 110.398 91.5628 110.772 91.9407L111.168 92.34C111.042 92.5896 110.934 92.8502 110.847 93.1203H110.288C109.758 93.1203 109.329 93.5534 109.329 94.0876V95.4349C109.329 95.9691 109.758 96.4021 110.288 96.4021H110.847C110.934 96.6723 111.042 96.9328 111.168 97.1824L110.772 97.5817C110.398 97.9596 110.398 98.5718 110.772 98.9496L111.717 99.9024C112.091 100.28 112.699 100.28 113.073 99.9024L113.469 99.5031C113.716 99.631 113.974 99.7395 114.242 99.8271V100.391C114.242 100.925 114.672 101.358 115.201 101.358H116.537C117.067 101.358 117.496 100.925 117.496 100.391V99.8271C117.764 99.7395 118.022 99.631 118.269 99.5031L118.665 99.9024C119.04 100.28 119.647 100.28 120.021 99.9024L120.966 98.9496C121.34 98.5718 121.34 97.9596 120.966 97.5817L120.57 97.1824C120.697 96.9328 120.805 96.6727 120.891 96.4021H121.451C121.98 96.4021 122.409 95.9691 122.409 95.4349V94.0876C122.409 93.5529 121.98 93.1203 121.451 93.1203ZM115.87 98.1448C114.017 98.1448 112.515 96.6298 112.515 94.7606C112.515 92.8913 114.017 91.3763 115.87 91.3763C117.723 91.3763 119.225 92.8913 119.225 94.7606C119.225 96.6298 117.722 98.1448 115.87 98.1448Z" fill="#FFDEC8"/>
<path d="M27.8203 60.2532L27.0836 59.9716C27.1032 59.5719 27.0897 59.1743 27.0467 58.7819L27.766 58.4549C28.4463 58.1457 28.7493 57.3392 28.4428 56.653L27.6697 54.9226C27.3632 54.2365 26.5636 53.9308 25.8833 54.24L25.164 54.5671C24.9014 54.2746 24.6149 54.0013 24.3054 53.7509L24.5845 53.0078C24.8489 52.3042 24.4973 51.5173 23.7997 51.2511L22.0398 50.579C21.3422 50.3123 20.5625 50.667 20.2982 51.3706L20.019 52.1137C19.6227 52.094 19.2285 52.1076 18.8396 52.1509L18.5153 51.4254C18.2088 50.7392 17.4088 50.4336 16.729 50.7427L15.0134 51.5226C14.3332 51.8317 14.0302 52.6382 14.3366 53.3244L14.6609 54.0499C14.3709 54.3148 14.0996 54.6038 13.8518 54.916L13.1151 54.6345C12.4175 54.3678 11.6378 54.7225 11.3735 55.4261L10.7071 57.2013C10.4427 57.9049 10.7944 58.6918 11.492 58.958L12.2286 59.2395C12.2091 59.6393 12.2226 60.0369 12.2655 60.4292L11.5462 60.7563C10.866 61.0654 10.563 61.872 10.8695 62.5581L11.6426 64.2886C11.9491 64.9747 12.7487 65.2803 13.4289 64.9712L14.1482 64.6441C14.4109 64.9366 14.6974 65.2103 15.0069 65.4603L14.7278 66.2033C14.4634 66.907 14.815 67.6934 15.5126 67.9601L17.2725 68.6322C17.9701 68.8988 18.7497 68.5442 19.0141 67.8405L19.2932 67.0975C19.6896 67.1172 20.0837 67.1036 20.4727 67.0603L20.797 67.7858C21.1034 68.4719 21.9031 68.7776 22.5833 68.4684L24.2989 67.6886C24.9791 67.3795 25.2821 66.5729 24.9756 65.8868L24.6514 65.1612C24.9413 64.8963 25.2127 64.6073 25.4605 64.2951L26.1972 64.5767C26.8948 64.8433 27.6745 64.4887 27.9388 63.785L28.6052 62.0099C28.8691 61.3063 28.5179 60.5194 27.8203 60.2532ZM17.9814 64.0644C15.54 63.1317 14.3106 60.3793 15.2352 57.9167C16.1599 55.4542 18.8886 54.2141 21.33 55.1468C23.7714 56.0794 25.0008 58.8319 24.0762 61.2944C23.1515 63.7566 20.4228 64.997 17.9814 64.0644Z" fill="#FFDEC8"/>
<path d="M35.9585 27.3903L32.4375 34.9221L39.9974 56.1577L59.7838 48.9911L50.2513 22.2139L35.9585 27.3903Z" fill="#F0F0F0"/>
<path d="M37.9315 32.9308L35.9585 27.3892L32.4375 34.9209L37.9315 32.9308Z" fill="#F4E8D8"/>
<path d="M77.3336 13.2095L70.7426 15.9238L63.2695 33.8623L79.9842 40.9465L89.4073 18.3268L77.3336 13.2095Z" fill="#F0F0F0"/>
<path d="M75.3842 17.8912L77.3341 13.21L70.7432 15.9243L75.3842 17.8912Z" fill="#F4E8D8"/>
<g opacity="0.6">
<path d="M79.6781 82.1544C79.9158 82.1544 80.1047 81.9588 80.0977 81.7198L80.0749 80.9336C80.068 80.6945 79.8679 80.4954 79.6302 80.4911L49.1466 79.9444C48.9089 79.9402 48.7792 80.1212 48.8581 80.3469L49.3471 81.7442C49.4261 81.9698 49.6851 82.1544 49.9228 82.1544H79.6781Z" fill="white"/>
</g>
<g opacity="0.6">
<path d="M49.1466 84.5426C48.9089 84.5383 48.7792 84.7193 48.8581 84.945L49.3471 86.3424C49.4261 86.568 49.6851 86.7526 49.9228 86.7526H79.678C79.9157 86.7526 80.1046 86.557 80.0976 86.3179L80.0748 85.5317C80.0679 85.2926 79.8678 85.0936 79.6301 85.0892L49.1466 84.5426Z" fill="white"/>
</g>
<g opacity="0.6">
<path d="M49.1466 89.2115C48.9089 89.2073 48.7792 89.3883 48.8581 89.614L49.3471 91.0113C49.4261 91.2369 49.6851 91.4215 49.9228 91.4215H79.678C79.9157 91.4215 80.1046 91.2259 80.0976 90.9869L80.0748 90.2007C80.0679 89.9616 79.8678 89.7625 79.6301 89.7582L49.1466 89.2115Z" fill="white"/>
</g>
<g opacity="0.78">
<path d="M64.0849 97.4636C64.3226 97.4636 64.5143 97.2679 64.5108 97.0287L64.4996 96.2429C64.4961 96.0037 64.299 95.8009 64.0615 95.7923L49.4315 95.2615C49.1939 95.2529 49.0329 95.4386 49.0737 95.6743L49.3091 97.0351C49.3499 97.2707 49.5778 97.4636 49.8155 97.4636H64.0849Z" fill="white"/>
</g>
<g opacity="0.78">
<path d="M51.2695 33.9519C51.4902 33.8636 51.5955 33.6107 51.5035 33.3899L51.2013 32.6644C51.1093 32.4436 50.851 32.3285 50.6272 32.4088L36.846 37.348C36.6222 37.4282 36.5416 37.6604 36.6671 37.8641L37.3909 39.0402C37.5162 39.2439 37.7994 39.3383 38.0201 39.2501L51.2695 33.9519Z" fill="white"/>
</g>
<g opacity="0.78">
<path d="M83.6222 28.5337C83.8366 28.6364 84.094 28.5428 84.1943 28.3256L84.5239 27.6121C84.6241 27.3949 84.5341 27.1269 84.3235 27.0164L71.3604 20.2138C71.1499 20.1033 70.9244 20.2012 70.8594 20.4314L70.4834 21.7603C70.4183 21.9903 70.5404 22.2628 70.7548 22.3655L83.6222 28.5337Z" fill="white"/>
</g>
<g opacity="0.78">
<path d="M49.3966 100.694C49.1589 100.694 49.0048 100.886 49.0541 101.12L49.3388 102.471C49.3881 102.705 49.6229 102.889 49.8604 102.88L64.1204 102.355C64.358 102.347 64.5425 102.144 64.5302 101.905L64.4904 101.12C64.4783 100.881 64.2738 100.686 64.0361 100.686L49.3966 100.694Z" fill="white"/>
</g>
<g opacity="0.78">
<path d="M38.8305 42.4046C38.6098 42.493 38.5378 42.7281 38.6705 42.927L39.4366 44.0759C39.5692 44.2749 39.8556 44.3588 40.0729 44.2626L53.1186 38.4802C53.336 38.384 53.432 38.1273 53.3319 37.91L53.0035 37.1961C52.9036 36.9788 52.6412 36.8733 52.4205 36.9616L38.8305 42.4046Z" fill="white"/>
</g>
<g opacity="0.78">
<path d="M68.9817 25.0972C68.7673 24.9945 68.5455 25.1006 68.4888 25.333L68.1615 26.6745C68.1048 26.9068 68.2368 27.1744 68.4548 27.2693L81.5407 32.9598C81.7587 33.0547 82.0126 32.9516 82.1049 32.731L82.4082 32.006C82.5006 31.7853 82.4007 31.5208 82.1863 31.4181L68.9817 25.0972Z" fill="white"/>
</g>
<g opacity="0.78">
<path d="M81.1689 97.4636C81.4066 97.4636 81.5983 97.2679 81.5948 97.0287L81.5836 96.2429C81.5801 96.0037 81.3829 95.8009 81.1454 95.7923L66.5154 95.2615C66.2778 95.2529 66.1169 95.4386 66.1577 95.6743L66.3931 97.0351C66.4339 97.2707 66.6617 97.4636 66.8994 97.4636H81.1689Z" fill="white"/>
</g>
<g opacity="0.78">
<path d="M66.4806 100.694C66.2429 100.694 66.0887 100.886 66.1381 101.12L66.4228 102.471C66.4721 102.705 66.7068 102.889 66.9443 102.88L81.2044 102.355C81.4419 102.347 81.6264 102.144 81.6142 101.905L81.5744 101.12C81.5623 100.881 81.3578 100.686 81.1201 100.686L66.4806 100.694Z" fill="white"/>
</g>
</svg>
