<svg width="173" height="134" viewBox="0 0 173 134" fill="none" xmlns="http://www.w3.org/2000/svg">
<g id="OBJECTS">
<path id="Vector" d="M140.641 133.951H31.5374C20.2194 133.951 11.0446 124.776 11.0446 113.458V112.118H161.134V113.458C161.134 124.776 151.959 133.951 140.641 133.951Z" fill="url(#paint0_radial_8792_4288)"/>
<path id="Vector_2" d="M138.587 48.1794H34.5957L82.0504 1.85451C84.5839 -0.618743 88.6283 -0.618056 91.1613 1.85589L138.587 48.1794Z" fill="#FFE5D2"/>
<path id="Vector_3" d="M34.5957 48.1797L86.5915 83.5915L138.587 48.1797H34.5957Z" fill="#FFE5D2"/>
<path id="Vector_4" d="M116.517 31.4707H55.312V97.8788H116.517V31.4707Z" fill="#F5F5F5"/>
<g id="Group">
<g id="Group_2">
<path id="Vector_5" d="M59.8545 38.8311H111.975" stroke="#E0E0E0" stroke-width="2.1308" stroke-miterlimit="10" stroke-linecap="round" stroke-linejoin="round"/>
<path id="Vector_6" d="M59.8545 46.2588H111.975" stroke="#E0E0E0" stroke-width="2.1308" stroke-miterlimit="10" stroke-linecap="round" stroke-linejoin="round"/>
<path id="Vector_7" d="M59.8545 53.6855H111.975" stroke="#E0E0E0" stroke-width="2.1308" stroke-miterlimit="10" stroke-linecap="round" stroke-linejoin="round"/>
<path id="Vector_8" d="M59.8545 61.1143H111.975" stroke="#E0E0E0" stroke-width="2.1308" stroke-miterlimit="10" stroke-linecap="round" stroke-linejoin="round"/>
<path id="Vector_9" d="M59.8545 68.542H111.975" stroke="#E0E0E0" stroke-width="2.1308" stroke-miterlimit="10" stroke-linecap="round" stroke-linejoin="round"/>
<path id="Vector_10" d="M59.8545 75.9688H111.975" stroke="#E0E0E0" stroke-width="2.1308" stroke-miterlimit="10" stroke-linecap="round" stroke-linejoin="round"/>
<path id="Vector_11" d="M59.8545 83.3965H111.975" stroke="#E0E0E0" stroke-width="2.1308" stroke-miterlimit="10" stroke-linecap="round" stroke-linejoin="round"/>
<path id="Vector_12" d="M59.8545 90.8232H111.975" stroke="#E0E0E0" stroke-width="2.1308" stroke-miterlimit="10" stroke-linecap="round" stroke-linejoin="round"/>
</g>
</g>
<path id="Vector_13" d="M86.5915 83.5915L34.5957 48.1797V111.99H138.587V48.1797L86.5915 83.5915Z" fill="#FF7312"/>
<g id="Group_3">
<path id="Vector_14" d="M151.969 72.3629C151.969 72.3629 153.022 72.2876 153.656 72.3069C154.289 72.3261 154.888 73.1058 154.805 73.835C154.723 74.5641 153.861 74.9139 153.118 74.6026C152.375 74.2914 151.475 73.5079 151.475 73.5079L151.969 72.3629Z" fill="#F6DECD"/>
<path id="Vector_15" d="M153.217 78.2219L153.001 78.1325C152.686 78.0014 152.535 77.6365 152.666 77.3215L154.691 72.4475C154.822 72.1325 155.187 71.9819 155.502 72.1125L155.718 72.202C156.033 72.333 156.183 72.6979 156.053 73.013L154.028 77.8869C153.897 78.2023 153.532 78.3529 153.217 78.2219Z" fill="#FFCCA9"/>
<path id="Vector_16" d="M150.779 75.876C150.779 75.876 151.734 75.4258 152.331 75.2149C152.929 75.0041 153.769 75.5152 153.955 76.2247C154.142 76.9343 153.464 77.5716 152.659 77.5496C151.854 77.5276 150.732 77.1217 150.732 77.1217L150.779 75.876Z" fill="#F6DECD"/>
<path id="Vector_17" d="M144.119 59.2509C144.027 59.1006 145.117 57.0995 145.117 57.0995C145.234 57.1656 147.063 58.023 148.04 55.5274L148.732 52.9671C149.147 51.7713 148.507 50.4536 147.311 50.0392C146.291 49.6856 145.185 50.1004 144.623 50.9716V50.9702C144.623 50.9702 144.62 50.9757 144.619 50.9778C144.571 51.0538 144.526 51.1322 144.486 51.2148C143.825 52.3763 141.449 55.8063 140.174 57.3809C139.107 58.6992 138.544 59.4847 140.328 60.4003C142.112 61.3162 144.576 60.0041 144.119 59.2509Z" fill="#F6DECD"/>
<g id="Group_4">
<path id="Vector_18" d="M148.242 81.9834C148.242 81.9834 158.787 84.8845 159.053 89.2191C159.318 93.5538 148.484 99.1314 145.805 100.262C143.127 101.393 139.903 102.547 139.903 102.547L139.339 101.591C139.339 101.591 149.703 91.2271 151.563 91.0943C153.423 90.9615 154.221 89.4998 150.899 89.1012C147.577 88.7026 143.458 87.3667 143.458 87.3667L148.242 81.9834Z" fill="#F6DECD"/>
<path id="Vector_19" d="M140.174 101.414V102.536C140.174 102.661 140.146 102.784 140.089 102.896C139.969 103.134 139.748 103.626 139.618 104.276C139.454 105.096 140.099 106.643 139.02 107.649C138.824 107.832 138.505 107.7 138.505 107.432V101.726C138.505 101.376 138.83 101.115 139.172 101.191L140.174 101.414Z" fill="#3C3C48"/>
</g>
<g id="Group_5">
<path id="Vector_20" d="M150.339 110.178H151.461C151.586 110.178 151.709 110.206 151.821 110.263C152.059 110.383 152.551 110.604 153.201 110.734C154.021 110.898 155.568 110.253 156.574 111.332C156.757 111.528 156.625 111.847 156.357 111.847H150.652C150.301 111.847 150.04 111.522 150.116 111.18L150.339 110.178Z" fill="#3C3C48"/>
<path id="Vector_21" d="M140.135 89.215C141.044 90.4442 142.004 91.6604 142.63 92.491C142.908 92.86 143.121 93.1538 143.232 93.3374C143.868 94.3833 143.135 98.4033 144.362 100.526C145.59 102.649 150.241 110.608 150.492 110.949C150.743 111.291 151.441 110.451 151.475 110.229C151.496 110.092 149.113 98.9577 147.284 90.4497C146.837 88.3692 146.423 86.4449 146.086 84.8779C144.091 86.3383 142.078 87.7663 140.135 89.215Z" fill="#F6DECD"/>
</g>
<path id="Vector_22" d="M142.455 59.117C144.766 58.0852 146.071 64.2547 147.578 67.1775C149.084 70.1003 152.715 72.2265 152.715 72.2265L151.564 74.1753C151.564 74.1753 145.743 73.1393 143.266 67.972C140.788 62.8047 139.282 60.5344 142.455 59.117Z" fill="#ECECEC"/>
<path id="Vector_23" d="M143.99 57.6163C140.257 55.0657 134.29 62.2622 134.025 72.8919C133.759 83.5213 137.479 89.8467 140.137 92.3309L150.899 81.3954C150.899 81.3954 144.787 79.1509 144.92 71.2379C145.053 63.3253 146.913 59.6139 143.99 57.6163Z" fill="#ECECEC"/>
<path id="Vector_24" d="M141.067 60.5515C136.999 61.4138 134.123 76.9897 150.732 77.1224L151.563 74.6014C151.563 74.6014 144.822 73.4396 143.591 70.1209C142.612 67.4802 144.351 59.8554 141.067 60.5515Z" fill="#ECECEC"/>
<path id="Vector_25" d="M146.923 52.313C146.923 52.313 148.269 53.3741 149.332 53.1746C150.395 52.9754 150.925 51.2991 149.198 50.3691C147.471 49.4391 146.121 48.8733 144.438 49.6619C142.756 50.4506 141.182 54.2373 137.551 55.9646C133.92 57.6918 129.535 61.08 129.535 64.9995C129.535 68.919 131.262 71.4435 134.584 71.643C137.906 71.8425 141.413 67.5904 142.217 63.405C143.021 59.2196 145.008 55.9969 145.568 55.0618C146.576 53.3765 146.923 52.313 146.923 52.313Z" fill="#3C3C48"/>
</g>
<g id="Group_6">
<path id="Vector_26" d="M158.859 111.904L163.523 92.962C163.843 91.6643 165.075 90.8055 166.403 90.9554C167.806 91.1136 168.841 92.3405 168.76 93.7499L167.664 111.937L158.859 111.904Z" stroke="#182452" stroke-width="1.0654" stroke-miterlimit="10"/>
<path id="Vector_27" d="M166.172 92.8701L162.986 111.92" stroke="#182452" stroke-width="1.0654" stroke-miterlimit="10"/>
<path id="Vector_28" d="M163.683 96.7363C163.683 96.7363 163.75 98.736 164.991 99.9322" stroke="#182452" stroke-width="1.0654" stroke-miterlimit="10"/>
<path id="Vector_29" d="M167.347 102.528C167.347 102.528 166.094 104.859 164.311 104.661" stroke="#182452" stroke-width="1.0654" stroke-miterlimit="10"/>
<path id="Vector_30" d="M161.252 106.371C161.252 106.371 161.663 108.324 163.447 109.165" stroke="#182452" stroke-width="1.0654" stroke-miterlimit="10"/>
<path id="Vector_31" d="M167.695 94.4277C167.695 94.4277 167.21 96.2131 165.844 95.776" stroke="#182452" stroke-width="1.0654" stroke-miterlimit="10"/>
</g>
<g id="Group_7">
<path id="Vector_32" d="M5.78239 111.99C5.78239 111.99 5.02092 103.987 8.76089 103.961C11.7394 103.94 13.2286 110.057 13.2286 110.057C13.2286 110.057 15.6114 108.386 17.8752 109.263C20.117 110.131 20.3774 111.99 20.3774 111.99H5.78239Z" fill="white" stroke="#182452" stroke-width="1.0654" stroke-miterlimit="10"/>
</g>
<path id="Vector_33" d="M172.997 111.99H0.00317383" stroke="#182452" stroke-width="1.5" stroke-miterlimit="10"/>
<g id="Group_8">
<path id="Vector_34" d="M43.8174 52.6816L28.4774 112.117" stroke="#FFCCA9" stroke-miterlimit="10"/>
<path id="Vector_35" d="M33.5907 52.6816L18.2511 112.117" stroke="#FFCCA9" stroke-miterlimit="10"/>
<g id="Group_9">
<g id="Group_10">
<path id="Vector_36" d="M32.5885 56.5654H42.8148" stroke="#FFCCA9" stroke-miterlimit="10"/>
<path id="Vector_37" d="M30.8258 63.3818H41.0445" stroke="#FFCCA9" stroke-miterlimit="10"/>
<path id="Vector_38" d="M29.0631 70.1982H39.2743" stroke="#FFCCA9" stroke-miterlimit="10"/>
<path id="Vector_39" d="M27.3009 77.0127H37.5041" stroke="#FFCCA9" stroke-miterlimit="10"/>
<path id="Vector_40" d="M25.5381 83.8301H35.7338" stroke="#FFCCA9" stroke-miterlimit="10"/>
<path id="Vector_41" d="M23.7755 90.6445H33.9636" stroke="#FFCCA9" stroke-miterlimit="10"/>
<path id="Vector_42" d="M22.0127 97.4619H32.1932" stroke="#FFCCA9" stroke-miterlimit="10"/>
<path id="Vector_43" d="M20.2505 104.277H30.4231" stroke="#FFCCA9" stroke-miterlimit="10"/>
</g>
</g>
</g>
<g id="Group_11">
<path id="Vector_44" d="M36.8163 20.1108C36.9216 21.2107 35.2308 21.5227 35.2308 21.5227L34.4105 25.197C34.4105 25.197 38.136 29.4143 37.218 32.1053C36.3001 34.7963 22.7393 33.954 22.5388 30.4561C22.2279 25.0388 27.5238 24.4296 28.0855 22.3856C29.0103 19.0195 30.8442 17.8684 32.98 18.1555C35.1407 18.4458 36.6241 18.0984 36.8163 20.1108Z" fill="#3C3C48"/>
<path id="Vector_45" d="M32.2309 28.4081C32.0971 28.2798 32.0052 28.102 31.9416 27.9011L31.9822 25.9169C32.1198 25.9524 32.2615 25.9781 32.4076 25.9888C33.739 26.0861 34.9077 25.0767 35.0051 23.7453L35.2238 20.7513C35.3211 19.42 34.3117 18.2513 32.9803 18.1539C31.845 18.071 30.8303 18.7943 30.495 19.8344L30.4947 19.833C30.4947 19.833 30.4929 19.8396 30.4923 19.842C30.4634 19.9324 30.4386 20.0249 30.4207 20.1199C30.063 21.4829 28.4534 27.3106 26.9562 27.8103C25.2599 28.3764 23.6434 29.2232 23.6434 29.2232C23.6434 29.2232 26.6147 30.1618 28.6814 30.61C30.7481 31.0581 35.5055 31.0237 35.5055 31.0237C35.5055 31.0237 32.9019 29.0512 32.2309 28.4081Z" fill="#F6DECD"/>
<g id="Group_12">
<path id="Vector_46" d="M53.6519 29.3953L60.6469 26.9971L59.0863 22.4454L52.0914 24.8436L53.6519 29.3953Z" fill="#FF7312"/>
<path id="Vector_47" d="M59.0862 22.7217L56.6095 26.6512L52.3237 25.0405L56.8025 27.2132L59.0862 22.7217Z" fill="#FFCCA9"/>
</g>
<path id="Vector_48" d="M51.3633 29.3388C51.3633 29.3388 51.8001 28.5856 52.1069 28.1625C52.4137 27.7395 53.2233 27.6924 53.6824 28.0869C54.1416 28.481 53.9803 29.2315 53.4235 29.594C52.8666 29.9565 51.9149 30.2069 51.9149 30.2069L51.3633 29.3388Z" fill="#F6DECD"/>
<path id="Vector_49" d="M6.44623 76.0254L7.1912 76.5231C7.27443 76.5788 7.34391 76.652 7.39274 76.7394C7.49661 76.9248 7.72602 77.2901 8.09953 77.6643C8.57141 78.1372 9.88457 78.3951 10.0741 79.5576C10.1085 79.7685 9.87941 79.9222 9.70194 79.8035L5.91347 77.2725C5.68028 77.1167 5.65139 76.7855 5.85397 76.5915L6.44623 76.0254Z" fill="#3C3C48"/>
<path id="Vector_50" d="M18.0305 60.8496C17.4846 61.9416 16.9674 63.0656 16.6028 63.8116C16.4408 64.1432 16.3087 64.4008 16.2186 64.5469C15.7044 65.3779 12.578 66.3124 11.5122 67.955C10.446 69.5977 6.46729 75.7906 6.31493 76.0929C6.16256 76.3952 7.01346 76.5875 7.18405 76.5314C7.2893 76.4967 14.3496 70.7677 19.7419 66.3846C21.0605 65.3129 22.2798 64.321 23.2727 63.5131C21.5104 62.6226 19.7649 61.707 18.0305 60.8496Z" fill="#F6DECD"/>
<path id="Vector_51" d="M29.3813 82.5371L30.2701 82.6489C30.3695 82.6613 30.4644 82.696 30.5473 82.7524C30.723 82.8718 31.0917 83.096 31.5932 83.2635C32.2271 83.4754 33.5165 83.1187 34.2061 84.0738C34.3313 84.2472 34.1951 84.4869 33.9832 84.4601L29.5877 83.9067C29.2455 83.8637 29.0312 83.5146 29.1475 83.1899L29.3813 82.5371Z" fill="#3C3C48"/>
<path id="Vector_52" d="M25.7087 63.7343C26.3629 65.3718 27.1065 67.0113 27.2657 67.5458C27.3074 67.6861 27.3087 67.8756 27.2881 68.0961C27.1705 69.3477 26.2415 71.7219 26.6821 73.3274C27.2004 75.2159 29.1808 82.3055 29.3053 82.6202C29.4298 82.9353 30.1796 83.2486 30.2652 82.5202C30.2652 82.5202 30.6037 74.5136 30.9018 67.8891C31.0081 65.529 31.1075 63.2996 31.1835 61.5898C29.3469 62.3131 27.5027 63.0086 25.7087 63.7343Z" fill="#F6DECD"/>
<path id="Vector_53" d="M9.12378 48.5392C9.12378 48.5392 8.76815 49.334 8.50745 49.787C8.24674 50.24 7.4464 50.3713 6.94838 50.0274C6.45036 49.6835 6.53222 48.9203 7.04812 48.5017C7.56403 48.0831 8.48406 47.7344 8.48406 47.7344L9.12378 48.5392Z" fill="#F6DECD"/>
<path id="Vector_54" d="M23.2725 41.7988L23.3379 41.8099C23.3168 41.8103 23.295 41.8068 23.2725 41.7988Z" fill="#182452"/>
<path id="Vector_55" d="M52.2498 30.2461L51.5842 29.4987C51.393 29.2841 51.0697 29.25 50.8382 29.4206C50.8382 29.4206 43.2266 36.2942 42.5707 35.8966C40.42 34.5921 35.2132 30.3018 34.312 29.7491C33.1344 29.0265 32.6247 30.9133 30.4971 30.4855C28.2784 30.039 26.376 28.1109 26.376 28.1109C26.0655 27.9469 25.791 28.0325 25.6128 28.0775C24.6237 28.1608 23.6937 29.0726 23.6937 29.0726L8.1821 47.6307C7.99706 47.8742 8.05828 48.2237 8.31486 48.3898L8.74684 48.6694C8.95114 48.8018 9.21872 48.7774 9.39448 48.6092C10.5398 47.5141 19.8247 41.3645 23.8925 34.2058C23.6383 38.1336 24.1102 41.5176 23.3198 42.8056C23.3198 42.8056 13.1805 58.8104 14.1773 62.8513C14.5838 64.4988 20.6842 66.537 24.1934 66.5421C28.644 66.5486 36.5542 65.5457 36.0682 63.7965L30.8128 43.0811C30.8128 43.0811 30.9067 41.5798 31.7525 40.7492C32.8015 39.7188 34.5607 34.6461 34.5607 34.6461C34.5607 34.6461 40.2188 39.1644 43.3328 39.0044C47.0054 38.816 52.2477 30.9873 52.2477 30.9873C52.4375 30.7768 52.4379 30.4576 52.2498 30.2461Z" fill="#3C3C48"/>
<path id="Vector_56" d="M36.6784 20.8054C36.6784 20.8054 36.7176 21.8008 34.2584 21.7031C31.7993 21.6054 31.305 20.6527 30.8696 23.1263C30.4345 25.6003 28.2619 32.0216 25.2118 32.1316C22.1618 32.2417 21.9974 29.3605 22.9099 27.8187C23.8223 26.2768 27.9702 25.3605 28.8875 23.2164C29.8048 21.0723 29.5173 18.0722 32.1229 18.1117C34.7279 18.1516 36.6784 18.9389 36.6784 20.8054Z" fill="#3C3C48"/>
</g>
</g>
<defs>
<radialGradient id="paint0_radial_8792_4288" cx="0" cy="0" r="1" gradientUnits="userSpaceOnUse" gradientTransform="translate(86.9537 111.435) rotate(-1.25483) scale(67.137 14.7395)">
<stop stop-color="#FF7312"/>
<stop offset="0.999" stop-color="white"/>
</radialGradient>
</defs>
</svg>
