<svg width="24" height="24" viewBox="0 0 24 24" fill="none" xmlns="http://www.w3.org/2000/svg">
<path d="M12.1816 22C12.6638 22 13.1263 21.8084 13.4673 21.4675C13.8082 21.1265 13.9998 20.664 13.9998 20.1818H10.3634C10.3634 20.664 10.555 21.1265 10.896 21.4675C11.237 21.8084 11.6994 22 12.1816 22ZM4.9089 18.3636H19.4544C19.6341 18.3636 19.8098 18.3103 19.9593 18.2104C20.1088 18.1105 20.2253 17.9685 20.2941 17.8024C20.3628 17.6363 20.3809 17.4536 20.3458 17.2772C20.3107 17.1009 20.2242 16.939 20.0971 16.8118L18.5453 15.26V10.1818C18.5423 8.65318 17.9897 7.17658 16.9883 6.02163C15.9869 4.86667 14.6035 4.11041 13.0907 3.89091V2.90909C13.0907 2.66799 12.9949 2.43675 12.8244 2.26627C12.654 2.09578 12.4227 2 12.1816 2C11.9405 2 11.7093 2.09578 11.5388 2.26627C11.3683 2.43675 11.2725 2.66799 11.2725 2.90909V3.89091C9.75973 4.11041 8.37634 4.86667 7.37493 6.02163C6.37353 7.17658 5.82091 8.65318 5.81799 10.1818V15.26L4.26617 16.8118C4.13907 16.939 4.05252 17.1009 4.01746 17.2772C3.9824 17.4536 4.0004 17.6363 4.06919 17.8024C4.13798 17.9685 4.25447 18.1105 4.40393 18.2104C4.5534 18.3103 4.72912 18.3636 4.9089 18.3636ZM7.36981 16.2791C7.54031 16.1086 7.63612 15.8774 7.63617 15.6364V10.1818C7.63617 8.97629 8.11506 7.82013 8.9675 6.9677C9.81994 6.11526 10.9761 5.63636 12.1816 5.63636C13.3872 5.63636 14.5433 6.11526 15.3957 6.9677C16.2482 7.82013 16.7271 8.97629 16.7271 10.1818V15.6364C16.7271 15.8774 16.8229 16.1086 16.9934 16.2791L17.2598 16.5455H7.10344L7.36981 16.2791Z" fill="#0A1233"/>
</svg>
