<svg width="24" height="24" viewBox="0 0 24 24" fill="none" xmlns="http://www.w3.org/2000/svg">
    <g id="Notification">
    <path id="39-Notification" d="M18.2674 15.6692C18.125 15.4149 17.9521 15.1607 17.7589 14.8912C17.2991 14.317 16.9804 13.643 16.8284 12.9233L16.6148 9.92313C16.4877 7.59928 15.13 5.25 12.4298 5.25H11.3009C8.60081 5.25 7.23294 7.59928 7.09564 9.91804L6.88207 12.9233C6.73069 13.6494 6.41207 14.3301 5.95152 14.9115C5.77863 15.1759 5.60573 15.42 5.48878 15.6489C5.36326 15.8173 5.28724 16.0175 5.26927 16.2268C5.25131 16.4361 5.2921 16.6463 5.38708 16.8337C5.49789 17.0305 5.66113 17.1926 5.85864 17.3022C6.05614 17.4117 6.28017 17.4643 6.50578 17.454H10.4314C10.3478 17.6845 10.3209 17.9316 10.3531 18.1746C10.3852 18.4176 10.4755 18.6493 10.6162 18.85C10.7568 19.0508 10.9438 19.2147 11.1613 19.3278C11.3787 19.4409 11.6203 19.5 11.8654 19.5C12.1105 19.5 12.352 19.4409 12.5695 19.3278C12.7869 19.2147 12.9739 19.0508 13.1146 18.85C13.2553 18.6493 13.3455 18.4176 13.3777 18.1746C13.4099 17.9316 13.383 17.6845 13.2994 17.454H17.225C17.4527 17.4623 17.6781 17.4067 17.8758 17.2934C18.0736 17.1802 18.2356 17.0139 18.3437 16.8133C18.4387 16.6344 18.482 16.4325 18.4685 16.2304C18.455 16.0283 18.3854 15.8339 18.2674 15.6692ZM12.3739 17.9625C12.3739 18.0631 12.3441 18.1614 12.2882 18.245C12.2323 18.3287 12.1529 18.3938 12.06 18.4323C11.9671 18.4708 11.8648 18.4809 11.7662 18.4613C11.6675 18.4416 11.5769 18.3932 11.5058 18.3221C11.4347 18.251 11.3863 18.1604 11.3667 18.0617C11.347 17.9631 11.3571 17.8609 11.3956 17.7679C11.4341 17.675 11.4993 17.5956 11.5829 17.5397C11.6665 17.4839 11.7648 17.454 11.8654 17.454C12.0002 17.454 12.1296 17.5076 12.225 17.603C12.3203 17.6983 12.3739 17.8277 12.3739 17.9625ZM17.4589 16.3506C17.4589 16.3913 17.3725 16.437 17.2453 16.437H6.50578C6.37866 16.437 6.31255 16.3913 6.29221 16.3506C6.27187 16.3099 6.29221 16.254 6.34306 16.1726C6.48036 15.9387 6.63799 15.6946 6.80071 15.4505C7.30921 14.7183 7.81772 13.8844 7.89399 12.9945L8.11265 9.98923C8.21943 8.2705 9.11948 6.267 11.3009 6.267H12.4298C14.6113 6.267 15.5113 8.2705 15.6181 9.99432L15.8368 12.9945C15.8978 13.8945 16.4419 14.7183 16.9504 15.4505C17.1131 15.6946 17.2708 15.959 17.4335 16.2184C17.4497 16.2358 17.4606 16.2575 17.4651 16.2808C17.4696 16.3042 17.4675 16.3284 17.4589 16.3506Z" fill="#868686"/>
    </g>
    </svg>