<svg width="16" height="16" viewBox="0 0 16 16" fill="none" xmlns="http://www.w3.org/2000/svg">
<g id="Open Envelope">
<g id="Group 1000001931">
<path id="Vector" d="M13.9684 15H2.06335C1.47796 15 1 14.522 1 13.9367V7.34829C1 7.03477 1.13813 6.73878 1.3771 6.53488L7.87996 1.04933C7.9567 0.983556 8.07509 0.983556 8.15402 1.04933L14.6547 6.53488C14.8937 6.73659 15.0318 7.03477 15.0318 7.34829V13.9367C15.0318 14.522 14.5538 15 13.9684 15ZM8.0159 1.49002L1.65116 6.85937C1.50646 6.97995 1.42534 7.15754 1.42534 7.3461V13.9345C1.42534 14.2853 1.71036 14.5725 2.06335 14.5725H13.9684C14.3192 14.5725 14.6065 14.2874 14.6065 13.9345V7.34829C14.6065 7.15974 14.5231 6.98215 14.3806 6.86156L8.0159 1.49002Z" fill="#121212"/>
<path id="Vector_2" d="M14.5231 14.794C14.4815 14.794 14.4376 14.7809 14.4025 14.7546L9.35986 11.2291C9.33688 11.2132 9.31729 11.1929 9.3022 11.1693C9.2871 11.1458 9.27682 11.1196 9.27193 11.092C9.26703 11.0645 9.26764 11.0363 9.2737 11.009C9.27976 10.9818 9.29116 10.956 9.30724 10.9331C9.3752 10.8366 9.50675 10.8125 9.60322 10.8805L14.6437 14.406C14.7402 14.4739 14.7643 14.6055 14.6963 14.7019C14.6547 14.7611 14.5889 14.794 14.5231 14.794ZM1.50644 14.794C1.46112 14.7945 1.41685 14.7804 1.38014 14.7538C1.34342 14.7273 1.31619 14.6896 1.30245 14.6465C1.28871 14.6033 1.28918 14.5568 1.3038 14.5139C1.31842 14.471 1.34641 14.434 1.38366 14.4082L6.42414 10.8827C6.447 10.8666 6.47281 10.8552 6.50009 10.8491C6.52737 10.8431 6.55557 10.8425 6.58309 10.8474C6.6106 10.8522 6.63687 10.8625 6.66039 10.8776C6.68391 10.8927 6.70421 10.9123 6.72012 10.9353C6.78809 11.0318 6.76397 11.1633 6.66751 11.2313L1.62922 14.7546C1.59194 14.7809 1.55029 14.794 1.50644 14.794Z" fill="#121212"/>
<path id="Vector_3" d="M8.01596 12.3985C7.96992 12.3985 7.92388 12.3832 7.88661 12.3547L1.15135 7.17608C1.10711 7.14139 1.07821 7.09076 1.07083 7.03503C1.06345 6.9793 1.07819 6.9229 1.11188 6.8779C1.18424 6.78582 1.31798 6.76828 1.41006 6.83844L8.01596 11.9162L14.6197 6.83844C14.6418 6.82125 14.6671 6.80863 14.6941 6.8013C14.7211 6.79398 14.7493 6.7921 14.777 6.79577C14.8048 6.79944 14.8315 6.80859 14.8557 6.82269C14.8799 6.83679 14.901 6.85556 14.9179 6.8779C14.9902 6.96998 14.9727 7.10372 14.8784 7.17608L8.14532 12.3547C8.10586 12.3832 8.05981 12.3985 8.01596 12.3985Z" fill="#121212"/>
</g>
</g>
</svg>
