<svg width="24" height="24" viewBox="0 0 24 24" fill="none" xmlns="http://www.w3.org/2000/svg">
<g id="Pending">
<g id="5">
<path id="Vector" d="M12 4C10.4178 4 8.87103 4.46919 7.55544 5.34824C6.23985 6.22729 5.21447 7.47672 4.60897 8.93853C4.00347 10.4003 3.84504 12.0089 4.15372 13.5607C4.4624 15.1126 5.22433 16.538 6.34315 17.6569C7.46197 18.7757 8.88743 19.5376 10.4393 19.8463C11.9911 20.155 13.5997 19.9965 15.0615 19.391C16.5233 18.7855 17.7727 17.7602 18.6518 16.4446C19.5308 15.129 20 13.5822 20 12C20 10.9494 19.7931 9.90914 19.391 8.93853C18.989 7.96793 18.3997 7.08601 17.6569 6.34315C16.914 5.60028 16.0321 5.011 15.0615 4.60896C14.0909 4.20693 13.0506 4 12 4ZM12 18.4C10.7342 18.4 9.49683 18.0246 8.44435 17.3214C7.39188 16.6182 6.57157 15.6186 6.08717 14.4492C5.60277 13.2797 5.47603 11.9929 5.72298 10.7514C5.96992 9.50994 6.57946 8.36957 7.47452 7.47452C8.36958 6.57946 9.50995 5.96992 10.7514 5.72297C11.9929 5.47603 13.2797 5.60277 14.4492 6.08717C15.6186 6.57157 16.6182 7.39187 17.3214 8.44435C18.0246 9.49682 18.4 10.7342 18.4 12C18.4 13.6974 17.7257 15.3252 16.5255 16.5255C15.3253 17.7257 13.6974 18.4 12 18.4Z" fill="url(#paint0_linear_7146_235)"/>
<path id="Vector_2" d="M12 7.2002C11.7878 7.2002 11.5843 7.28448 11.4343 7.43451C11.2842 7.58454 11.2 7.78802 11.2 8.0002V11.6722L9.03195 13.8322C8.94821 13.9039 8.88019 13.9922 8.83217 14.0914C8.78416 14.1907 8.75717 14.2988 8.75292 14.409C8.74866 14.5191 8.76722 14.629 8.80744 14.7317C8.84766 14.8343 8.90867 14.9275 8.98663 15.0055C9.0646 15.0835 9.15784 15.1445 9.2605 15.1847C9.36316 15.2249 9.47302 15.2435 9.5832 15.2392C9.69337 15.235 9.80148 15.208 9.90073 15.16C9.99998 15.112 10.0882 15.0439 10.16 14.9602L12.56 12.5602C12.7107 12.4125 12.7969 12.2112 12.8 12.0002V8.0002C12.8 7.78802 12.7157 7.58454 12.5656 7.43451C12.4156 7.28448 12.2121 7.2002 12 7.2002Z" fill="url(#paint1_linear_7146_235)"/>
</g>
</g>
<defs>
<linearGradient id="paint0_linear_7146_235" x1="12" y1="4.20513" x2="12" y2="19.3846" gradientUnits="userSpaceOnUse">
<stop stop-color="#109b4f"/>
<stop offset="1" stop-color="#109b4f"/>
</linearGradient>
<linearGradient id="paint1_linear_7146_235" x1="10.7761" y1="7.30327" x2="10.7761" y2="14.9306" gradientUnits="userSpaceOnUse">
<stop stop-color="#109b4f"/>
<stop offset="1" stop-color="#109b4f"/>
</linearGradient>
</defs>
</svg>
