<svg width="24" height="24" viewBox="0 0 24 24" fill="none" xmlns="http://www.w3.org/2000/svg">
<path d="M17.7647 20H6.23529C5.90767 20 5.59347 19.8796 5.36181 19.6653C5.13015 19.4509 5 19.1602 5 18.8571V5.14286C5 4.83976 5.13015 4.54907 5.36181 4.33474C5.59347 4.12041 5.90767 4 6.23529 4H14.1296C14.2919 3.99966 14.4526 4.02908 14.6025 4.08655C14.7525 4.14403 14.8886 4.22842 15.003 4.33486L18.6381 7.69791C18.7532 7.80373 18.8444 7.92964 18.9066 8.06834C18.9687 8.20704 19.0005 8.35577 19 8.50591V18.8571C19 19.1602 18.8698 19.4509 18.6382 19.6653C18.4065 19.8796 18.0923 20 17.7647 20ZM6.23529 4.76191C6.12609 4.76191 6.02135 4.80204 5.94413 4.87349C5.86691 4.94493 5.82353 5.04183 5.82353 5.14286V18.8571C5.82353 18.9582 5.86691 19.0551 5.94413 19.1265C6.02135 19.198 6.12609 19.2381 6.23529 19.2381H17.7647C17.8739 19.2381 17.9786 19.198 18.0559 19.1265C18.1331 19.0551 18.1765 18.9582 18.1765 18.8571V8.50591C18.1764 8.40488 18.133 8.308 18.0558 8.23657L14.4208 4.87353C14.3436 4.80208 14.2388 4.76193 14.1296 4.76191H6.23529Z" fill="#CCD4F2"/>
<path d="M18.5885 8.57135H15.2944C14.9668 8.57135 14.6526 8.45094 14.4209 8.23661C14.1892 8.02228 14.0591 7.73159 14.0591 7.42849V4.38087C14.0591 4.30554 14.0833 4.2319 14.1285 4.16927C14.1738 4.10664 14.2381 4.05782 14.3133 4.02899C14.3885 4.00017 14.4713 3.99262 14.5512 4.00732C14.631 4.02201 14.7044 4.05828 14.762 4.11154L18.8796 7.92106C18.9372 7.97434 18.9764 8.04221 18.9923 8.1161C19.0081 8.18998 19 8.26657 18.9688 8.33617C18.9377 8.40577 18.8849 8.46526 18.8172 8.50712C18.7495 8.54898 18.6699 8.57133 18.5885 8.57135ZM14.8826 5.30049V7.42849C14.8826 7.52952 14.926 7.62642 15.0032 7.69786C15.0804 7.76931 15.1852 7.80944 15.2944 7.80944H17.5945L14.8826 5.30049Z" fill="#CCD4F2"/>
<path d="M8.70582 10.4763C8.59662 10.4763 8.49191 10.4362 8.4147 10.3647L7.59117 9.60282C7.51617 9.53097 7.47466 9.43474 7.4756 9.33486C7.47654 9.23497 7.51984 9.13943 7.59619 9.0688C7.67253 8.99816 7.77581 8.9581 7.88377 8.95723C7.99174 8.95636 8.09575 8.99476 8.17341 9.06415L8.70582 9.55673L10.0618 8.30225C10.1394 8.23286 10.2434 8.19446 10.3514 8.19533C10.4594 8.19619 10.5626 8.23626 10.639 8.30689C10.7153 8.37752 10.7586 8.47307 10.7596 8.57295C10.7605 8.67284 10.719 8.76907 10.644 8.84092L8.99694 10.3647C8.91973 10.4362 8.81502 10.4763 8.70582 10.4763Z" fill="white"/>
<path d="M16.1178 10.0949H12.0001C11.8909 10.0949 11.7862 10.0548 11.709 9.98333C11.6318 9.91189 11.5884 9.81499 11.5884 9.71396C11.5884 9.61293 11.6318 9.51603 11.709 9.44459C11.7862 9.37314 11.8909 9.33301 12.0001 9.33301H16.1178C16.227 9.33301 16.3317 9.37314 16.409 9.44459C16.4862 9.51603 16.5296 9.61293 16.5296 9.71396C16.5296 9.81499 16.4862 9.91189 16.409 9.98333C16.3317 10.0548 16.227 10.0949 16.1178 10.0949Z" fill="#CCD4F2"/>
<path d="M8.70582 13.9051C8.59662 13.905 8.49191 13.8649 8.4147 13.7934L7.59117 13.0315C7.51617 12.9597 7.47466 12.8635 7.4756 12.7636C7.47654 12.6637 7.51984 12.5681 7.59619 12.4975C7.67253 12.4269 7.77581 12.3868 7.88377 12.3859C7.99174 12.3851 8.09575 12.4235 8.17341 12.4929L8.70582 12.9854L10.0618 11.731C10.1394 11.6616 10.2434 11.6232 10.3514 11.624C10.4594 11.6249 10.5626 11.665 10.639 11.7356C10.7153 11.8062 10.7586 11.9018 10.7596 12.0017C10.7605 12.1016 10.719 12.1978 10.644 12.2696L8.99694 13.7934C8.91973 13.8649 8.81502 13.905 8.70582 13.9051Z" fill="white"/>
<path d="M16.1178 13.5236H12.0001C11.8909 13.5236 11.7862 13.4835 11.709 13.412C11.6318 13.3406 11.5884 13.2437 11.5884 13.1427C11.5884 13.0416 11.6318 12.9447 11.709 12.8733C11.7862 12.8019 11.8909 12.7617 12.0001 12.7617H16.1178C16.227 12.7617 16.3317 12.8019 16.409 12.8733C16.4862 12.9447 16.5296 13.0416 16.5296 13.1427C16.5296 13.2437 16.4862 13.3406 16.409 13.412C16.3317 13.4835 16.227 13.5236 16.1178 13.5236Z" fill="#CCD4F2"/>
<path d="M8.70582 17.3338C8.59662 17.3337 8.49191 17.2936 8.4147 17.2221L7.59117 16.4602C7.51617 16.3884 7.47466 16.2922 7.4756 16.1923C7.47654 16.0924 7.51984 15.9968 7.59619 15.9262C7.67253 15.8556 7.77581 15.8155 7.88377 15.8147C7.99174 15.8138 8.09575 15.8522 8.17341 15.9216L8.70582 16.4141L10.0618 15.1597C10.1394 15.0903 10.2434 15.0519 10.3514 15.0527C10.4594 15.0536 10.5626 15.0937 10.639 15.1643C10.7153 15.2349 10.7586 15.3305 10.7596 15.4304C10.7605 15.5303 10.719 15.6265 10.644 15.6983L8.99694 17.2221C8.91973 17.2936 8.81502 17.3337 8.70582 17.3338Z" fill="white"/>
<path d="M16.1178 16.9523H12.0001C11.8909 16.9523 11.7862 16.9122 11.709 16.8408C11.6318 16.7693 11.5884 16.6724 11.5884 16.5714C11.5884 16.4703 11.6318 16.3735 11.709 16.302C11.7862 16.2306 11.8909 16.1904 12.0001 16.1904H16.1178C16.227 16.1904 16.3317 16.2306 16.409 16.302C16.4862 16.3735 16.5296 16.4703 16.5296 16.5714C16.5296 16.6724 16.4862 16.7693 16.409 16.8408C16.3317 16.9122 16.227 16.9523 16.1178 16.9523Z" fill="#CCD4F2"/>
</svg>
