<svg width="24" height="24" viewBox="0 0 24 24" fill="none" xmlns="http://www.w3.org/2000/svg">
<path d="M17.7647 20H6.23529C5.90767 20 5.59347 19.8796 5.36181 19.6653C5.13015 19.4509 5 19.1602 5 18.8571V5.14286C5 4.83976 5.13015 4.54907 5.36181 4.33474C5.59347 4.12041 5.90767 4 6.23529 4H14.1296C14.2919 3.99966 14.4526 4.02908 14.6025 4.08655C14.7525 4.14403 14.8886 4.22842 15.003 4.33486L18.6381 7.69791C18.7532 7.80373 18.8444 7.92964 18.9066 8.06834C18.9687 8.20704 19.0005 8.35577 19 8.50591V18.8571C19 19.1602 18.8698 19.4509 18.6382 19.6653C18.4065 19.8796 18.0923 20 17.7647 20ZM6.23529 4.76191C6.12609 4.76191 6.02135 4.80204 5.94413 4.87349C5.86691 4.94493 5.82353 5.04183 5.82353 5.14286V18.8571C5.82353 18.9582 5.86691 19.0551 5.94413 19.1265C6.02135 19.198 6.12609 19.2381 6.23529 19.2381H17.7647C17.8739 19.2381 17.9786 19.198 18.0559 19.1265C18.1331 19.0551 18.1765 18.9582 18.1765 18.8571V8.50591C18.1764 8.40488 18.133 8.308 18.0558 8.23657L14.4208 4.87353C14.3436 4.80208 14.2388 4.76193 14.1296 4.76191H6.23529Z" fill="#FF7312"/>
<path d="M18.5885 8.57135H15.2944C14.9668 8.57135 14.6526 8.45094 14.4209 8.23661C14.1892 8.02228 14.0591 7.73159 14.0591 7.42849V4.38087C14.0591 4.30554 14.0833 4.2319 14.1285 4.16927C14.1738 4.10664 14.2381 4.05782 14.3133 4.02899C14.3885 4.00017 14.4713 3.99262 14.5512 4.00732C14.631 4.02201 14.7044 4.05828 14.762 4.11154L18.8796 7.92106C18.9372 7.97434 18.9764 8.04221 18.9923 8.1161C19.0081 8.18998 19 8.26657 18.9688 8.33617C18.9377 8.40577 18.8849 8.46526 18.8172 8.50712C18.7495 8.54898 18.6699 8.57133 18.5885 8.57135ZM14.8826 5.30049V7.42849C14.8826 7.52952 14.926 7.62642 15.0032 7.69786C15.0804 7.76931 15.1852 7.80944 15.2944 7.80944H17.5945L14.8826 5.30049Z" fill="#FF7312"/>
<path d="M5.5 4.5H14.5V8L18.5 8.5V19.5H5.5V4.5Z" fill="#FF7312"/>
<path d="M8.23023 11.281C8.12104 11.281 8.01632 11.2409 7.93912 11.1694L7.11559 10.4075C7.04058 10.3357 6.99908 10.2394 7.00002 10.1395C7.00095 10.0397 7.04426 9.94411 7.1206 9.87348C7.19695 9.80285 7.30022 9.76279 7.40819 9.76192C7.51615 9.76105 7.62016 9.79945 7.69782 9.86884L8.23023 10.3614L9.58617 9.10694C9.66383 9.03754 9.76785 8.99915 9.87581 9.00001C9.98377 9.00088 10.087 9.04095 10.1634 9.11158C10.2397 9.18221 10.283 9.27776 10.284 9.37764C10.2849 9.47753 10.2434 9.57376 10.1684 9.6456L8.52135 11.1694C8.44415 11.2409 8.33943 11.281 8.23023 11.281Z" fill="#182452"/>
<path d="M15.6417 10.9006H11.5241C11.4149 10.9006 11.3101 10.8604 11.2329 10.789C11.1557 10.7176 11.1123 10.6207 11.1123 10.5196C11.1123 10.4186 11.1557 10.3217 11.2329 10.2502C11.3101 10.1788 11.4149 10.1387 11.5241 10.1387H15.6417C15.7509 10.1387 15.8557 10.1788 15.9329 10.2502C16.0101 10.3217 16.0535 10.4186 16.0535 10.5196C16.0535 10.6207 16.0101 10.7176 15.9329 10.789C15.8557 10.8604 15.7509 10.9006 15.6417 10.9006Z" fill="#182452"/>
<path d="M8.23023 14.7088C8.12104 14.7087 8.01632 14.6686 7.93912 14.5971L7.11559 13.8352C7.04058 13.7634 6.99908 13.6672 7.00002 13.5673C7.00095 13.4674 7.04426 13.3718 7.1206 13.3012C7.19695 13.2306 7.30022 13.1905 7.40819 13.1897C7.51615 13.1888 7.62016 13.2272 7.69782 13.2966L8.23023 13.7891L9.58617 12.5347C9.66383 12.4653 9.76785 12.4269 9.87581 12.4277C9.98377 12.4286 10.087 12.4687 10.1634 12.5393C10.2397 12.6099 10.283 12.7055 10.284 12.8054C10.2849 12.9053 10.2434 13.0015 10.1684 13.0733L8.52135 14.5971C8.44415 14.6686 8.33943 14.7087 8.23023 14.7088Z" fill="#182452"/>
<path d="M15.6417 14.3283H11.5241C11.4149 14.3283 11.3101 14.2882 11.2329 14.2167C11.1557 14.1453 11.1123 14.0484 11.1123 13.9474C11.1123 13.8463 11.1557 13.7494 11.2329 13.678C11.3101 13.6065 11.4149 13.5664 11.5241 13.5664H15.6417C15.7509 13.5664 15.8557 13.6065 15.9329 13.678C16.0101 13.7494 16.0535 13.8463 16.0535 13.9474C16.0535 14.0484 16.0101 14.1453 15.9329 14.2167C15.8557 14.2882 15.7509 14.3283 15.6417 14.3283Z" fill="#182452"/>
<path d="M8.23023 18.1385C8.12104 18.1384 8.01632 18.0983 7.93912 18.0268L7.11559 17.2649C7.04058 17.1931 6.99908 17.0969 7.00002 16.997C7.00095 16.8971 7.04426 16.8015 7.1206 16.7309C7.19695 16.6603 7.30022 16.6202 7.40819 16.6193C7.51615 16.6185 7.62016 16.6569 7.69782 16.7263L8.23023 17.2188L9.58617 15.9644C9.66383 15.895 9.76785 15.8566 9.87581 15.8574C9.98377 15.8583 10.087 15.8984 10.1634 15.969C10.2397 16.0396 10.283 16.1352 10.284 16.2351C10.2849 16.3349 10.2434 16.4312 10.1684 16.503L8.52135 18.0268C8.44415 18.0983 8.33943 18.1384 8.23023 18.1385Z" fill="#182452"/>
<path d="M15.6417 17.758H11.5241C11.4149 17.758 11.3101 17.7179 11.2329 17.6464C11.1557 17.575 11.1123 17.4781 11.1123 17.377C11.1123 17.276 11.1557 17.1791 11.2329 17.1077C11.3101 17.0362 11.4149 16.9961 11.5241 16.9961H15.6417C15.7509 16.9961 15.8557 17.0362 15.9329 17.1077C16.0101 17.1791 16.0535 17.276 16.0535 17.377C16.0535 17.4781 16.0101 17.575 15.9329 17.6464C15.8557 17.7179 15.7509 17.758 15.6417 17.758Z" fill="#182452"/>
</svg>
