<svg width="24" height="24" viewBox="0 0 24 24" fill="none" xmlns="http://www.w3.org/2000/svg">
<g id="Search">
<path id="Vector" d="M14.2376 13.6652C14.9065 12.8546 15.3289 11.815 15.3289 10.6696C15.3289 8.09692 13.2343 6 10.6645 6C8.09461 6 6 8.09692 6 10.6696C6 13.2423 8.09461 15.3392 10.6645 15.3392C11.791 15.3392 12.8471 14.9339 13.6568 14.2467L17.2827 17.8767C17.3707 17.9648 17.4763 18 17.582 18C17.6876 18 17.7932 17.9648 17.8812 17.8767C18.0396 17.7181 18.0396 17.4361 17.8812 17.2775L14.2376 13.6652ZM10.6469 14.4934C8.53465 14.4934 6.82728 12.7841 6.82728 10.6696C6.82728 8.55507 8.53465 6.84582 10.6469 6.84582C12.7591 6.84582 14.4664 8.55507 14.4664 10.6696C14.4664 12.7841 12.7591 14.4934 10.6469 14.4934Z" fill="#868686"/>
</g>
</svg>
