<svg width="24" height="24" viewBox="0 0 24 24" fill="none" xmlns="http://www.w3.org/2000/svg">
    <path fill-rule="evenodd" clip-rule="evenodd"
        d="M19.7672 8.44952L19.2073 7.55048C18.7336 6.78975 17.6839 6.52731 16.8607 6.96381C16.4688 7.17742 16.0012 7.23803 15.561 7.13226C15.1208 7.02649 14.7441 6.76304 14.514 6.4C14.366 6.16925 14.2865 5.90642 14.2835 5.6381C14.2968 5.20791 14.1215 4.79103 13.7973 4.48244C13.4731 4.17385 13.0277 3.99982 12.5626 4H11.4346C10.979 4 10.5421 4.16801 10.2207 4.46686C9.89927 4.76571 9.71981 5.17076 9.722 5.59238C9.70849 6.46289 8.94198 7.16199 8.00114 7.16191C7.71117 7.15912 7.42714 7.08553 7.17777 6.94857C6.35454 6.51207 5.30482 6.77451 4.83115 7.53524L4.23009 8.44952C3.75699 9.2093 4.03673 10.18 4.85585 10.621C5.38829 10.9054 5.71629 11.4311 5.71629 12C5.71629 12.5689 5.38829 13.0946 4.85585 13.379C4.03777 13.817 3.75772 14.7854 4.23009 15.5429L4.79821 16.4495C5.02015 16.8201 5.39252 17.0935 5.83292 17.2094C6.27333 17.3252 6.74545 17.2738 7.14483 17.0667C7.53744 16.8547 8.0053 16.7966 8.44441 16.9053C8.88352 17.0141 9.2575 17.2806 9.48322 17.6457C9.63122 17.8765 9.71075 18.1393 9.71376 18.4076C9.71376 19.2871 10.4842 20 11.4346 20H12.5626C13.5098 20 14.279 19.2917 14.2835 18.4152C14.2813 17.9923 14.4619 17.5861 14.7851 17.287C15.1083 16.9879 15.5473 16.8208 16.0043 16.8229C16.2936 16.83 16.5765 16.9033 16.8277 17.0362C17.6488 17.474 18.6979 17.2151 19.1743 16.4571L19.7672 15.5429C19.9966 15.1784 20.0596 14.7443 19.9422 14.3368C19.8247 13.9292 19.5365 13.5818 19.1414 13.3714C18.7463 13.1611 18.4581 12.8137 18.3406 12.4061C18.2232 11.9985 18.2862 11.5645 18.5156 11.2C18.6649 10.9589 18.8809 10.759 19.1414 10.621C19.9556 10.1803 20.2347 9.21521 19.7672 8.45714V8.44952Z"
        stroke="#868686" stroke-width="1.5" strokeLinecap="round" stroke-linejoin="round" />
    <path
        d="M12.0025 14.194C13.3121 14.194 14.3737 13.2116 14.3737 11.9998C14.3737 10.788 13.3121 9.80566 12.0025 9.80566C10.693 9.80566 9.63135 10.788 9.63135 11.9998C9.63135 13.2116 10.693 14.194 12.0025 14.194Z"
        stroke="#868686" stroke-width="1.5" strokeLinecap="round" stroke-linejoin="round" />
</svg>