<svg width="24" height="24" viewBox="0 0 24 24" fill="none" xmlns="http://www.w3.org/2000/svg">
<g clip-path="url(#clip0_689_11958)">
<path fill-rule="evenodd" clip-rule="evenodd" d="M12.7351 5.6088C12.7351 7.00375 11.5383 8.21761 9.92348 8.21761C8.30418 8.21761 7.09913 6.99953 7.09913 5.6088C7.09913 4.21808 8.30418 3 9.92348 3C11.5383 3 12.7351 4.21385 12.7351 5.6088ZM2 15.8337C2 15.5234 2.15686 15.1622 2.63308 14.7478C3.11326 14.3299 3.82893 13.9424 4.70117 13.6131C6.4449 12.9546 8.55584 12.6235 9.92348 12.6235C10.7496 12.6235 11.847 12.7443 12.9708 12.9851L12.6283 12.6619C12.474 12.5163 12.3878 12.3239 12.3878 12.1167C12.3878 12.0289 12.4032 11.9434 12.4328 11.8628C11.5076 11.7033 10.6309 11.6235 9.92348 11.6235C6.95324 11.6235 1 13.0309 1 15.8337V17.6381C1 18.2998 1.57365 18.8411 2.27478 18.8411H12.5114C12.5433 18.793 12.5814 18.7477 12.6257 18.7059L13.0832 18.2742C13.1857 18.1775 13.2263 17.9949 13.1869 17.8411H2.27478C2.18379 17.8411 2.10946 17.8063 2.06078 17.7604C2.01291 17.7152 2 17.6711 2 17.6381V15.8337ZM9.92348 9.21761C12.0396 9.21761 13.7351 7.60567 13.7351 5.6088C13.7351 3.61193 12.0396 2 9.92348 2C7.80734 2 6.09913 3.61193 6.09913 5.6088C6.09913 7.60567 7.80734 9.21761 9.92348 9.21761Z" fill="#109b4f"/>
<path d="M10.9467 16.7704C10.836 16.7352 10.761 16.633 10.761 16.5176V14.8607C10.761 14.7453 10.8361 14.6432 10.9469 14.6079L12.5227 14.1067C12.5925 13.9143 12.664 13.7429 12.739 13.5878L11.9816 12.1223C11.9287 12.0199 11.9484 11.8952 12.0304 11.8137L13.211 10.6402C13.2931 10.5582 13.4187 10.539 13.5221 10.5912L15 11.3387C15.1662 11.2565 15.3434 11.1831 15.5297 11.1193L16.0341 9.55449C16.0697 9.44455 16.1727 9.36987 16.2892 9.36987H17.9596C18.0757 9.36987 18.1786 9.44403 18.2144 9.55371L18.7243 11.1178C18.8841 11.1728 19.0678 11.243 19.2542 11.3353L20.7231 10.586C20.8269 10.5333 20.9529 10.553 21.0352 10.6347L22.2184 11.8111C22.3002 11.8926 22.32 12.0168 22.2673 12.1192L21.5184 13.5754C21.6026 13.7452 21.6755 13.921 21.7363 14.1005L23.3077 14.6027C23.418 14.638 23.4929 14.7396 23.4933 14.8548L23.4985 16.5117C23.4989 16.627 23.4242 16.7292 23.3136 16.765L21.7359 17.2732C21.6758 17.4412 21.6043 17.6105 21.517 17.7921L22.2699 19.2537C22.3226 19.3561 22.303 19.4803 22.2212 19.5617L21.0433 20.7353C20.9613 20.817 20.8355 20.8377 20.7321 20.7846L19.255 20.0386C19.081 20.1231 18.9082 20.1949 18.7319 20.2559L18.2195 21.8174C18.1837 21.9268 18.0809 22.0007 17.965 22.0007H16.2945C16.1786 22.0007 16.0758 21.9268 16.04 21.8174L15.5271 20.2548C15.342 20.1898 15.1696 20.1192 15.0055 20.0412L13.5302 20.7874C13.4264 20.8396 13.3016 20.8199 13.2194 20.739L12.0389 19.5706C11.9569 19.4894 11.9368 19.3649 11.9893 19.2625L12.7408 17.7936C12.6621 17.6362 12.5902 17.4643 12.5232 17.2735L10.9467 16.7704ZM13.2806 17.9121L12.5547 19.3307L13.46 20.2268L14.8824 19.5073C14.9595 19.4679 15.0504 19.4684 15.127 19.5078C15.3391 19.6167 15.5672 19.7103 15.8241 19.7941C15.905 19.8205 15.9685 19.8838 15.9948 19.9642L16.4889 21.4696H17.7706L18.2647 19.9642C18.2914 19.8828 18.3562 19.819 18.4386 19.7933C18.6732 19.7197 18.8999 19.6255 19.1315 19.5055C19.2081 19.4661 19.2996 19.4653 19.3769 19.5044L20.8014 20.2237L21.7047 19.3237L20.9793 17.9155C20.9406 17.8403 20.9403 17.7513 20.9783 17.6759C21.1055 17.4236 21.1984 17.2027 21.2708 16.9802C21.2972 16.8993 21.3612 16.8358 21.4429 16.8093L22.9625 16.3198L22.9585 15.0492L21.4408 14.5641C21.3568 14.5371 21.2916 14.471 21.2664 14.3872C21.1948 14.1497 21.0991 13.919 20.9816 13.7006C20.9404 13.6241 20.9395 13.5323 20.9793 13.4551L21.7021 12.0497L20.7942 11.1471L19.3752 11.871C19.2953 11.9112 19.2005 11.9099 19.1224 11.8669C18.9306 11.7608 18.723 11.6748 18.428 11.5791C18.3465 11.5529 18.2828 11.4894 18.2563 11.4085L17.7648 9.90091H16.4846L15.9981 11.4103C15.9714 11.4927 15.906 11.557 15.8229 11.5827C15.5718 11.6605 15.3386 11.7575 15.1298 11.8705C15.0522 11.9123 14.9586 11.9138 14.8799 11.8739L13.4525 11.152L12.547 12.052L13.2774 13.4652C13.317 13.5419 13.3166 13.633 13.2764 13.7092C13.1742 13.9034 13.0787 14.1308 12.9848 14.4046C12.9574 14.4842 12.8938 14.5462 12.8131 14.5719L11.2964 15.0544V16.3242L12.8159 16.8091C12.898 16.8353 12.9621 16.899 12.9887 16.9802C13.0753 17.2465 13.1696 17.4705 13.2768 17.6645C13.3191 17.7415 13.3206 17.8341 13.2806 17.9121Z" fill="#109b4f"/>
<path d="M16.7941 13.1803C18.1864 12.9962 19.4711 13.9709 19.6568 15.3521C19.7469 16.0224 19.5692 16.6875 19.1564 17.2245C18.7431 17.762 18.1435 18.1074 17.4678 18.1966C17.3539 18.2117 17.2409 18.2189 17.129 18.2189C15.8694 18.2189 14.7699 17.2917 14.5992 16.0204C14.4136 14.6391 15.3981 13.3649 16.7941 13.1803ZM15.1299 15.9503C15.2767 17.0443 16.2916 17.8162 17.3972 17.6703C17.9307 17.5997 18.4043 17.3272 18.7305 16.9025C19.0568 16.478 19.1973 15.9524 19.1261 15.4222C18.9915 14.42 18.1248 13.689 17.1319 13.689C17.0436 13.689 16.9545 13.6947 16.8648 13.7067C15.7615 13.8526 14.9834 14.859 15.1299 15.9503Z" fill="#109b4f"/>
<circle cx="9.91699" cy="5.59766" r="3" fill="#109b4f"/>
<path d="M1.96191 14.6055L6.11573 12.8471L11.5891 12.4072L12.5342 12.9204L12.8192 13.5618L12.5342 14.2745L11.4224 14.4883L10.8522 15.5289L10.954 16.7475L12.8192 17.2821V17.895L9.48779 18.2227H1.96191V14.6055Z" fill="#109b4f"/>
<path d="M13.4616 10.9845L12.3547 12.1056L13.108 13.6938L12.5462 14.4117L11.0479 15.1297L11.2351 16.628L12.7022 17.0338L13.108 17.8142L12.3547 19.3749L13.4616 20.3113L14.9749 19.7183L15.7613 19.9368L16.4792 21.5599H17.9151L18.477 19.9368L19.351 19.5622L20.8493 20.3113L21.8482 19.2188L21.2239 17.8142L21.6297 17.0338L23.0968 16.3783L22.9095 14.8175L21.6297 14.4117L21.38 13.6938L21.8482 11.7006L20.662 10.9845L19.6944 11.7006L18.477 11.3201L17.9151 9.82178H16.4792L15.9798 11.3201L14.9749 11.7006L13.4616 10.9845Z" fill="#109b4f"/>
<circle cx="17.3984" cy="15.314" r="2" fill="#121212"/>
</g>
<defs>
<clipPath id="clip0_689_11958">
<rect width="24" height="24" fill="#109b4f"/>
</clipPath>
</defs>
</svg>
