<svg width="24" height="24" viewBox="0 0 24 24" fill="none" xmlns="http://www.w3.org/2000/svg">
<g clip-path="url(#clip0_689_10193)">
<path fill-rule="evenodd" clip-rule="evenodd" d="M12.7351 5.6088C12.7351 7.00375 11.5383 8.21761 9.92348 8.21761C8.30418 8.21761 7.09913 6.99953 7.09913 5.6088C7.09913 4.21808 8.30418 3 9.92348 3C11.5383 3 12.7351 4.21385 12.7351 5.6088ZM2 15.8337C2 15.5234 2.15686 15.1622 2.63308 14.7478C3.11326 14.3299 3.82893 13.9424 4.70117 13.6131C6.4449 12.9546 8.55584 12.6235 9.92348 12.6235C10.7496 12.6235 11.847 12.7443 12.9708 12.9851L12.6283 12.6619C12.474 12.5163 12.3878 12.3239 12.3878 12.1167C12.3878 12.0289 12.4032 11.9434 12.4328 11.8628C11.5076 11.7033 10.6309 11.6235 9.92348 11.6235C6.95324 11.6235 1 13.0309 1 15.8337V17.6381C1 18.2998 1.57365 18.8411 2.27478 18.8411H12.5114C12.5433 18.793 12.5814 18.7477 12.6257 18.7059L13.0832 18.2742C13.1857 18.1775 13.2263 17.9949 13.1869 17.8411H2.27478C2.18379 17.8411 2.10946 17.8063 2.06078 17.7604C2.01291 17.7152 2 17.6711 2 17.6381V15.8337ZM9.92348 9.21761C12.0396 9.21761 13.7351 7.60567 13.7351 5.6088C13.7351 3.61193 12.0396 2 9.92348 2C7.80734 2 6.09913 3.61193 6.09913 5.6088C6.09913 7.60567 7.80734 9.21761 9.92348 9.21761Z" fill="#868686"/>
<path d="M10.9467 16.7707C10.836 16.7354 10.761 16.6332 10.761 16.5179V14.861C10.761 14.7456 10.8361 14.6434 10.9469 14.6081L12.5227 14.1069C12.5925 13.9145 12.664 13.7431 12.739 13.5881L11.9816 12.1225C11.9287 12.0201 11.9484 11.8954 12.0304 11.814L13.211 10.6404C13.2931 10.5585 13.4187 10.5393 13.5221 10.5914L15 11.3389C15.1662 11.2568 15.3434 11.1834 15.5297 11.1196L16.0341 9.55474C16.0697 9.44479 16.1727 9.37012 16.2892 9.37012H17.9596C18.0757 9.37012 18.1786 9.44428 18.2144 9.55396L18.7243 11.118C18.8841 11.173 19.0678 11.2433 19.2542 11.3356L20.7231 10.5862C20.8269 10.5336 20.9529 10.5533 21.0352 10.635L22.2184 11.8114C22.3002 11.8928 22.32 12.017 22.2673 12.1194L21.5184 13.5756C21.6026 13.7455 21.6755 13.9213 21.7363 14.1007L23.3077 14.603C23.418 14.6382 23.4929 14.7399 23.4933 14.855L23.4985 16.5119C23.4989 16.6273 23.4242 16.7294 23.3136 16.7652L21.7359 17.2734C21.6758 17.4415 21.6043 17.6108 21.517 17.7923L22.2699 19.2539C22.3226 19.3564 22.303 19.4806 22.2212 19.562L21.0433 20.7356C20.9613 20.8172 20.8355 20.838 20.7321 20.7848L19.255 20.0388C19.081 20.1234 18.9082 20.1952 18.7319 20.2561L18.2195 21.8176C18.1837 21.927 18.0809 22.0009 17.965 22.0009H16.2945C16.1786 22.0009 16.0758 21.927 16.04 21.8176L15.5271 20.2551C15.342 20.19 15.1696 20.1195 15.0055 20.0414L13.5302 20.7877C13.4264 20.8398 13.3016 20.8201 13.2194 20.7392L12.0389 19.5708C11.9569 19.4896 11.9368 19.3652 11.9893 19.2628L12.7408 17.7939C12.6621 17.6365 12.5902 17.4646 12.5232 17.2737L10.9467 16.7707ZM13.2806 17.9124L12.5547 19.331L13.46 20.2271L14.8824 19.5075C14.9595 19.4681 15.0504 19.4686 15.127 19.5081C15.3391 19.617 15.5672 19.7106 15.8241 19.7943C15.905 19.8208 15.9685 19.884 15.9948 19.9644L16.4889 21.4699H17.7706L18.2647 19.9644C18.2914 19.883 18.3562 19.8192 18.4386 19.7935C18.6732 19.7199 18.8999 19.6258 19.1315 19.5057C19.2081 19.4663 19.2996 19.4655 19.3769 19.5047L20.8014 20.224L21.7047 19.324L20.9793 17.9157C20.9406 17.8405 20.9403 17.7516 20.9783 17.6761C21.1055 17.4238 21.1984 17.2029 21.2708 16.9804C21.2972 16.8995 21.3612 16.836 21.4429 16.8096L22.9625 16.32L22.9585 15.0495L21.4408 14.5643C21.3568 14.5374 21.2916 14.4712 21.2664 14.3875C21.1948 14.15 21.0991 13.9192 20.9816 13.7009C20.9404 13.6244 20.9395 13.5326 20.9793 13.4553L21.7021 12.0499L20.7942 11.1473L19.3752 11.8713C19.2953 11.9115 19.2005 11.9102 19.1224 11.8671C18.9306 11.7611 18.723 11.675 18.428 11.5793C18.3465 11.5531 18.2828 11.4896 18.2563 11.4087L17.7648 9.90115H16.4846L15.9981 11.4105C15.9714 11.493 15.906 11.5573 15.8229 11.5829C15.5718 11.6607 15.3386 11.7577 15.1298 11.8708C15.0522 11.9125 14.9586 11.9141 14.8799 11.8741L13.4525 11.1523L12.547 12.0523L13.2774 13.4654C13.317 13.5422 13.3166 13.6332 13.2764 13.7094C13.1742 13.9036 13.0787 14.131 12.9848 14.4049C12.9574 14.4845 12.8938 14.5464 12.8131 14.5721L11.2964 15.0547V16.3244L12.8159 16.8093C12.898 16.8355 12.9621 16.8993 12.9887 16.9804C13.0753 17.2467 13.1696 17.4708 13.2768 17.6647C13.3191 17.7417 13.3206 17.8343 13.2806 17.9124Z" fill="#868686"/>
<path d="M16.7941 13.1805C18.1864 12.9964 19.4711 13.9711 19.6568 15.3524C19.7469 16.0227 19.5692 16.6878 19.1564 17.2248C18.7431 17.7623 18.1435 18.1077 17.4678 18.1969C17.3539 18.2119 17.2409 18.2192 17.129 18.2192C15.8694 18.2192 14.7699 17.2919 14.5992 16.0206C14.4136 14.6393 15.3981 13.3652 16.7941 13.1805ZM15.1299 15.9506C15.2767 17.0446 16.2916 17.8165 17.3972 17.6705C17.9307 17.6 18.4043 17.3274 18.7305 16.9027C19.0568 16.4783 19.1973 15.9527 19.1261 15.4224C18.9915 14.4202 18.1248 13.6893 17.1319 13.6893C17.0436 13.6893 16.9545 13.695 16.8648 13.7069C15.7615 13.8529 14.9834 14.8592 15.1299 15.9506Z" fill="#868686"/>
</g>
<defs>
<clipPath id="clip0_689_10193">
<rect width="24" height="24" fill="white"/>
</clipPath>
</defs>
</svg>
