<svg width="439" height="438" viewBox="0 0 439 438" fill="none" xmlns="http://www.w3.org/2000/svg">
<path d="M85.2341 139.127C85.2341 145.769 82.1261 151.693 77.2678 155.497C73.7332 158.291 69.2568 159.952 64.4099 159.952C59.5516 159.952 55.0752 158.291 51.5406 155.497C46.6823 151.693 43.5742 145.77 43.5742 139.127C43.5742 127.616 52.8975 118.292 64.409 118.292C75.9109 118.292 85.2341 127.616 85.2341 139.127Z" stroke="#FF7312" stroke-width="0.876" stroke-miterlimit="10" stroke-linecap="round" stroke-linejoin="round"/>
<path d="M68.9816 143.271C73.0681 140.746 74.3337 135.386 71.8084 131.299C69.2831 127.213 63.9232 125.947 59.8367 128.472C55.7502 130.998 54.4846 136.358 57.0099 140.444C59.5352 144.531 64.8951 145.796 68.9816 143.271Z" stroke="#FF7312" stroke-width="0.876" stroke-miterlimit="10" stroke-linecap="round" stroke-linejoin="round"/>
<path d="M77.2702 155.496C73.7356 158.29 69.2592 159.951 64.4123 159.951C59.554 159.951 55.0776 158.29 51.543 155.496C52.8333 149.583 58.1068 145.151 64.4123 145.151C70.7072 145.152 75.9799 149.584 77.2702 155.496Z" stroke="#FF7312" stroke-width="0.876" stroke-miterlimit="10" stroke-linecap="round" stroke-linejoin="round"/>
<path d="M37.1366 183.715L36.0793 183.077L37.4047 181.215L35.4258 180.461L35.862 179.321L37.7568 180.327L37.5553 178.013H38.914L38.6959 180.327L40.6073 179.321L41.026 180.461L39.0472 181.234L40.3883 183.078L39.2986 183.715L38.2255 181.619L37.1366 183.715Z" fill="#FF7312"/>
<path d="M43.8085 183.715L42.7512 183.077L44.0765 181.215L42.0977 180.461L42.5339 179.321L44.4287 180.327L44.2272 178.013H45.5859L45.3678 180.327L47.2801 179.321L47.6988 180.461L45.7199 181.234L47.0611 183.078L45.9713 183.715L44.8982 181.619L43.8085 183.715Z" fill="#FF7312"/>
<path d="M50.4843 183.715L49.4269 183.077L50.7523 181.215L48.7734 180.461L49.2097 179.321L51.1045 180.327L50.903 178.013H52.2617L52.0435 180.327L53.9559 179.321L54.3746 180.461L52.3957 181.234L53.7369 183.078L52.6471 183.715L51.574 181.619L50.4843 183.715Z" fill="#FF7312"/>
<path d="M57.1561 183.715L56.0988 183.077L57.4242 181.215L55.4453 180.461L55.8816 179.321L57.7764 180.327L57.5749 178.013H58.9335L58.7154 180.327L60.6269 179.321L61.0456 180.461L59.0667 181.234L60.4079 183.078L59.3181 183.715L58.245 181.619L57.1561 183.715Z" fill="#FF7312"/>
<path d="M63.8358 183.715L62.7785 183.077L64.1039 181.215L62.125 180.461L62.5612 179.321L64.456 180.327L64.2546 178.013H65.6132L65.3951 180.327L67.3065 179.321L67.7253 180.461L65.7464 181.234L67.0875 183.078L65.9978 183.715L64.9247 181.619L63.8358 183.715Z" fill="#FF7312"/>
<path d="M70.5077 183.715L69.4504 183.077L70.7758 181.215L68.7969 180.461L69.2331 179.321L71.1279 180.327L70.9264 178.013H72.2851L72.067 180.327L73.9784 179.321L74.3971 180.461L72.4183 181.234L73.7594 183.078L72.6697 183.715L71.5966 181.619L70.5077 183.715Z" fill="#FF7312"/>
<path d="M77.1835 183.715L76.1261 183.077L77.4515 181.215L75.4727 180.461L75.9089 179.321L77.8037 180.327L77.6022 178.013H78.9609L78.7428 180.327L80.6542 179.321L81.0729 180.461L79.094 181.234L80.4352 183.078L79.3455 183.715L78.2724 181.619L77.1835 183.715Z" fill="#FF7312"/>
<path d="M83.8554 183.715L82.798 183.077L84.1234 181.215L82.1445 180.461L82.5808 179.321L84.4756 180.327L84.2741 178.013H85.6328L85.4146 180.327L87.3261 179.321L87.7448 180.461L85.7659 181.234L87.1071 183.078L86.0173 183.715L84.9442 181.619L83.8554 183.715Z" fill="#FF7312"/>
<path d="M90.5264 183.715L89.4699 183.077L90.7953 181.215L88.8164 180.461L89.2527 179.321L91.1474 180.327L90.946 178.013H92.3046L92.0865 180.327L93.9988 179.321L94.4175 180.461L92.4387 181.234L93.7798 183.078L92.6901 183.715L91.617 181.619L90.5264 183.715Z" fill="#FF7312"/>
<path d="M354.257 128.533L353.2 127.896L354.526 126.035L352.547 125.28L352.983 124.141L354.878 125.146L354.676 122.832H356.035L355.817 125.146L357.728 124.141L358.147 125.28L356.168 126.053L357.509 127.897L356.42 128.534L355.347 126.438L354.257 128.533Z" fill="#FF7312"/>
<path d="M360.93 128.533L359.872 127.896L361.198 126.035L359.219 125.28L359.655 124.141L361.55 125.146L361.348 122.832H362.707L362.489 125.146L364.4 124.141L364.819 125.28L362.84 126.053L364.181 127.897L363.092 128.534L362.018 126.438L360.93 128.533Z" fill="#FF7312"/>
<path d="M367.605 128.533L366.548 127.896L367.873 126.035L365.895 125.28L366.331 124.141L368.226 125.146L368.024 122.832H369.383L369.165 125.146L371.076 124.141L371.495 125.28L369.516 126.053L370.857 127.897L369.767 128.534L368.694 126.438L367.605 128.533Z" fill="#FF7312"/>
<path d="M374.277 128.533L373.22 127.896L374.545 126.035L372.566 125.28L373.003 124.141L374.897 125.146L374.696 122.832H376.055L375.837 125.146L377.749 124.141L378.168 125.28L376.189 126.053L377.53 127.897L376.44 128.534L375.367 126.438L374.277 128.533Z" fill="#FF7312"/>
<path d="M380.953 128.533L379.896 127.896L381.221 126.035L379.242 125.28L379.678 124.141L381.573 125.146L381.372 122.832H382.73L382.512 125.146L384.424 124.141L384.842 125.28L382.864 126.053L384.205 127.897L383.115 128.534L382.042 126.438L380.953 128.533Z" fill="#FF7312"/>
<path d="M387.629 128.533L386.571 127.896L387.897 126.035L385.918 125.28L386.354 124.141L388.249 125.146L388.048 122.832H389.406L389.188 125.146L391.1 124.141L391.518 125.28L389.539 126.053L390.881 127.897L389.791 128.534L388.718 126.438L387.629 128.533Z" fill="#FF7312"/>
<path d="M394.3 128.533L393.243 127.896L394.569 126.035L392.59 125.28L393.026 124.141L394.921 125.146L394.719 122.832H396.078L395.86 125.146L397.771 124.141L398.19 125.28L396.211 126.053L397.552 127.897L396.463 128.534L395.39 126.438L394.3 128.533Z" fill="#FF7312"/>
<path d="M400.973 128.533L399.915 127.896L401.241 126.035L399.262 125.28L399.698 124.141L401.593 125.146L401.391 122.832H402.75L402.532 125.146L404.443 124.141L404.862 125.28L402.883 126.053L404.224 127.897L403.135 128.534L402.061 126.438L400.973 128.533Z" fill="#FF7312"/>
<path d="M407.647 128.533L406.591 127.896L407.916 126.035L405.938 125.28L406.374 124.141L408.269 125.146L408.067 122.832H409.426L409.208 125.146L411.12 124.141L411.539 125.28L409.56 126.053L410.901 127.897L409.811 128.534L408.738 126.438L407.647 128.533Z" fill="#FF7312"/>
<path d="M398.879 74.9829H364.57V108.542H398.879V74.9829Z" stroke="#FF7312" stroke-width="0.876" stroke-miterlimit="10" stroke-linecap="round" stroke-linejoin="round"/>
<path d="M370.867 74.9959V67.2722C370.867 61.2856 375.738 56.4151 381.725 56.4151C387.712 56.4151 392.582 61.2856 392.582 67.2722V74.9959H397.575V67.2722C397.575 58.5324 390.464 51.4219 381.725 51.4219C372.985 51.4219 365.875 58.5324 365.875 67.2722V74.9959H370.867Z" stroke="#FF7312" stroke-width="0.876" stroke-miterlimit="10"/>
<path d="M385.67 87.9952C385.67 85.8157 383.903 84.0488 381.724 84.0488C379.544 84.0488 377.777 85.8157 377.777 87.9952C377.777 89.6675 378.821 91.0884 380.289 91.663V99.4769H383.159V91.663C384.627 91.0884 385.67 89.6675 385.67 87.9952Z" stroke="#FF7312" stroke-width="0.876" stroke-miterlimit="10" stroke-linecap="round" stroke-linejoin="round"/>
<path d="M327.829 107.312V95.9893H320.343L112.805 303.528V322.336L327.829 107.312Z" fill="white"/>
<path d="M112.805 154.905V228.639L245.454 95.9893H171.719L112.805 154.905Z" fill="white"/>
<path d="M295.82 380.626L327.829 348.617V274.883L222.086 380.626H295.82Z" fill="white"/>
<path d="M334.322 401.067H106.304C101.364 401.067 97.3594 397.062 97.3594 392.122V84.4937C97.3594 79.5539 101.364 75.5488 106.304 75.5488H334.322C339.262 75.5488 343.267 79.5539 343.267 84.4937V392.122C343.267 397.062 339.262 401.067 334.322 401.067Z" fill="#363636"/>
<path d="M327.825 95.9893H112.801V380.625H327.825V95.9893Z" fill="#585858"/>
<path opacity="0.2" d="M97.3594 125.451V216.524L238.335 75.5488H147.262L97.3594 125.451Z" fill="#292929"/>
<path opacity="0.2" d="M343.267 86.349V83.495C343.267 79.1063 339.709 75.5488 335.32 75.5488H330.834L97.3594 309.025V332.256L343.267 86.349Z" fill="#292929"/>
<path opacity="0.2" d="M343.265 384.398V293.324L235.523 401.067H326.597L343.265 384.398Z" fill="#292929"/>
<path d="M270.73 207.938H169.891V225.039H270.73V207.938Z" fill="white"/>
<path d="M270.73 239.782H169.891V256.884H270.73V239.782Z" fill="white"/>
<path d="M243.506 288.93H197.11C194.766 288.93 192.867 287.031 192.867 284.688V276.071C192.867 273.727 194.766 271.828 197.11 271.828H243.506C245.849 271.828 247.749 273.727 247.749 276.071V284.688C247.749 287.031 245.849 288.93 243.506 288.93Z" fill="#FF7312" stroke="#FF7312" stroke-width="0.876" stroke-miterlimit="10" stroke-linecap="round" stroke-linejoin="round"/>
<path d="M237.624 154.031C237.624 159.561 235.036 164.493 230.992 167.659C228.049 169.985 224.323 171.367 220.287 171.367C216.243 171.367 212.515 169.985 209.574 167.659C205.529 164.492 202.941 159.561 202.941 154.031C202.941 144.448 210.704 136.686 220.287 136.686C229.862 136.685 237.624 144.447 237.624 154.031Z" fill="white" stroke="#FF7312" stroke-width="0.876" stroke-miterlimit="10" stroke-linecap="round" stroke-linejoin="round"/>
<path d="M225.399 156.434C228.227 153.606 228.227 149.021 225.399 146.193C222.572 143.366 217.987 143.366 215.159 146.193C212.331 149.021 212.331 153.606 215.159 156.434C217.987 159.261 222.572 159.261 225.399 156.434Z" fill="#FF7312" stroke="#FF7312" stroke-width="0.876" stroke-miterlimit="10" stroke-linecap="round" stroke-linejoin="round"/>
<path d="M230.989 167.659C228.046 169.985 224.32 171.367 220.284 171.367C216.239 171.367 212.512 169.985 209.57 167.659C210.644 162.737 215.035 159.047 220.284 159.047C225.525 159.047 229.915 162.737 230.989 167.659Z" fill="#FF7312" stroke="#FF7312" stroke-width="0.876" stroke-miterlimit="10" stroke-linecap="round" stroke-linejoin="round"/>
<path d="M207.234 284.969V276.039H208.866V283.843H211.027V284.968L207.234 284.969Z" fill="white"/>
<path d="M214.175 285.09C213.543 285.09 213.039 284.972 212.665 284.738C212.289 284.503 212.022 284.165 211.86 283.723C211.698 283.283 211.617 282.76 211.617 282.157V278.817C211.617 278.214 211.698 277.698 211.86 277.268C212.022 276.838 212.289 276.509 212.665 276.281C213.04 276.054 213.543 275.94 214.175 275.94C214.821 275.94 215.33 276.054 215.702 276.281C216.073 276.509 216.341 276.838 216.507 277.268C216.672 277.697 216.755 278.214 216.755 278.817V282.169C216.755 282.764 216.672 283.28 216.507 283.718C216.341 284.155 216.073 284.493 215.702 284.732C215.331 284.97 214.821 285.09 214.175 285.09ZM214.175 283.889C214.447 283.889 214.646 283.83 214.776 283.712C214.904 283.594 214.991 283.433 215.035 283.227C215.079 283.021 215.101 282.797 215.101 282.555V278.443C215.101 278.192 215.08 277.969 215.035 277.77C214.991 277.572 214.905 277.416 214.776 277.302C214.647 277.188 214.447 277.131 214.175 277.131C213.917 277.131 213.723 277.188 213.59 277.302C213.458 277.417 213.37 277.573 213.326 277.77C213.281 277.969 213.259 278.193 213.259 278.443V282.555C213.259 282.798 213.28 283.021 213.32 283.227C213.361 283.433 213.448 283.594 213.58 283.712C213.712 283.83 213.91 283.889 214.175 283.889Z" fill="white"/>
<path d="M220.203 285.091C219.615 285.091 219.149 284.966 218.803 284.717C218.458 284.467 218.209 284.112 218.059 283.653C217.908 283.193 217.832 282.652 217.832 282.027V279.029C217.832 278.39 217.905 277.837 218.052 277.375C218.199 276.912 218.459 276.558 218.829 276.312C219.2 276.066 219.712 275.943 220.367 275.943C220.976 275.943 221.462 276.046 221.822 276.251C222.182 276.457 222.441 276.753 222.599 277.138C222.756 277.524 222.836 277.993 222.836 278.544V279.007H221.282V278.5C221.282 278.214 221.261 277.968 221.221 277.762C221.181 277.556 221.1 277.4 220.979 277.294C220.857 277.187 220.66 277.133 220.39 277.133C220.103 277.133 219.895 277.204 219.767 277.342C219.638 277.482 219.557 277.666 219.525 277.893C219.492 278.121 219.475 278.371 219.475 278.643V282.381C219.475 282.689 219.501 282.958 219.553 283.185C219.605 283.413 219.7 283.587 219.839 283.708C219.979 283.829 220.178 283.89 220.435 283.89C220.7 283.89 220.901 283.824 221.041 283.692C221.181 283.56 221.278 283.376 221.333 283.141C221.388 282.906 221.415 282.627 221.415 282.303V281.465H220.457V280.439H222.882V284.97H221.834L221.713 284.088C221.595 284.382 221.418 284.623 221.179 284.81C220.941 284.997 220.615 285.091 220.203 285.091Z" fill="white"/>
<path d="M224.164 284.968V276.038H225.774V284.968H224.164Z" fill="white"/>
<path d="M227.141 284.968V276.038H228.276L230.448 281.131V276.038H231.792V284.968H230.713L228.53 279.632V284.968H227.141Z" fill="white"/>
<path d="M209.898 191.354V183.79H211.281V190.401H213.111V191.353L209.898 191.354Z" fill="#FF7312"/>
<path d="M215.791 191.457C215.256 191.457 214.829 191.357 214.512 191.158C214.194 190.959 213.968 190.673 213.831 190.299C213.693 189.926 213.625 189.483 213.625 188.973V186.143C213.625 185.632 213.693 185.195 213.831 184.831C213.968 184.466 214.194 184.188 214.512 183.995C214.83 183.802 215.256 183.706 215.791 183.706C216.339 183.706 216.77 183.802 217.085 183.995C217.4 184.188 217.627 184.466 217.767 184.831C217.907 185.194 217.977 185.632 217.977 186.143V188.982C217.977 189.487 217.907 189.924 217.767 190.294C217.627 190.665 217.4 190.951 217.085 191.154C216.771 191.355 216.339 191.457 215.791 191.457ZM215.791 190.439C216.022 190.439 216.191 190.389 216.3 190.289C216.409 190.189 216.483 190.053 216.52 189.878C216.557 189.704 216.576 189.514 216.576 189.309V185.826C216.576 185.614 216.558 185.425 216.52 185.257C216.483 185.088 216.41 184.956 216.3 184.86C216.192 184.763 216.022 184.715 215.791 184.715C215.573 184.715 215.409 184.763 215.296 184.86C215.184 184.957 215.11 185.089 215.072 185.257C215.034 185.425 215.016 185.615 215.016 185.826V189.309C215.016 189.515 215.034 189.704 215.068 189.878C215.102 190.053 215.176 190.189 215.288 190.289C215.4 190.389 215.567 190.439 215.791 190.439Z" fill="#FF7312"/>
<path d="M220.891 191.457C220.393 191.457 219.998 191.351 219.705 191.14C219.413 190.928 219.203 190.628 219.075 190.239C218.947 189.85 218.883 189.391 218.883 188.862V186.322C218.883 185.781 218.945 185.313 219.069 184.921C219.194 184.529 219.414 184.229 219.727 184.021C220.042 183.812 220.475 183.708 221.03 183.708C221.546 183.708 221.958 183.796 222.262 183.969C222.567 184.143 222.787 184.394 222.92 184.721C223.053 185.047 223.122 185.444 223.122 185.911V186.304H221.805V185.874C221.805 185.632 221.788 185.423 221.753 185.249C221.719 185.075 221.651 184.942 221.548 184.852C221.445 184.762 221.279 184.716 221.049 184.716C220.807 184.716 220.63 184.776 220.522 184.893C220.412 185.011 220.344 185.167 220.317 185.36C220.289 185.553 220.275 185.765 220.275 185.995V189.161C220.275 189.422 220.297 189.65 220.34 189.843C220.384 190.035 220.465 190.183 220.583 190.286C220.701 190.388 220.87 190.44 221.088 190.44C221.312 190.44 221.483 190.384 221.601 190.272C221.719 190.16 221.802 190.005 221.848 189.805C221.894 189.606 221.918 189.37 221.918 189.095V188.386H221.106V187.517H223.16V191.355H222.273L222.17 190.607C222.071 190.856 221.92 191.06 221.718 191.219C221.516 191.377 221.24 191.457 220.891 191.457Z" fill="#FF7312"/>
<path d="M224.25 191.354V183.79H225.614V191.354H224.25Z" fill="#FF7312"/>
<path d="M226.781 191.354V183.79H227.743L229.583 188.104V183.79H230.721V191.354H229.807L227.958 186.834V191.354H226.781Z" fill="#FF7312"/>
<path d="M204.048 220.846C203.5 220.846 203.08 220.737 202.787 220.519C202.495 220.301 202.295 219.994 202.19 219.599C202.084 219.204 202.031 218.741 202.031 218.212V213.197H203.04V218.259C203.04 218.582 203.061 218.878 203.105 219.145C203.149 219.413 203.244 219.624 203.39 219.78C203.536 219.935 203.755 220.013 204.049 220.013C204.347 220.013 204.568 219.935 204.712 219.78C204.855 219.624 204.948 219.413 204.992 219.145C205.035 218.878 205.058 218.582 205.058 218.259V213.197H206.057V218.212C206.057 218.741 206.004 219.204 205.899 219.599C205.793 219.994 205.595 220.302 205.306 220.519C205.014 220.737 204.595 220.846 204.048 220.846Z" fill="#CCCCCC"/>
<path d="M208.949 220.846C208.514 220.846 208.151 220.752 207.861 220.566C207.571 220.379 207.352 220.121 207.203 219.79C207.054 219.46 206.967 219.077 206.941 218.642L207.875 218.39C207.894 218.657 207.936 218.915 208.001 219.165C208.067 219.414 208.174 219.618 208.324 219.776C208.474 219.935 208.682 220.015 208.949 220.015C209.223 220.015 209.43 219.938 209.57 219.786C209.71 219.634 209.781 219.414 209.781 219.127C209.781 218.785 209.703 218.51 209.547 218.301C209.391 218.093 209.194 217.882 208.958 217.67L207.688 216.55C207.438 216.332 207.255 216.094 207.137 215.836C207.019 215.578 206.959 215.259 206.959 214.879C206.959 214.325 207.117 213.896 207.435 213.59C207.753 213.285 208.184 213.132 208.733 213.132C209.032 213.132 209.294 213.171 209.522 213.249C209.749 213.327 209.939 213.446 210.092 213.608C210.244 213.77 210.366 213.974 210.456 214.22C210.546 214.466 210.607 214.753 210.638 215.084L209.741 215.326C209.723 215.077 209.685 214.849 209.629 214.639C209.573 214.431 209.475 214.263 209.335 214.135C209.194 214.008 208.994 213.944 208.732 213.944C208.47 213.944 208.267 214.014 208.121 214.153C207.974 214.293 207.902 214.5 207.902 214.774C207.902 215.005 207.94 215.195 208.018 215.344C208.096 215.493 208.221 215.646 208.396 215.801L209.675 216.921C209.962 217.171 210.214 217.468 210.432 217.813C210.65 218.159 210.759 218.568 210.759 219.041C210.759 219.415 210.681 219.737 210.526 220.008C210.37 220.279 210.157 220.486 209.887 220.63C209.617 220.775 209.304 220.846 208.949 220.846Z" fill="#CCCCCC"/>
<path d="M211.582 220.762V213.197H214.514V213.982H212.637V216.485H214.159V217.232H212.637V220.006H214.532V220.762L211.582 220.762Z" fill="#CCCCCC"/>
<path d="M215.383 220.762V213.197H216.905C217.41 213.197 217.827 213.265 218.156 213.398C218.486 213.532 218.731 213.747 218.889 214.043C219.048 214.338 219.127 214.726 219.127 215.205C219.127 215.498 219.095 215.764 219.034 216.004C218.972 216.243 218.872 216.446 218.735 216.611C218.598 216.776 218.417 216.896 218.194 216.97L219.268 220.762H218.25L217.26 217.213H216.438V220.762H215.383ZM216.438 216.457H216.839C217.137 216.457 217.38 216.42 217.567 216.345C217.753 216.27 217.891 216.142 217.978 215.962C218.065 215.781 218.108 215.529 218.108 215.205C218.108 214.763 218.027 214.444 217.865 214.248C217.703 214.051 217.383 213.953 216.904 213.953H216.438V216.457Z" fill="#CCCCCC"/>
<path d="M220.23 220.762V213.197H220.95L223.098 218.221V213.197H223.975V220.762H223.303L221.127 215.597V220.762H220.23Z" fill="#CCCCCC"/>
<path d="M224.75 220.762L226.357 213.197H227.374L228.99 220.762H227.991L227.646 218.856H226.105L225.741 220.762H224.75ZM226.244 218.1H227.504L226.869 214.692L226.244 218.1Z" fill="#CCCCCC"/>
<path d="M229.738 220.762L229.878 213.197H230.915L232.25 219.333L233.594 213.197H234.621L234.761 220.762H233.912L233.827 215.271L232.548 220.762H231.951L230.681 215.271L230.597 220.762H229.738Z" fill="#CCCCCC"/>
<path d="M235.918 220.762V213.197H238.85V213.982H236.973V216.485H238.495V217.232H236.973V220.006H238.868V220.762L235.918 220.762Z" fill="#CCCCCC"/>
<path d="M201.363 252.055V244.49H203.241C203.695 244.49 204.057 244.573 204.329 244.738C204.599 244.903 204.797 245.142 204.922 245.452C205.046 245.764 205.108 246.14 205.108 246.582C205.108 246.981 205.038 247.326 204.898 247.618C204.758 247.911 204.551 248.137 204.277 248.296C204.003 248.454 203.66 248.533 203.25 248.533H202.419V252.054H201.363V252.055ZM202.418 247.777H202.903C203.208 247.777 203.448 247.743 203.622 247.675C203.797 247.606 203.921 247.486 203.996 247.315C204.07 247.144 204.108 246.903 204.108 246.591C204.108 246.23 204.082 245.953 204.028 245.76C203.975 245.568 203.865 245.434 203.696 245.358C203.528 245.284 203.267 245.246 202.912 245.246H202.417V247.777H202.418Z" fill="#CCCCCC"/>
<path d="M205.078 252.055L206.685 244.49H207.703L209.318 252.055H208.319L207.974 250.149H206.433L206.07 252.055H205.078ZM206.572 249.393H207.832L207.197 245.985L206.572 249.393Z" fill="#CCCCCC"/>
<path d="M211.867 252.138C211.431 252.138 211.069 252.044 210.779 251.859C210.489 251.672 210.27 251.414 210.121 251.083C209.971 250.754 209.885 250.37 209.859 249.934L210.793 249.683C210.812 249.95 210.854 250.208 210.919 250.458C210.985 250.707 211.092 250.91 211.242 251.068C211.391 251.227 211.6 251.307 211.867 251.307C212.141 251.307 212.348 251.23 212.488 251.078C212.628 250.926 212.698 250.706 212.698 250.419C212.698 250.078 212.621 249.802 212.465 249.593C212.309 249.384 212.112 249.174 211.877 248.963L210.607 247.842C210.357 247.624 210.174 247.386 210.056 247.128C209.937 246.87 209.878 246.551 209.878 246.171C209.878 245.617 210.036 245.188 210.354 244.883C210.672 244.577 211.104 244.425 211.653 244.425C211.951 244.425 212.214 244.464 212.442 244.542C212.669 244.62 212.859 244.739 213.011 244.901C213.164 245.063 213.285 245.267 213.375 245.513C213.465 245.759 213.525 246.047 213.557 246.377L212.66 246.619C212.642 246.37 212.604 246.142 212.548 245.933C212.492 245.725 212.394 245.557 212.253 245.429C212.113 245.302 211.913 245.238 211.651 245.238C211.39 245.238 211.186 245.308 211.039 245.447C210.893 245.587 210.82 245.795 210.82 246.068C210.82 246.299 210.859 246.489 210.937 246.638C211.015 246.787 211.14 246.94 211.315 247.096L212.594 248.216C212.881 248.466 213.133 248.763 213.351 249.109C213.569 249.455 213.678 249.863 213.678 250.337C213.678 250.71 213.6 251.032 213.445 251.303C213.289 251.574 213.076 251.781 212.805 251.924C212.535 252.067 212.223 252.138 211.867 252.138Z" fill="#CCCCCC"/>
<path d="M216.285 252.138C215.85 252.138 215.487 252.044 215.197 251.859C214.908 251.672 214.688 251.414 214.539 251.083C214.389 250.754 214.303 250.37 214.277 249.934L215.211 249.683C215.23 249.95 215.272 250.208 215.337 250.458C215.403 250.707 215.51 250.91 215.66 251.068C215.809 251.227 216.018 251.307 216.285 251.307C216.559 251.307 216.766 251.23 216.906 251.078C217.046 250.926 217.116 250.706 217.116 250.419C217.116 250.078 217.038 249.802 216.883 249.593C216.727 249.384 216.53 249.174 216.295 248.963L215.025 247.842C214.775 247.624 214.592 247.386 214.474 247.128C214.355 246.87 214.296 246.551 214.296 246.171C214.296 245.617 214.454 245.188 214.771 244.883C215.089 244.577 215.521 244.425 216.07 244.425C216.368 244.425 216.631 244.464 216.859 244.542C217.086 244.62 217.276 244.739 217.428 244.901C217.581 245.063 217.703 245.267 217.792 245.513C217.882 245.759 217.943 246.047 217.974 246.377L217.077 246.619C217.059 246.37 217.021 246.142 216.965 245.933C216.909 245.725 216.811 245.557 216.671 245.429C216.53 245.302 216.33 245.238 216.068 245.238C215.806 245.238 215.603 245.308 215.456 245.447C215.31 245.587 215.237 245.795 215.237 246.068C215.237 246.299 215.276 246.489 215.354 246.638C215.432 246.787 215.557 246.94 215.732 247.096L217.011 248.216C217.298 248.466 217.55 248.763 217.768 249.109C217.985 249.455 218.095 249.863 218.095 250.337C218.095 250.71 218.017 251.032 217.862 251.303C217.706 251.574 217.493 251.781 217.222 251.924C216.953 252.067 216.64 252.138 216.285 252.138Z" fill="#CCCCCC"/>
<path d="M219.9 252.054L218.668 244.49H219.546L220.358 249.925L221.376 244.518H222.123L223.15 249.953L223.944 244.489H224.803L223.589 252.054H222.824L221.768 246.451L220.704 252.054H219.9V252.054Z" fill="#CCCCCC"/>
<path d="M227.585 252.138C227.075 252.138 226.667 252.038 226.361 251.839C226.057 251.64 225.838 251.355 225.708 250.985C225.577 250.615 225.512 250.18 225.512 249.683V246.815C225.512 246.318 225.578 245.889 225.712 245.532C225.846 245.174 226.064 244.9 226.366 244.71C226.668 244.519 227.075 244.425 227.585 244.425C228.095 244.425 228.5 244.522 228.798 244.715C229.097 244.908 229.314 245.183 229.448 245.537C229.582 245.892 229.649 246.319 229.649 246.816V249.693C229.649 250.185 229.583 250.614 229.448 250.982C229.314 251.349 229.098 251.633 228.798 251.836C228.5 252.037 228.095 252.138 227.585 252.138ZM227.585 251.308C227.866 251.308 228.077 251.25 228.22 251.134C228.363 251.019 228.459 250.857 228.51 250.649C228.559 250.44 228.585 250.196 228.585 249.916V246.602C228.585 246.321 228.559 246.08 228.51 245.877C228.46 245.675 228.364 245.519 228.22 245.41C228.078 245.302 227.866 245.247 227.585 245.247C227.305 245.247 227.091 245.302 226.946 245.41C226.799 245.519 226.701 245.675 226.651 245.877C226.601 246.08 226.576 246.321 226.576 246.602V249.916C226.576 250.196 226.601 250.441 226.651 250.649C226.701 250.858 226.799 251.019 226.946 251.134C227.091 251.25 227.305 251.308 227.585 251.308Z" fill="#CCCCCC"/>
<path d="M230.684 252.055V244.49H232.206C232.711 244.49 233.128 244.558 233.457 244.692C233.787 244.826 234.032 245.04 234.19 245.336C234.349 245.633 234.428 246.02 234.428 246.498C234.428 246.791 234.397 247.057 234.336 247.297C234.273 247.536 234.174 247.739 234.037 247.904C233.9 248.069 233.719 248.189 233.496 248.263L234.57 252.055H233.552L232.562 248.506H231.74V252.055H230.684ZM231.738 247.749H232.14C232.438 247.749 232.682 247.711 232.868 247.637C233.055 247.561 233.192 247.434 233.279 247.254C233.367 247.073 233.41 246.82 233.41 246.497C233.41 246.056 233.329 245.737 233.167 245.541C233.005 245.344 232.684 245.246 232.205 245.246H231.738V247.749Z" fill="#CCCCCC"/>
<path d="M235.531 252.055V244.49H237.175C237.734 244.49 238.179 244.576 238.505 244.747C238.832 244.919 239.065 245.175 239.205 245.518C239.345 245.86 239.415 246.287 239.415 246.798V249.58C239.415 250.116 239.345 250.567 239.205 250.934C239.065 251.302 238.838 251.58 238.524 251.77C238.209 251.96 237.787 252.055 237.259 252.055H235.531ZM236.587 251.298H237.184C237.571 251.298 237.844 251.223 238.006 251.074C238.168 250.924 238.266 250.706 238.3 250.42C238.334 250.134 238.352 249.788 238.352 249.384V246.928C238.352 246.536 238.327 246.219 238.277 245.975C238.228 245.732 238.119 245.555 237.95 245.443C237.782 245.331 237.517 245.275 237.156 245.275H236.586V251.298H236.587Z" fill="#CCCCCC"/>
<path d="M323.576 160.071C323.576 160.071 322.466 168.809 322.882 170.058C323.299 171.306 325.795 176.3 325.934 176.716C326.072 177.132 323.021 179.767 323.575 181.015C324.13 182.263 327.182 183.789 327.182 183.789C327.182 183.789 334.672 192.389 335.643 192.251C336.614 192.112 340.22 190.17 340.22 190.17L342.301 195.025L362.968 186.287L356.727 176.023C356.727 176.023 350.207 159.517 344.104 154.246C338.001 148.975 326.073 154.107 323.576 160.071Z" fill="#FDE2D0" stroke="#263238" stroke-width="0.876" stroke-miterlimit="10" stroke-linecap="round" stroke-linejoin="round"/>
<path d="M335.641 192.251L340.878 186.62L340.219 190.17L335.641 192.251Z" fill="#263238" stroke="#263238" stroke-width="0.876" stroke-miterlimit="10" stroke-linecap="round" stroke-linejoin="round"/>
<path d="M324.826 153.968C325.242 154.106 324.688 148.142 322.746 149.667C320.804 151.193 320.665 156.741 320.665 156.741C320.665 156.741 318.169 153.69 317.614 156.186C317.06 158.683 320.805 162.844 322.191 162.706C323.578 162.567 329.404 157.157 329.127 158.822C328.849 160.486 327.046 163.399 328.156 163.954C329.266 164.509 332.04 163.399 332.04 163.399C332.04 163.399 332.456 169.641 334.121 169.364C335.785 169.086 337.033 166.451 338.282 168.116C339.53 169.78 348.13 178.242 348.684 178.242C349.239 178.242 356.729 176.023 356.729 176.023C356.729 176.023 357.284 167.423 357.7 161.736C358.116 156.049 354.787 148.42 349.932 145.369C345.078 142.318 337.865 143.011 334.397 145.369C330.93 147.727 324.826 153.968 324.826 153.968Z" fill="#363641" stroke="#263238" stroke-width="0.876" stroke-miterlimit="10" stroke-linecap="round" stroke-linejoin="round"/>
<path d="M339.698 194.392L336.656 203.009C336.656 203.009 345.949 197.941 354.904 194.899C363.86 191.858 369.773 191.013 369.773 191.013L365.21 184.255C365.21 184.255 346.456 186.113 339.698 194.392Z" fill="#363636" stroke="#263238" stroke-width="0.876" stroke-miterlimit="10" stroke-linecap="round" stroke-linejoin="round"/>
<path d="M292.082 214.558L311.24 246.703C311.383 246.943 311.666 247.062 311.938 246.995L329.919 242.579C330.331 242.478 330.531 242.01 330.319 241.643L313.703 212.81C313.583 212.602 313.357 212.479 313.117 212.492L292.594 213.597C292.117 213.622 291.838 214.147 292.082 214.558Z" fill="#263238" stroke="#263238" stroke-width="0.876" stroke-miterlimit="10" stroke-linecap="round" stroke-linejoin="round"/>
<path d="M294.203 215.832L311.442 244.758L328.096 240.668L313.195 214.809L294.203 215.832Z" fill="#878787" stroke="#263238" stroke-width="0.876" stroke-miterlimit="10" stroke-linecap="round" stroke-linejoin="round"/>
<path d="M325.672 221.088C325.672 221.088 320.603 223.791 318.745 224.636C316.886 225.48 315.872 226.156 317.055 227.17C318.237 228.183 322.292 225.818 322.292 225.818L325.503 224.467L325.672 221.088Z" fill="#FDE2D0" stroke="#FDE2D0" stroke-width="0.876" stroke-miterlimit="10" stroke-linecap="round" stroke-linejoin="round"/>
<path d="M366.889 402.784L368.035 411.57C368.035 411.57 366.889 413.479 363.26 413.861C359.631 414.243 356.957 414.816 356.957 414.816L357.954 406.272L366.889 402.784Z" fill="white" stroke="#263238" stroke-width="0.876" stroke-miterlimit="10" stroke-linecap="round" stroke-linejoin="round"/>
<path d="M368.034 411.57L367.868 410.297C364.451 411.626 360.316 412.053 357.266 412.168L356.957 414.816C356.957 414.816 359.631 414.243 363.26 413.861C366.889 413.479 368.034 411.57 368.034 411.57Z" fill="white" stroke="#263238" stroke-width="0.876" stroke-miterlimit="10" stroke-linecap="round" stroke-linejoin="round"/>
<path d="M340.918 399.156L330.987 405.268C330.987 405.268 326.595 406.413 324.111 406.604C321.629 406.795 321.629 409.469 322.775 410.425C323.92 411.379 327.72 412.998 332.515 414.053C342.064 416.154 355.816 415.39 356.961 414.817C358.107 414.244 359.062 413.289 359.253 412.525C359.444 411.761 359.253 404.313 359.253 404.313C359.253 404.313 344.738 402.593 340.918 399.156Z" fill="white" stroke="#263238" stroke-width="0.876" stroke-miterlimit="10" stroke-linecap="round" stroke-linejoin="round"/>
<path d="M331.178 411.57C325.579 409.87 323.28 408.485 322.359 407.551C321.777 408.47 322.033 409.806 322.775 410.424C323.921 411.379 327.72 412.998 332.515 414.053C342.064 416.154 355.816 415.39 356.962 414.817C358.034 414.281 358.93 413.413 359.198 412.678C352.812 413.224 339.17 413.996 331.178 411.57Z" fill="white" stroke="#263238" stroke-width="0.876" stroke-miterlimit="10" stroke-linecap="round" stroke-linejoin="round"/>
<path d="M372.082 278.091C372.082 278.091 372.082 287.509 368.943 292.566C365.805 297.623 361.445 302.159 361.445 302.856C361.445 303.553 357.259 336.166 357.259 337.91C357.259 339.654 357.085 344.711 358.131 347.327C359.178 349.943 363.188 366.51 365.63 381.334C368.072 396.158 367.026 399.82 367.026 399.82C367.026 399.82 368.073 402.436 368.073 403.134C368.073 403.831 367.55 405.75 367.55 405.75C367.55 405.75 364.76 406.622 362.143 406.622C359.527 406.622 357.957 406.273 357.957 406.273C357.957 406.273 357.783 403.483 358.306 402.087C358.829 400.692 358.48 396.855 358.48 395.983C358.48 395.112 351.853 349.943 351.853 346.454C351.853 342.966 351.679 305.995 351.679 305.995L350.109 280.358C350.109 280.358 359.177 280.01 372.082 278.091Z" fill="#3C3C48" stroke="#263238" stroke-width="0.876" stroke-miterlimit="10" stroke-linecap="round" stroke-linejoin="round"/>
<path d="M359.697 297.798C359.697 297.798 355.512 305.472 355.163 306.169C354.814 306.867 354.814 312.971 354.814 314.366C354.814 315.762 353.943 342.269 354.117 345.932C354.291 349.595 357.081 360.93 357.954 367.731C358.825 374.533 360.395 394.414 360.57 394.937C360.744 395.46 361.442 397.902 361.093 399.471C360.744 401.041 359.871 402.785 359.871 402.785C359.871 402.785 360.394 405.75 360.046 406.622C359.697 407.494 354.989 408.366 348.361 406.448C341.734 404.529 338.944 400.344 338.944 400.344C338.944 400.344 339.292 399.472 339.292 397.728C339.292 395.984 341.037 395.635 341.037 395.635L337.723 372.266C337.723 372.266 334.584 364.942 334.409 363.721C334.234 362.5 335.106 359.535 334.932 358.315C334.757 357.094 332.665 354.478 332.49 353.258C332.316 352.037 326.561 332.505 326.212 315.24C325.863 297.975 326.515 281.915 326.515 281.915C326.515 281.915 330.92 284.197 344.524 283.325C358.126 282.454 363.533 282.279 369.986 279.488" fill="#3C3C48"/>
<path d="M359.697 297.798C359.697 297.798 355.512 305.472 355.163 306.169C354.814 306.867 354.814 312.971 354.814 314.366C354.814 315.762 353.943 342.269 354.117 345.932C354.291 349.595 357.081 360.93 357.954 367.731C358.825 374.533 360.395 394.414 360.57 394.937C360.744 395.46 361.442 397.902 361.093 399.471C360.744 401.041 359.871 402.785 359.871 402.785C359.871 402.785 360.394 405.75 360.046 406.622C359.697 407.494 354.989 408.366 348.361 406.448C341.734 404.529 338.944 400.344 338.944 400.344C338.944 400.344 339.292 399.472 339.292 397.728C339.292 395.984 341.037 395.635 341.037 395.635L337.723 372.266C337.723 372.266 334.584 364.942 334.409 363.721C334.234 362.5 335.106 359.535 334.932 358.315C334.757 357.094 332.665 354.478 332.49 353.258C332.316 352.037 326.561 332.505 326.212 315.24C325.863 297.975 326.515 281.915 326.515 281.915C326.515 281.915 330.92 284.197 344.524 283.325C358.126 282.454 363.533 282.279 369.986 279.488" stroke="#263238" stroke-width="0.876" stroke-miterlimit="10" stroke-linecap="round" stroke-linejoin="round"/>
<path d="M345.336 384.862L346.452 396.482C346.452 396.482 344.924 397.437 345.497 399.346C346.07 401.256 346.452 402.402 346.452 402.402" stroke="#3C3C48" stroke-width="0.876" stroke-miterlimit="10" stroke-linecap="round" stroke-linejoin="round"/>
<path d="M335.328 326.606C335.46 327.451 335.603 328.271 335.757 329.063C338.813 344.724 342.251 356.565 342.442 357.138C342.633 357.711 340.151 359.811 341.105 360.958C342.06 362.104 343.206 362.677 343.206 362.677L344.962 380.95" stroke="#3C3C48" stroke-width="0.876" stroke-miterlimit="10" stroke-linecap="round" stroke-linejoin="round"/>
<path d="M334.23 286.663C334.23 286.663 333.119 306.102 334.686 321.538" stroke="#3C3C48" stroke-width="0.876" stroke-miterlimit="10" stroke-linecap="round" stroke-linejoin="round"/>
<path d="M329.835 286.281C329.835 286.281 329.262 293.157 333.082 296.594" stroke="#3C3C48" stroke-width="0.876" stroke-miterlimit="10" stroke-linecap="round" stroke-linejoin="round"/>
<path d="M359.056 287.237C354.663 289.147 345.113 289.338 345.113 289.338L346.259 292.202C346.259 292.202 352.944 291.821 355.617 290.866" stroke="#3C3C48" stroke-width="0.876" stroke-miterlimit="10" stroke-linecap="round" stroke-linejoin="round"/>
<path d="M326.512 281.913C326.512 281.913 328.877 286.307 347.294 285.292C365.711 284.279 372.807 281.237 372.976 279.716C373.145 278.196 372.637 274.648 372.637 274.648C372.637 274.648 337.832 277.182 326.512 281.913Z" fill="#C2C2C2" stroke="#263238" stroke-width="0.876" stroke-miterlimit="10" stroke-linecap="round" stroke-linejoin="round"/>
<path d="M336.653 203.009C336.653 203.009 326.346 207.739 326.177 209.26C326.008 210.78 320.602 251.669 320.602 251.669L312.492 242.207C312.492 242.207 312.661 238.827 312.153 237.476C311.646 236.124 311.477 235.11 310.295 234.603C309.112 234.096 305.226 233.082 304.212 232.238C303.198 231.394 300.326 228.69 299.649 229.704C298.973 230.717 297.622 232.407 297.96 233.59C298.298 234.772 299.649 237.137 299.649 237.814C299.649 238.49 299.649 243.559 301.846 245.924C304.042 248.289 307.252 249.303 307.252 249.303C307.252 249.303 312.49 263.158 314.349 265.862C316.208 268.565 323.979 274.816 323.979 274.816C323.979 274.816 322.121 279.209 322.628 279.547C323.135 279.885 325.5 283.433 326.176 283.433C326.852 283.433 347.127 280.054 348.648 279.885C350.168 279.716 365.375 279.885 366.557 279.378C367.74 278.871 371.626 277.182 372.471 276.506C373.316 275.83 374.667 274.647 373.992 271.944C373.317 269.24 372.64 250.148 372.64 248.458C372.64 246.768 376.02 233.421 377.54 228.183C379.061 222.945 381.933 207.57 382.102 205.036C382.271 202.501 380.243 196.587 379.568 196.249C378.892 195.911 369.768 191.012 369.768 191.012C369.768 191.012 354.731 192.195 336.653 203.009Z" fill="#C2C2C2" stroke="#263238" stroke-width="0.876" stroke-miterlimit="10" stroke-linecap="round" stroke-linejoin="round"/>
<path d="M323.98 274.817C323.98 274.817 329.894 273.803 330.908 272.958C331.921 272.113 340.877 245.924 341.215 244.404C341.553 242.883 342.059 224.467 342.059 224.467" stroke="#263238" stroke-width="0.876" stroke-miterlimit="10" stroke-linecap="round" stroke-linejoin="round"/>
<path d="M341.891 235.956L344.763 225.649" stroke="#263238" stroke-width="0.876" stroke-miterlimit="10" stroke-linecap="round" stroke-linejoin="round"/>
<path d="M319.927 261.806C319.42 258.934 320.603 251.668 320.603 251.668C320.603 251.668 321.786 258.765 323.983 261.637" stroke="#263238" stroke-width="0.876" stroke-miterlimit="10" stroke-linecap="round" stroke-linejoin="round"/>
<path d="M312.492 242.207C312.492 242.207 312.661 238.827 312.153 237.476C311.646 236.124 311.477 235.11 310.295 234.603C309.112 234.096 305.226 233.082 304.212 232.238C303.198 231.393 300.326 228.69 299.649 229.704C298.973 230.717 297.622 232.407 297.96 233.59C298.298 234.772 299.649 237.137 299.649 237.814C299.649 238.49 299.649 243.558 301.846 245.924C304.042 248.289 307.252 249.303 307.252 249.303C307.252 249.303 307.546 250.079 308.015 251.291C309.045 248.803 311.134 245.745 315.216 245.387L312.492 242.207Z" fill="#FDE2D0" stroke="#FDE2D0" stroke-width="0.876" stroke-miterlimit="10" stroke-linecap="round" stroke-linejoin="round"/>
<path d="M309.785 254.541C309.785 254.541 310.968 250.317 315.868 248.627" stroke="#263238" stroke-width="0.876" stroke-miterlimit="10" stroke-linecap="round" stroke-linejoin="round"/>
</svg>
