<svg width="24" height="24" viewBox="0 0 24 24" fill="none" xmlns="http://www.w3.org/2000/svg">
<g id="User">
<path id="Vector" d="M15.1323 14.3786C15.0267 14.3422 14.9335 14.2769 14.863 14.1904C14.7925 14.1038 14.7476 13.9992 14.7333 13.8885C14.7169 13.7817 14.7307 13.6725 14.7731 13.5732C14.8155 13.4738 14.8848 13.3884 14.9733 13.3264C15.9644 12.6167 16.7983 10.5337 16.7983 9.60144V7.97744C16.8126 6.70875 16.337 5.48342 15.4704 4.55665C14.6039 3.62987 13.4132 3.0731 12.1464 3.00227C11.5039 2.9825 10.8639 3.09203 10.2644 3.32436C9.66501 3.55668 9.11837 3.90707 8.65695 4.35472C8.19554 4.80237 7.82876 5.33815 7.57839 5.93028C7.32802 6.5224 7.19917 7.15879 7.19947 7.80166V9.60144C7.19947 10.5337 8.03337 12.6167 9.02204 13.3264C9.11055 13.3883 9.17994 13.4738 9.22235 13.5731C9.26476 13.6725 9.2785 13.7817 9.26201 13.8885C9.24771 13.9992 9.20279 14.1038 9.13231 14.1904C9.06183 14.2769 8.96858 14.3422 8.86306 14.3786C6.34758 15.2947 3 16.9151 3 20.4001C3 20.5592 3.06321 20.7118 3.17571 20.8243C3.28822 20.9368 3.44081 21 3.59992 21H20.3978C20.5569 21 20.7095 20.9368 20.822 20.8243C20.9345 20.7118 20.9977 20.5592 20.9977 20.4001C20.9977 16.9151 17.6502 15.2947 15.1323 14.3786ZM4.24484 19.8002C4.52381 18.0004 6.10461 16.6583 9.27521 15.5065C9.58539 15.3945 9.85904 15.1998 10.0665 14.9435C10.274 14.6872 10.4074 14.379 10.4523 14.0523C10.4969 13.729 10.4522 13.3996 10.3229 13.0999C10.1937 12.8002 9.9849 12.5416 9.71915 12.3521C9.06284 11.8811 8.39932 10.1678 8.39932 9.60144V7.80166C8.39909 7.31943 8.49576 6.84206 8.68359 6.39791C8.87142 5.95375 9.14658 5.55187 9.49274 5.21612C9.8389 4.88037 10.249 4.6176 10.6987 4.44341C11.1484 4.26922 11.6284 4.18717 12.1105 4.20212C13.066 4.26159 13.9618 4.6872 14.6114 5.39039C15.2611 6.09359 15.6146 7.02021 15.5984 7.97744V9.60144C15.5984 10.1678 14.9349 11.8811 14.2786 12.3515C14.0132 12.5412 13.8048 12.7999 13.6759 13.0996C13.547 13.3993 13.5025 13.7285 13.5473 14.0517C13.5921 14.3784 13.7255 14.6866 13.933 14.9429C14.1405 15.1992 14.4141 15.3939 14.7243 15.5059C17.8901 16.6583 19.4739 18.0004 19.7529 19.8002H4.24484Z" fill="url(#paint0_linear_7146_1102)"/>
</g>
<defs>
<linearGradient id="paint0_linear_7146_1102" x1="11.9989" y1="3.23077" x2="11.9989" y2="20.3077" gradientUnits="userSpaceOnUse">
<stop stop-color="#FF7312"/>
<stop offset="1" stop-color="#182452"/>
</linearGradient>
</defs>
</svg>