<svg width="439" height="438" viewBox="0 0 439 438" fill="none" xmlns="http://www.w3.org/2000/svg">
<path d="M275.23 325.052H14.9805C9.70219 325.052 5.42188 320.773 5.42188 315.495V76.0586C5.42188 70.7803 9.70073 66.5 14.9805 66.5H275.23C280.508 66.5 284.787 70.7788 284.787 76.0586V315.493C284.788 320.772 280.508 325.052 275.23 325.052Z" fill="#383838"/>
<path d="M275.241 325.052C275.241 325.052 275.472 325.027 275.928 324.998C276.383 324.967 277.063 324.873 277.929 324.622C278.784 324.354 279.833 323.914 280.899 323.113C281.957 322.316 283.055 321.161 283.794 319.567C284.62 317.992 284.788 316.002 284.704 313.827C284.699 311.649 284.693 309.267 284.687 306.688C284.677 301.528 284.665 295.575 284.652 288.875C284.623 262.059 284.582 223.276 284.531 175.353C284.517 151.388 284.502 125.139 284.484 96.9603C284.471 89.9221 284.458 82.763 284.445 75.4903C284.276 71.9617 281.842 68.6401 278.465 67.4221C276.794 66.7257 274.962 66.8379 273.087 66.8335C271.225 66.835 269.355 66.835 267.48 66.8365C252.47 66.8408 237.021 66.8467 221.179 66.8525C157.809 66.8612 88.1426 66.8714 15.0176 66.8831C12.8162 66.886 10.6411 67.6902 8.98755 69.131C7.32088 70.5544 6.20637 72.5969 5.91645 74.7604C5.76639 75.8239 5.82612 76.972 5.81301 78.1069V81.5072C5.81301 83.7727 5.81301 86.0337 5.81301 88.2904C5.81301 97.3202 5.81154 106.29 5.81154 115.196C5.81009 133.006 5.80718 150.554 5.80572 167.798C5.79843 202.285 5.79115 235.55 5.78387 267.239C5.77804 283.084 5.77367 298.534 5.76784 313.546C5.77512 314.478 5.74307 315.438 5.80863 316.325C5.9077 317.22 6.08982 318.11 6.43801 318.942C7.10963 320.611 8.2795 322.061 9.74366 323.082C11.2137 324.096 12.9677 324.675 14.7422 324.714C16.5735 324.718 18.399 324.724 20.2157 324.728C27.4972 324.731 34.6635 324.736 41.709 324.739C69.8894 324.755 96.1394 324.771 120.105 324.785C168.028 324.836 206.808 324.877 233.621 324.906C247.015 324.937 257.417 324.962 264.483 324.978C268.004 324.994 270.691 325.007 272.509 325.015C274.314 325.026 275.241 325.052 275.241 325.052C275.241 325.052 274.314 325.078 272.506 325.091C270.688 325.1 268.001 325.112 264.48 325.129C257.416 325.145 247.012 325.17 233.618 325.201C206.805 325.23 168.025 325.27 120.102 325.321C96.1365 325.336 69.8865 325.351 41.7061 325.368C34.6606 325.371 27.4943 325.375 20.2128 325.378C18.3902 325.375 16.5589 325.371 14.7218 325.368C12.8235 325.327 10.9398 324.71 9.36488 323.624C7.79437 322.532 6.53999 320.98 5.81883 319.191C5.44733 318.299 5.24773 317.345 5.14284 316.385C5.07145 315.404 5.10643 314.491 5.09769 313.547C5.09186 298.535 5.08749 283.085 5.08166 267.24C5.07437 235.552 5.06709 202.285 5.05981 167.8C5.05835 150.556 5.05544 133.006 5.05398 115.197C5.05398 106.293 5.05252 97.3216 5.05252 88.2919C5.05252 86.0337 5.05252 83.7727 5.05252 81.5087V78.1083C5.06708 76.9792 5.00007 75.8443 5.16324 74.6555C5.47793 72.3129 6.68568 70.0999 8.48783 68.5599C10.2754 67.0011 12.6385 66.127 15.0146 66.127C88.1397 66.1372 157.808 66.1474 221.176 66.1561C237.018 66.1619 252.467 66.1663 267.477 66.1721C269.353 66.1721 271.223 66.1736 273.084 66.1736C274.907 66.1794 276.896 66.0599 278.692 66.8088C282.309 68.1185 284.911 71.6747 285.091 75.4539C285.098 82.7412 285.104 89.9119 285.111 96.9632C285.093 125.142 285.079 151.391 285.064 175.356C285.013 223.279 284.973 262.062 284.943 288.878C284.93 295.578 284.919 301.531 284.908 306.691C284.901 309.27 284.895 311.652 284.891 313.83C284.962 315.987 284.779 318.053 283.928 319.637C283.166 321.251 282.043 322.414 280.965 323.209C279.878 324.01 278.813 324.441 277.946 324.701C277.07 324.941 276.384 325.023 275.927 325.04C275.472 325.053 275.241 325.052 275.241 325.052Z" fill="#263238"/>
<path d="M26.5028 84.4204C26.5028 87.0879 24.3408 89.2499 21.6733 89.2499C19.0058 89.2499 16.8438 87.0879 16.8438 84.4204C16.8438 81.7528 19.0058 79.5908 21.6733 79.5908C24.3408 79.5908 26.5028 81.7528 26.5028 84.4204Z" fill="#585858"/>
<path d="M35.7866 89.2499C38.4539 89.2499 40.6161 87.0877 40.6161 84.4204C40.6161 81.7531 38.4539 79.5908 35.7866 79.5908C33.1193 79.5908 30.957 81.7531 30.957 84.4204C30.957 87.0877 33.1193 89.2499 35.7866 89.2499Z" fill="#585858"/>
<path d="M49.8921 89.2499C52.5593 89.2499 54.7216 87.0877 54.7216 84.4204C54.7216 81.7531 52.5593 79.5908 49.8921 79.5908C47.2248 79.5908 45.0625 81.7531 45.0625 84.4204C45.0625 87.0877 47.2248 89.2499 49.8921 89.2499Z" fill="#585858"/>
<path d="M284.788 98.121C284.788 98.3308 222.245 98.4998 145.112 98.4998C67.9525 98.4998 5.42188 98.3293 5.42188 98.121C5.42188 97.9126 67.9511 97.7422 145.112 97.7422C222.245 97.7422 284.788 97.9126 284.788 98.121Z" fill="#848484"/>
<path d="M184.579 195.518C184.579 195.518 184.69 195.363 184.913 195.069C184.969 194.995 185.032 194.913 185.101 194.821C185.165 194.727 185.221 194.613 185.29 194.495C185.425 194.257 185.594 193.986 185.715 193.645C185.781 193.478 185.861 193.305 185.928 193.114C185.982 192.92 186.037 192.716 186.097 192.5C186.166 192.288 186.202 192.059 186.238 191.819C186.269 191.578 186.335 191.331 186.343 191.067C186.457 190.018 186.387 188.794 186.177 187.442C185.759 184.731 184.61 181.539 182.85 178.07C181.093 174.592 178.674 170.853 175.702 166.954C172.729 163.054 169.154 159.027 165.045 154.983C160.931 150.943 156.273 146.886 151.053 143.039C148.441 141.119 145.686 139.257 142.783 137.505C139.882 135.746 136.823 134.107 133.596 132.687C130.369 131.284 126.964 130.062 123.373 129.482C121.584 129.206 119.738 129.072 117.921 129.348C117.015 129.488 116.126 129.734 115.287 130.11C114.462 130.512 113.703 131.048 113.077 131.725C112.475 132.425 112.025 133.239 111.718 134.103C111.439 134.979 111.292 135.891 111.257 136.807C111.189 138.643 111.531 140.462 112.009 142.209C112.992 145.711 114.595 148.956 116.355 152.004C118.134 155.048 120.111 157.902 122.187 160.585C124.26 163.271 126.423 165.797 128.629 168.173C133.045 172.923 137.606 177.09 142.088 180.717C146.573 184.34 150.982 187.433 155.195 189.944C159.407 192.452 163.397 194.429 167.051 195.78C170.698 197.133 174.001 197.911 176.741 198.019C178.108 198.073 179.331 198.003 180.36 197.771C180.621 197.733 180.86 197.64 181.094 197.582C181.329 197.519 181.553 197.457 181.756 197.363C181.961 197.28 182.158 197.202 182.344 197.126C182.525 197.037 182.689 196.939 182.848 196.855C183.173 196.696 183.422 196.498 183.644 196.336C183.753 196.255 183.859 196.185 183.947 196.111C184.03 196.032 184.104 195.959 184.171 195.895C184.438 195.646 184.579 195.518 184.579 195.518C184.579 195.518 184.449 195.655 184.186 195.917C184.12 195.982 184.046 196.055 183.964 196.137C183.878 196.213 183.772 196.284 183.664 196.367C183.444 196.532 183.195 196.734 182.87 196.897C182.711 196.985 182.547 197.084 182.366 197.174C182.178 197.251 181.981 197.333 181.775 197.417C181.571 197.512 181.346 197.576 181.11 197.642C180.874 197.701 180.634 197.798 180.372 197.837C179.337 198.077 178.108 198.155 176.735 198.106C173.982 198.012 170.667 197.243 167.008 195.896C163.341 194.555 159.339 192.583 155.115 190.079C150.89 187.573 146.471 184.483 141.974 180.861C137.481 177.235 132.908 173.069 128.482 168.315C126.272 165.936 124.103 163.407 122.022 160.716C119.939 158.028 117.956 155.168 116.17 152.114C114.401 149.058 112.791 145.802 111.799 142.27C111.318 140.509 110.97 138.67 111.04 136.803C111.075 135.87 111.225 134.938 111.511 134.039C111.825 133.149 112.29 132.309 112.912 131.585C113.561 130.885 114.344 130.331 115.192 129.917C116.053 129.53 116.962 129.279 117.885 129.136C119.732 128.857 121.597 128.994 123.402 129.272C127.021 129.856 130.439 131.086 133.676 132.495C136.911 133.921 139.978 135.566 142.885 137.328C145.794 139.088 148.553 140.955 151.167 142.881C156.393 146.737 161.052 150.806 165.166 154.856C169.276 158.912 172.85 162.951 175.82 166.862C178.789 170.773 181.203 174.525 182.955 178.015C184.709 181.498 185.849 184.703 186.257 187.429C186.461 188.787 186.525 190.018 186.404 191.073C186.396 191.338 186.327 191.587 186.295 191.829C186.257 192.071 186.218 192.301 186.148 192.515C186.087 192.731 186.029 192.935 185.973 193.13C185.905 193.319 185.823 193.494 185.755 193.662C185.629 194.004 185.458 194.273 185.318 194.511C185.246 194.629 185.188 194.741 185.122 194.836C185.051 194.926 184.987 195.008 184.929 195.081C184.701 195.372 184.579 195.518 184.579 195.518Z" fill="#109b4f"/>
<path d="M197.792 163.594C197.792 163.594 197.772 163.405 197.743 163.036C197.735 162.944 197.728 162.841 197.718 162.726C197.702 162.612 197.67 162.49 197.642 162.356C197.584 162.088 197.531 161.774 197.393 161.439C197.33 161.27 197.274 161.088 197.198 160.902C197.109 160.721 197.014 160.532 196.917 160.332C196.826 160.128 196.701 159.933 196.568 159.729C196.432 159.529 196.316 159.301 196.146 159.098C195.533 158.24 194.666 157.373 193.61 156.505C191.493 154.761 188.511 153.144 184.887 151.726C181.261 150.301 176.968 149.12 172.154 148.189C167.339 147.258 161.991 146.632 156.232 146.349C150.473 146.074 144.296 146.145 137.84 146.751C134.613 147.057 131.318 147.501 127.983 148.126C124.648 148.745 121.274 149.56 117.92 150.647C114.578 151.748 111.225 153.102 108.159 155.06C106.64 156.044 105.174 157.175 104.003 158.588C103.42 159.295 102.92 160.071 102.545 160.91C102.198 161.76 101.988 162.664 101.972 163.588C101.988 164.512 102.195 165.418 102.542 166.267C102.918 167.106 103.414 167.884 103.999 168.591C105.168 170.007 106.635 171.136 108.155 172.123C111.22 174.082 114.575 175.437 117.918 176.538C121.271 177.627 124.647 178.44 127.982 179.06C131.316 179.685 134.613 180.13 137.84 180.435C144.297 181.04 150.474 181.113 156.233 180.836C161.992 180.553 167.342 179.927 172.157 178.996C176.969 178.065 181.264 176.884 184.889 175.459C188.51 174.041 191.494 172.424 193.61 170.68C194.666 169.812 195.531 168.944 196.145 168.087C196.315 167.884 196.43 167.657 196.567 167.456C196.7 167.252 196.826 167.057 196.915 166.853C197.014 166.653 197.108 166.464 197.196 166.283C197.272 166.097 197.329 165.915 197.392 165.746C197.529 165.411 197.583 165.097 197.641 164.829C197.667 164.695 197.701 164.573 197.717 164.459C197.725 164.346 197.734 164.242 197.741 164.149C197.772 163.783 197.792 163.594 197.792 163.594C197.792 163.594 197.786 163.783 197.765 164.153C197.759 164.247 197.753 164.35 197.746 164.465C197.731 164.579 197.7 164.703 197.676 164.838C197.622 165.108 197.571 165.424 197.437 165.762C197.376 165.932 197.32 166.116 197.246 166.304C197.157 166.486 197.065 166.678 196.968 166.879C196.879 167.085 196.754 167.283 196.621 167.488C196.484 167.691 196.369 167.921 196.2 168.125C195.588 168.992 194.721 169.869 193.665 170.746C191.547 172.507 188.561 174.14 184.934 175.572C181.305 177.012 177.004 178.205 172.186 179.146C167.365 180.089 162.01 180.724 156.244 181.015C150.477 181.299 144.291 181.234 137.823 180.634C134.59 180.329 131.287 179.886 127.945 179.263C124.602 178.644 121.219 177.829 117.853 176.739C114.5 175.635 111.13 174.277 108.04 172.303C106.509 171.308 105.026 170.169 103.834 168.729C103.239 168.01 102.731 167.214 102.345 166.353C101.988 165.479 101.774 164.544 101.758 163.59C101.774 162.635 101.991 161.7 102.348 160.827C102.732 159.966 103.244 159.172 103.838 158.453C105.031 157.015 106.513 155.874 108.046 154.882C111.136 152.909 114.504 151.551 117.858 150.449C121.223 149.359 124.605 148.544 127.948 147.927C131.29 147.303 134.591 146.86 137.824 146.556C144.291 145.956 150.477 145.89 156.244 146.174C162.01 146.465 167.365 147.101 172.186 148.042C177.004 148.983 181.305 150.176 184.934 151.616C188.561 153.048 191.547 154.679 193.665 156.442C194.721 157.319 195.588 158.196 196.2 159.063C196.369 159.267 196.484 159.497 196.621 159.7C196.754 159.905 196.879 160.103 196.968 160.31C197.065 160.511 197.159 160.704 197.246 160.886C197.32 161.074 197.377 161.257 197.437 161.428C197.571 161.766 197.622 162.082 197.676 162.351C197.7 162.487 197.733 162.609 197.746 162.724C197.753 162.839 197.759 162.943 197.765 163.036C197.786 163.405 197.792 163.594 197.792 163.594Z" fill="#109b4f"/>
<path d="M180.286 123.855C180.286 123.855 180.124 123.755 179.815 123.552C179.738 123.501 179.65 123.444 179.556 123.382C179.457 123.325 179.34 123.275 179.218 123.216C178.972 123.098 178.69 122.947 178.341 122.85C178.169 122.796 177.99 122.729 177.796 122.675C177.599 122.636 177.391 122.593 177.172 122.548C176.957 122.494 176.724 122.474 176.482 122.455C176.24 122.44 175.988 122.392 175.724 122.403C174.669 122.362 173.453 122.515 172.12 122.818C169.445 123.422 166.339 124.789 162.998 126.783C159.65 128.775 156.085 131.447 152.402 134.68C148.717 137.914 144.945 141.759 141.193 146.137C137.446 150.519 133.719 155.445 130.242 160.918C128.507 163.656 126.839 166.533 125.29 169.552C123.735 172.567 122.312 175.732 121.117 179.049C119.94 182.365 118.955 185.845 118.625 189.467C118.473 191.272 118.467 193.122 118.867 194.914C119.068 195.807 119.375 196.679 119.809 197.489C120.267 198.284 120.855 199.004 121.573 199.582C122.314 200.134 123.156 200.526 124.04 200.774C124.933 200.991 125.852 201.075 126.769 201.046C128.604 200.988 130.396 200.522 132.107 199.924C135.533 198.702 138.66 196.88 141.578 194.914C144.493 192.93 147.203 190.762 149.736 188.505C152.274 186.252 154.645 183.919 156.863 181.556C161.298 176.824 165.14 171.986 168.45 167.264C171.756 162.54 174.537 157.929 176.751 153.552C178.964 149.179 180.661 145.06 181.757 141.322C182.856 137.591 183.405 134.243 183.323 131.501C183.284 130.134 183.129 128.918 182.826 127.908C182.771 127.65 182.662 127.419 182.587 127.188C182.509 126.958 182.43 126.74 182.325 126.543C182.228 126.343 182.136 126.153 182.047 125.972C181.946 125.799 181.837 125.641 181.742 125.488C181.562 125.175 181.346 124.94 181.17 124.731C181.081 124.627 181.004 124.527 180.924 124.445C180.839 124.368 180.762 124.298 180.694 124.237C180.423 123.986 180.286 123.855 180.286 123.855C180.286 123.855 180.431 123.976 180.711 124.219C180.781 124.281 180.86 124.349 180.946 124.425C181.027 124.506 181.106 124.605 181.196 124.709C181.375 124.917 181.595 125.15 181.78 125.463C181.878 125.616 181.989 125.772 182.092 125.947C182.182 126.129 182.277 126.32 182.376 126.52C182.484 126.716 182.564 126.936 182.646 127.167C182.723 127.398 182.834 127.63 182.892 127.889C183.202 128.905 183.364 130.125 183.411 131.498C183.505 134.251 182.966 137.611 181.877 141.355C180.791 145.105 179.1 149.234 176.891 153.621C174.682 158.007 171.904 162.63 168.6 167.366C165.291 172.098 161.45 176.947 157.012 181.69C154.79 184.059 152.418 186.397 149.876 188.657C147.338 190.921 144.623 193.096 141.699 195.088C138.77 197.062 135.634 198.893 132.18 200.126C130.455 200.727 128.645 201.201 126.777 201.26C125.845 201.29 124.904 201.204 123.987 200.981C123.078 200.727 122.209 200.324 121.444 199.751C120.699 199.154 120.093 198.409 119.623 197.592C119.177 196.76 118.864 195.87 118.658 194.959C118.252 193.135 118.261 191.266 118.413 189.447C118.747 185.796 119.738 182.302 120.921 178.976C122.121 175.649 123.55 172.477 125.109 169.455C126.664 166.431 128.338 163.551 130.077 160.81C133.565 155.331 137.303 150.402 141.061 146.019C144.824 141.639 148.607 137.796 152.305 134.563C156.001 131.332 159.579 128.664 162.94 126.679C166.294 124.688 169.414 123.329 172.104 122.735C173.444 122.438 174.668 122.289 175.729 122.337C175.994 122.328 176.246 122.378 176.49 122.394C176.734 122.416 176.967 122.438 177.184 122.493C177.402 122.54 177.611 122.583 177.809 122.625C178.003 122.681 178.183 122.751 178.355 122.806C178.705 122.907 178.986 123.061 179.232 123.183C179.355 123.246 179.471 123.297 179.57 123.355C179.665 123.421 179.751 123.479 179.828 123.532C180.133 123.743 180.286 123.855 180.286 123.855Z" fill="#109b4f"/>
<path d="M101.357 183.389C102.053 184.085 102.053 185.213 101.357 185.908C100.662 186.603 99.5325 186.603 98.8376 185.908C98.1427 185.213 98.1427 184.084 98.8376 183.389C99.534 182.694 100.662 182.694 101.357 183.389Z" fill="#109b4f"/>
<path d="M201.857 128.191C201.857 129.174 201.06 129.973 200.075 129.973C199.091 129.973 198.293 129.176 198.293 128.191C198.293 127.208 199.09 126.409 200.075 126.409C201.058 126.409 201.857 127.208 201.857 128.191Z" fill="#109b4f"/>
<path d="M112.605 189.247C112.605 189.498 112.403 189.7 112.152 189.7C111.902 189.7 111.699 189.498 111.699 189.247C111.699 188.996 111.902 188.794 112.152 188.794C112.403 188.794 112.605 188.996 112.605 189.247Z" fill="#109b4f"/>
<path d="M122.269 139.332C122.269 139.583 122.067 139.786 121.816 139.786C121.566 139.786 121.363 139.583 121.363 139.332C121.363 139.082 121.566 138.879 121.816 138.879C122.067 138.879 122.269 139.082 122.269 139.332Z" fill="#109b4f"/>
<path d="M192.914 163.593C192.914 163.844 192.711 164.046 192.461 164.046C192.21 164.046 192.008 163.844 192.008 163.593C192.008 163.343 192.21 163.14 192.461 163.14C192.711 163.142 192.914 163.344 192.914 163.593Z" fill="#109b4f"/>
<path d="M199.199 142.489C199.199 142.74 198.997 142.942 198.746 142.942C198.495 142.942 198.293 142.74 198.293 142.489C198.293 142.239 198.495 142.036 198.746 142.036C198.997 142.036 199.199 142.239 199.199 142.489Z" fill="#109b4f"/>
<path d="M167.044 153.212H133.508V186.016H167.044V153.212Z" stroke="#109b4f" stroke-width="0.85627" stroke-miterlimit="10" strokeLinecap="round" stroke-linejoin="round"/>
<path d="M139.661 153.225V145.675C139.661 139.823 144.422 135.062 150.275 135.062C156.126 135.062 160.886 139.823 160.886 145.675V153.225H165.767V145.675C165.767 137.132 158.817 130.182 150.275 130.182C141.731 130.182 134.781 137.132 134.781 145.675V153.225H139.661Z" stroke="#109b4f" stroke-width="0.85627" stroke-miterlimit="10"/>
<path d="M154.133 165.931C154.133 163.801 152.406 162.074 150.275 162.074C148.145 162.074 146.418 163.801 146.418 165.931C146.418 167.566 147.438 168.955 148.873 169.516V177.154H151.679V169.516C153.113 168.955 154.133 167.566 154.133 165.931Z" stroke="#109b4f" stroke-width="0.85627" stroke-miterlimit="10" strokeLinecap="round" stroke-linejoin="round"/>
<path d="M224.524 248.557H70.1245C62.6274 248.557 56.5508 242.48 56.5508 234.983V233.312C56.5508 225.815 62.6274 219.738 70.1245 219.738H224.524C232.021 219.738 238.098 225.815 238.098 233.312V234.983C238.098 242.479 232.021 248.557 224.524 248.557Z" fill="white"/>
<path d="M225.856 288.072H71.4565C63.9594 288.072 57.8828 281.996 57.8828 274.499V272.828C57.8828 265.331 63.9594 259.254 71.4565 259.254H225.856C233.354 259.254 239.43 265.331 239.43 272.828V274.499C239.43 281.996 233.352 288.072 225.856 288.072Z" fill="white"/>
<path d="M85.25 233.919V229.745H86.9764V233.855C86.9764 235.271 87.5941 235.857 88.6373 235.857C89.692 235.857 90.2995 235.271 90.2995 233.855V229.745H92.0026V233.919C92.0026 236.112 90.7468 237.327 88.6285 237.327C86.5073 237.327 85.25 236.113 85.25 233.919Z" fill="#CCCCCC"/>
<path d="M93.0352 236.667L93.5888 235.474C94.1001 235.805 94.8767 236.028 95.5789 236.028C96.3452 236.028 96.6336 235.825 96.6336 235.506C96.6336 234.57 93.1736 235.528 93.1736 233.238C93.1736 232.151 94.154 231.385 95.8251 231.385C96.6118 231.385 97.4859 231.565 98.0293 231.886L97.4757 233.067C96.9104 232.748 96.3466 232.642 95.8251 232.642C95.0791 232.642 94.7601 232.877 94.7601 233.175C94.7601 234.154 98.2216 233.207 98.2216 235.464C98.2216 236.529 97.231 237.285 95.5177 237.285C94.5459 237.285 93.5669 237.019 93.0352 236.667Z" fill="#CCCCCC"/>
<path d="M104.825 234.804H100.49C100.649 235.517 101.255 235.953 102.129 235.953C102.737 235.953 103.174 235.772 103.567 235.399L104.45 236.358C103.918 236.966 103.119 237.285 102.086 237.285C100.106 237.285 98.8164 236.039 98.8164 234.334C98.8164 232.62 100.126 231.386 101.874 231.386C103.556 231.386 104.855 232.515 104.855 234.356C104.857 234.485 104.835 234.665 104.825 234.804ZM100.47 233.835H103.292C103.175 233.111 102.632 232.642 101.886 232.642C101.13 232.642 100.587 233.099 100.47 233.835Z" fill="#CCCCCC"/>
<path d="M109.523 231.386V232.92C109.383 232.91 109.278 232.898 109.15 232.898C108.233 232.898 107.626 233.398 107.626 234.495V237.199H105.965V231.47H107.551V232.226C107.955 231.673 108.637 231.386 109.523 231.386Z" fill="#CCCCCC"/>
<path d="M116.368 233.919V237.199H114.708V234.174C114.708 233.248 114.281 232.822 113.546 232.822C112.748 232.822 112.173 233.312 112.173 234.367V237.199H110.512V231.47H112.098V232.14C112.546 231.651 113.217 231.384 113.994 231.384C115.347 231.386 116.368 232.174 116.368 233.919Z" fill="#CCCCCC"/>
<path d="M122.936 233.931V237.2H121.383V236.486C121.074 237.008 120.478 237.285 119.636 237.285C118.294 237.285 117.496 236.539 117.496 235.549C117.496 234.538 118.208 233.835 119.955 233.835H121.275C121.275 233.121 120.848 232.706 119.955 232.706C119.348 232.706 118.72 232.908 118.305 233.239L117.709 232.078C118.337 231.63 119.262 231.386 120.178 231.386C121.924 231.386 122.936 232.194 122.936 233.931ZM121.275 235.389V234.804H120.136C119.359 234.804 119.115 235.091 119.115 235.474C119.115 235.889 119.466 236.166 120.051 236.166C120.604 236.166 121.083 235.911 121.275 235.389Z" fill="#CCCCCC"/>
<path d="M134.117 233.919V237.199H132.456V234.174C132.456 233.248 132.041 232.822 131.369 232.822C130.623 232.822 130.103 233.302 130.103 234.323V237.199H128.441V234.174C128.441 233.248 128.046 232.822 127.356 232.822C126.62 232.822 126.098 233.302 126.098 234.323V237.199H124.438V231.47H126.024V232.13C126.449 231.641 127.088 231.384 127.823 231.384C128.622 231.384 129.303 231.693 129.708 232.321C130.166 231.735 130.91 231.384 131.774 231.384C133.138 231.386 134.117 232.174 134.117 233.919Z" fill="#CCCCCC"/>
<path d="M141.253 234.804H136.919C137.077 235.517 137.683 235.953 138.558 235.953C139.165 235.953 139.602 235.772 139.995 235.399L140.878 236.358C140.347 236.966 139.547 237.285 138.514 237.285C136.534 237.285 135.246 236.039 135.246 234.334C135.246 232.62 136.554 231.386 138.303 231.386C139.984 231.386 141.283 232.515 141.283 234.356C141.283 234.485 141.263 234.665 141.253 234.804ZM136.898 233.835H139.719C139.602 233.111 139.059 232.642 138.313 232.642C137.558 232.642 137.015 233.099 136.898 233.835Z" fill="#CCCCCC"/>
<path d="M152.23 234.282C152.23 236.187 151.357 237.274 150.048 237.274C149.323 237.274 148.812 236.955 148.589 236.348C148.216 236.945 147.609 237.274 146.768 237.274C145.394 237.274 144.307 236.187 144.307 234.58C144.307 232.982 145.383 231.897 146.768 231.897C147.47 231.897 148.024 232.142 148.409 232.599V231.97H149.855V235.42C149.855 235.931 150.08 236.101 150.368 236.101C150.858 236.101 151.156 235.538 151.156 234.302C151.156 232.142 149.558 230.65 147.193 230.65C144.819 230.65 143.232 232.268 143.232 234.494C143.232 236.763 144.787 238.371 147.151 238.371C147.823 238.371 148.578 238.233 149.249 237.902L149.589 238.881C148.94 239.212 147.992 239.392 147.15 239.392C144.073 239.392 142.039 237.305 142.039 234.494C142.039 231.715 144.093 229.639 147.192 229.639C150.186 229.639 152.23 231.608 152.23 234.282ZM148.43 234.58C148.43 233.654 147.865 233.132 147.099 233.132C146.322 233.132 145.779 233.676 145.779 234.58C145.779 235.495 146.322 236.049 147.099 236.049C147.865 236.049 148.43 235.517 148.43 234.58Z" fill="#CCCCCC"/>
<path d="M163.09 233.919V237.199H161.429V234.174C161.429 233.248 161.014 232.822 160.342 232.822C159.596 232.822 159.076 233.302 159.076 234.323V237.199H157.414V234.174C157.414 233.248 157.019 232.822 156.328 232.822C155.593 232.822 155.071 233.302 155.071 234.323V237.199H153.41V231.47H154.997V232.13C155.422 231.641 156.06 231.384 156.796 231.384C157.594 231.384 158.276 231.693 158.681 232.321C159.139 231.735 159.883 231.384 160.747 231.384C162.111 231.386 163.09 232.174 163.09 233.919Z" fill="#CCCCCC"/>
<path d="M169.651 233.931V237.2H168.098V236.486C167.789 237.008 167.193 237.285 166.351 237.285C165.009 237.285 164.211 236.539 164.211 235.549C164.211 234.538 164.923 233.835 166.67 233.835H167.99C167.99 233.121 167.565 232.706 166.67 232.706C166.063 232.706 165.435 232.908 165.019 233.239L164.424 232.078C165.052 231.63 165.977 231.386 166.893 231.386C168.64 231.386 169.651 232.194 169.651 233.931ZM167.99 235.389V234.804H166.851C166.074 234.804 165.83 235.091 165.83 235.474C165.83 235.889 166.181 236.166 166.766 236.166C167.318 236.166 167.798 235.911 167.99 235.389Z" fill="#CCCCCC"/>
<path d="M170.949 229.745C170.949 229.223 171.364 228.818 171.982 228.818C172.6 228.818 173.015 229.202 173.015 229.713C173.015 230.266 172.6 230.672 171.982 230.672C171.364 230.672 170.949 230.266 170.949 229.745ZM171.15 231.47H172.811V237.198H171.15V231.47Z" fill="#CCCCCC"/>
<path d="M174.355 229.298H176.016V237.198H174.355V229.298Z" fill="#CCCCCC"/>
<path d="M177.16 236.241C177.16 235.623 177.618 235.218 178.193 235.218C178.77 235.218 179.226 235.623 179.226 236.241C179.226 236.847 178.769 237.284 178.193 237.284C177.619 237.284 177.16 236.847 177.16 236.241Z" fill="#CCCCCC"/>
<path d="M179.852 234.334C179.852 232.61 181.183 231.386 183.046 231.386C184.25 231.386 185.198 231.907 185.614 232.844L184.324 233.536C184.015 232.993 183.558 232.748 183.035 232.748C182.194 232.748 181.534 233.334 181.534 234.334C181.534 235.335 182.194 235.921 183.035 235.921C183.556 235.921 184.015 235.686 184.324 235.133L185.614 235.835C185.198 236.75 184.25 237.283 183.046 237.283C181.183 237.285 179.852 236.059 179.852 234.334Z" fill="#CCCCCC"/>
<path d="M186.07 234.334C186.07 232.61 187.4 231.386 189.222 231.386C191.043 231.386 192.363 232.61 192.363 234.334C192.363 236.059 191.043 237.285 189.222 237.285C187.4 237.285 186.07 236.059 186.07 234.334ZM190.681 234.334C190.681 233.344 190.053 232.748 189.223 232.748C188.393 232.748 187.753 233.344 187.753 234.334C187.753 235.325 188.393 235.921 189.223 235.921C190.053 235.921 190.681 235.325 190.681 234.334Z" fill="#CCCCCC"/>
<path d="M203.156 233.92V237.199H201.495V234.175C201.495 233.248 201.08 232.823 200.408 232.823C199.662 232.823 199.142 233.302 199.142 234.323V237.199H197.48V234.175C197.48 233.248 197.085 232.823 196.395 232.823C195.659 232.823 195.137 233.302 195.137 234.323V237.199H193.477V231.471H195.063V232.131C195.489 231.641 196.127 231.385 196.862 231.385C197.661 231.385 198.343 231.694 198.748 232.322C199.204 231.736 199.949 231.385 200.813 231.385C202.177 231.386 203.156 232.174 203.156 233.92Z" fill="#CCCCCC"/>
<path d="M107.49 273.818L110.187 275.278L108.975 277.308L106.253 275.699L106.303 278.693H103.976L104.003 275.674L101.281 277.308L100.094 275.278L102.79 273.818L100.094 272.334L101.281 270.304L104.003 271.938L103.976 268.919H106.303L106.253 271.938L108.975 270.304L110.187 272.334L107.49 273.818Z" fill="#CCCCCC"/>
<path d="M118.721 273.818L121.417 275.278L120.205 277.308L117.484 275.699L117.533 278.693H115.207L115.233 275.674L112.512 277.308L111.324 275.278L114.022 273.818L111.324 272.334L112.512 270.304L115.233 271.938L115.207 268.919H117.533L117.484 271.938L120.205 270.304L121.417 272.334L118.721 273.818Z" fill="#CCCCCC"/>
<path d="M129.947 273.818L132.644 275.278L131.432 277.308L128.71 275.699L128.76 278.693H126.433L126.46 275.674L123.738 277.308L122.551 275.278L125.249 273.818L122.551 272.334L123.738 270.304L126.46 271.938L126.433 268.919H128.76L128.71 271.938L131.432 270.304L132.644 272.334L129.947 273.818Z" fill="#CCCCCC"/>
<path d="M141.174 273.818L143.871 275.278L142.658 277.308L139.937 275.699L139.987 278.693H137.66L137.686 275.674L134.965 277.308L133.777 275.278L136.475 273.818L133.777 272.334L134.965 270.304L137.686 271.938L137.66 268.919H139.987L139.937 271.938L142.658 270.304L143.871 272.334L141.174 273.818Z" fill="#CCCCCC"/>
<path d="M152.404 273.818L155.101 275.278L153.889 277.308L151.167 275.699L151.217 278.693H148.89L148.917 275.674L146.195 277.308L145.008 275.278L147.706 273.818L145.008 272.334L146.195 270.304L148.917 271.938L148.89 268.919H151.217L151.167 271.938L153.889 270.304L155.101 272.334L152.404 273.818Z" fill="#CCCCCC"/>
<path d="M163.628 273.818L166.325 275.278L165.113 277.308L162.392 275.699L162.441 278.693H160.115L160.139 275.674L157.418 277.308L156.23 275.278L158.929 273.818L156.23 272.334L157.418 270.304L160.139 271.938L160.115 268.919H162.441L162.392 271.938L165.113 270.304L166.325 272.334L163.628 273.818Z" fill="#CCCCCC"/>
<path d="M174.854 273.818L177.55 275.278L176.338 277.308L173.617 275.699L173.666 278.693H171.34L171.366 275.674L168.644 277.308L167.457 275.278L170.155 273.818L167.457 272.334L168.644 270.304L171.366 271.938L171.34 268.919H173.666L173.617 271.938L176.338 270.304L177.55 272.334L174.854 273.818Z" fill="#CCCCCC"/>
<path d="M186.082 273.818L188.777 275.278L187.565 277.308L184.843 275.699L184.893 278.693H182.566L182.592 275.674L179.871 277.308L178.684 275.278L181.382 273.818L178.684 272.334L179.871 270.304L182.592 271.938L182.566 268.919H184.893L184.843 271.938L187.565 270.304L188.777 272.334L186.082 273.818Z" fill="#CCCCCC"/>
<path d="M257.789 289.08L263.672 295.393C263.672 295.393 288.275 336.651 291.79 339.3C295.305 341.95 301.175 345.002 304.697 344.532C308.218 344.063 317.563 337.723 317.563 337.723L309.403 312.654L300.119 310.112L275.054 281.067L257.789 289.08Z" fill="#FDE2D0"/>
<path d="M262.588 294.056C260.498 291.539 255.111 286.367 255.111 286.367L252.842 283.943C252.736 284.139 252.658 284.354 252.589 284.565C252.456 284.967 252.322 285.391 252.011 285.677C251.423 286.221 250.465 286.044 249.767 285.652C248.304 284.832 247.341 283.188 247.34 281.511C247.34 279.899 248.233 278.326 249.599 277.476C249.716 277.067 249.909 276.654 250.224 276.25C252.152 273.777 256.665 274.109 256.665 274.109L255.99 273.149C255.99 273.149 252.913 271.231 247.794 274.477C247.03 274.961 246.108 275.189 245.216 275.039C244.67 274.947 244.139 274.714 243.839 274.205C243.093 272.937 243.797 272.077 246.965 270.007C250.134 267.938 253.871 266.991 256.245 267.872C258.619 268.752 259.49 269.25 259.49 269.25C259.49 269.25 253.9 260.228 253.57 259.643C252.613 257.95 252.567 256.102 253.634 255.351C254.318 254.87 255.534 254.769 256.709 256.706C257.726 258.382 270.326 274.223 270.326 274.223L275.49 281.56L262.588 294.056Z" fill="#FDE2D0"/>
<path d="M273.541 281.843C272.749 282.682 271.351 282.579 270.326 282.05C269.301 281.521 268.486 280.661 267.502 280.059C264.559 278.261 260.537 278.996 257.684 277.059C257.286 276.789 256.88 276.331 257.059 275.885C257.226 275.472 257.765 275.391 258.21 275.373C262.014 275.216 265.819 275.06 269.623 274.902" fill="#FDE2D0"/>
<path d="M269.645 274.9C269.643 274.855 269.202 274.83 268.405 274.824C267.609 274.818 266.457 274.83 265.035 274.859C263.555 274.899 261.875 274.945 260.041 274.995C259.569 275.011 259.088 275.027 258.597 275.043C258.141 275.093 257.523 274.957 256.947 275.5C256.673 275.785 256.661 276.275 256.83 276.574C256.985 276.883 257.21 277.093 257.45 277.273C257.923 277.589 258.409 277.86 258.938 278.062C261.054 278.878 263.167 278.915 264.952 279.365C265.847 279.575 266.668 279.867 267.36 280.276C268.052 280.683 268.641 281.195 269.234 281.611C270.389 282.505 271.704 282.766 272.511 282.534C273.342 282.316 273.588 281.842 273.56 281.842C273.521 281.788 273.219 282.168 272.462 282.285C271.706 282.411 270.584 282.138 269.507 281.24C268.952 280.818 268.378 280.28 267.639 279.814C266.901 279.349 266.025 279.017 265.095 278.782C263.243 278.289 261.133 278.22 259.179 277.457C258.692 277.274 258.238 277.017 257.831 276.751C257.443 276.478 257.235 276.088 257.427 275.92C257.608 275.704 258.133 275.681 258.621 275.666C259.111 275.643 259.592 275.619 260.064 275.596C261.896 275.495 263.574 275.402 265.052 275.32C266.472 275.232 267.62 275.15 268.413 275.077C269.209 275.006 269.646 274.945 269.645 274.9Z" fill="#FDE2D0"/>
<path d="M256.803 274.082C256.741 274.141 256.375 273.265 255.146 272.699C254.544 272.424 253.735 272.323 252.874 272.515C252.008 272.695 251.116 273.127 250.21 273.652C249.301 274.174 248.414 274.696 247.515 274.986C246.621 275.272 245.75 275.362 245.033 275.194C244.303 275.035 243.855 274.531 243.706 274.165C243.549 273.791 243.559 273.565 243.575 273.563C243.614 273.552 243.663 273.767 243.851 274.088C244.037 274.405 244.443 274.795 245.095 274.903C245.737 275.018 246.555 274.909 247.39 274.619C248.231 274.326 249.084 273.814 250.002 273.287C250.917 272.756 251.863 272.307 252.798 272.135C253.73 271.948 254.635 272.093 255.273 272.431C255.919 272.759 256.319 273.204 256.541 273.528C256.763 273.858 256.824 274.071 256.803 274.082Z" fill="#FDE2D0"/>
<path d="M253.138 258.982C253.191 258.955 253.602 259.648 254.261 260.769C255.001 262.013 255.881 263.496 256.855 265.135C257.853 266.76 258.756 268.229 259.513 269.463C260.199 270.567 260.621 271.253 260.572 271.288C260.527 271.321 260.017 270.693 259.266 269.627C258.513 268.562 257.525 267.055 256.495 265.353C255.467 263.65 254.593 262.074 254.001 260.912C253.406 259.751 253.088 259.008 253.138 258.982Z" fill="#FDE2D0"/>
<path d="M255.974 277.37C255.975 277.402 255.737 277.425 255.323 277.486C254.928 277.552 254.267 277.675 253.889 278.267C253.705 278.553 253.699 278.931 253.879 279.305C254.045 279.681 254.356 280.028 254.677 280.425C254.99 280.812 255.348 281.328 255.326 281.975C255.294 282.603 254.921 283.186 254.381 283.532C253.829 283.887 253.155 283.926 252.589 283.781C252.017 283.63 251.519 283.343 251.152 282.928C250.484 282.12 250.08 281.297 249.777 280.587C249.486 279.872 249.343 279.252 249.329 278.815C249.317 278.375 249.411 278.142 249.429 278.149C249.467 278.156 249.432 278.389 249.492 278.799C249.553 279.209 249.733 279.79 250.049 280.467C250.371 281.134 250.809 281.94 251.44 282.669C252.045 283.327 253.261 283.741 254.154 283.178C254.59 282.901 254.888 282.424 254.914 281.956C254.94 281.483 254.672 281.048 254.372 280.663C254.074 280.275 253.743 279.894 253.558 279.442C253.354 279.007 253.379 278.452 253.639 278.106C254.154 277.4 254.904 277.347 255.307 277.323C255.739 277.311 255.972 277.344 255.974 277.37Z" fill="#FDE2D0"/>
<path d="M252.579 283.411C252.594 283.398 252.761 283.56 252.84 283.954C252.915 284.333 252.862 284.978 252.354 285.525C251.857 286.059 250.929 286.36 249.996 286.119C249.064 285.886 248.217 285.186 247.659 284.273C247.099 283.354 246.882 282.306 246.961 281.382C247.033 280.45 247.393 279.666 247.789 279.101C248.189 278.53 248.628 278.169 248.947 277.958C249.269 277.748 249.472 277.678 249.483 277.7C249.534 277.765 248.742 278.148 248.037 279.265C247.696 279.817 247.392 280.555 247.347 281.408C247.294 282.257 247.506 283.215 248.017 284.054C248.526 284.89 249.292 285.526 250.094 285.745C250.892 285.972 251.699 285.741 252.144 285.313C252.596 284.882 252.698 284.321 252.676 283.973C252.657 283.614 252.546 283.428 252.579 283.411Z" fill="#FDE2D0"/>
<path d="M262.446 285.676C262.424 285.645 262.71 285.38 263.319 285.161C263.918 284.943 264.876 284.807 265.901 285.155L265.651 285.429C265.458 285.025 265.274 284.575 265.116 284.099C264.221 281.446 264.581 279.146 264.682 279.179C264.81 279.177 264.65 281.414 265.515 283.966C265.668 284.427 265.84 284.864 266.016 285.259L266.21 285.697L265.765 285.533C264.853 285.197 263.972 285.264 263.39 285.403C262.8 285.543 262.474 285.724 262.446 285.676Z" fill="#FDE2D0"/>
<path d="M252.936 270.357C253.047 270.347 253.092 271.21 252.503 272.036C251.922 272.867 251.093 273.111 251.066 273.003C251.013 272.893 251.658 272.519 252.16 271.793C252.677 271.077 252.814 270.344 252.936 270.357Z" fill="#FDE2D0"/>
<path d="M243.146 414.974C243.146 414.974 233.243 417.113 224.403 415.788C216.114 414.545 197.556 415.831 197.563 426.755C197.57 438.938 222.317 435.928 231.973 433.996C241.629 432.066 251.244 430.316 251.244 430.316L243.146 414.974Z" fill="white"/>
<path d="M220.917 430.58C220.79 430.609 220.254 428.71 219.722 426.34C219.189 423.97 218.86 422.025 218.989 421.996C219.116 421.968 219.652 423.866 220.185 426.236C220.717 428.606 221.045 430.551 220.917 430.58Z" fill="#263238"/>
<path d="M224.32 430.742C224.19 430.76 223.816 428.813 223.485 426.395C223.153 423.976 222.989 422.001 223.118 421.983C223.248 421.964 223.623 423.911 223.954 426.33C224.287 428.748 224.45 430.724 224.32 430.742Z" fill="#263238"/>
<path d="M227.574 429.468C227.444 429.484 227.132 427.782 226.877 425.669C226.622 423.555 226.52 421.829 226.65 421.814C226.78 421.798 227.092 423.498 227.348 425.612C227.603 427.726 227.704 429.452 227.574 429.468Z" fill="#263238"/>
<path d="M232.702 428.19C232.587 428.24 231.884 426.819 231.428 424.928C230.966 423.038 230.939 421.453 231.064 421.445C231.2 421.432 231.436 422.967 231.889 424.816C232.334 426.667 232.829 428.139 232.702 428.19Z" fill="#263238"/>
<path d="M233.784 423.736C233.781 423.708 234.239 423.631 235.078 423.65C235.912 423.673 237.137 423.809 238.555 424.33C238.912 424.464 239.283 424.636 239.626 424.906C239.963 425.167 240.283 425.592 240.296 426.113C240.306 427.191 239.124 427.968 238.053 427.742C236.972 427.537 236.149 426.744 235.468 425.902C234.779 425.04 234.282 423.987 234.006 422.856C233.463 420.583 233.866 418.233 235.096 416.547C235.276 416.345 235.522 416.151 235.832 416.105C236.132 416.053 236.456 416.17 236.655 416.362C237.061 416.748 237.203 417.234 237.275 417.691C237.39 418.585 237.326 419.431 237.144 420.168C236.788 421.656 236.045 422.687 235.474 423.293C235.182 423.597 234.93 423.806 234.751 423.934C234.57 424.061 234.471 424.12 234.461 424.107C234.434 424.073 234.806 423.796 235.336 423.171C235.851 422.544 236.52 421.522 236.817 420.095C236.971 419.388 237.01 418.585 236.886 417.749C236.823 417.356 236.665 416.928 236.38 416.675C236.1 416.417 235.699 416.49 235.424 416.836C234.355 418.34 233.94 420.616 234.467 422.744C234.728 423.812 235.193 424.804 235.835 425.616C236.467 426.417 237.246 427.143 238.131 427.312C238.978 427.52 239.92 426.86 239.902 426.122C239.901 425.754 239.682 425.424 239.393 425.188C239.106 424.948 238.766 424.776 238.434 424.641C237.074 424.096 235.884 423.912 235.067 423.833C234.245 423.759 233.785 423.774 233.784 423.736Z" fill="#263238"/>
<path d="M250.275 428.703C250.276 428.711 250.192 428.738 250.026 428.782C249.833 428.83 249.588 428.891 249.283 428.967C248.594 429.124 247.634 429.343 246.412 429.621C243.914 430.17 240.291 430.941 235.79 431.811C231.287 432.673 225.911 433.661 219.882 434.482C216.877 434.886 213.657 435.252 210.325 434.958C208.661 434.837 206.968 434.551 205.318 434.001C204.502 433.707 203.681 433.388 202.916 432.934C202.149 432.48 201.412 431.985 200.806 431.234L200.842 431.275C200.536 430.979 200.216 430.641 199.981 430.242C198.969 428.624 198.936 426.615 199.477 424.91C200.032 423.168 201.273 421.78 202.652 420.76C204.05 419.743 205.604 419.033 207.164 418.524C207.954 418.3 208.723 418.029 209.505 417.852C210.292 417.696 211.06 417.487 211.836 417.38C218.042 416.4 223.687 416.898 228.377 416.9C230.729 416.943 232.853 416.879 234.714 416.765C236.574 416.625 238.167 416.414 239.456 416.166C240.094 416.031 240.663 415.912 241.163 415.807C241.64 415.671 242.05 415.554 242.393 415.457C242.706 415.371 242.956 415.302 243.153 415.248C243.325 415.203 243.415 415.184 243.417 415.192C243.42 415.2 243.336 415.235 243.169 415.294C242.975 415.36 242.729 415.443 242.422 415.548C242.081 415.658 241.674 415.791 241.2 415.944C240.7 416.062 240.13 416.197 239.493 416.347C238.203 416.625 236.602 416.864 234.735 417.03C232.867 417.17 230.732 417.257 228.376 417.235C223.675 417.275 218.034 416.818 211.91 417.811C211.143 417.92 210.388 418.129 209.613 418.286C208.842 418.463 208.087 418.732 207.31 418.954C205.78 419.458 204.269 420.154 202.929 421.135C201.605 422.117 200.439 423.437 199.927 425.055C199.42 426.652 199.464 428.53 200.382 429.989C200.594 430.352 200.884 430.654 201.158 430.922L201.173 430.937L201.194 430.963C201.697 431.587 202.429 432.104 203.152 432.524C203.883 432.959 204.677 433.268 205.468 433.555C207.069 434.09 208.727 434.374 210.363 434.497C213.643 434.792 216.818 434.443 219.826 434.052C225.842 433.257 231.221 432.304 235.728 431.484C240.234 430.657 243.866 429.936 246.374 429.442C247.603 429.201 248.569 429.011 249.262 428.874C249.571 428.817 249.819 428.771 250.014 428.735C250.185 428.706 250.273 428.695 250.275 428.703Z" fill="white"/>
<path d="M214.056 434.57C213.986 434.571 213.929 433.601 213.816 432.039C213.704 430.478 213.517 428.324 213.202 425.959C212.884 423.594 212.497 421.467 212.194 419.93C211.891 418.394 211.692 417.443 211.759 417.426C211.819 417.41 212.133 418.332 212.521 419.857C212.909 421.382 213.352 423.514 213.672 425.897C213.99 428.278 214.124 430.452 214.151 432.025C214.178 433.597 214.117 434.57 214.056 434.57Z" fill="#263238"/>
<g opacity="0.4">
<path d="M240.086 415.5L246.361 431.216L251.231 430.315L241.904 414.973L240.086 415.5Z" fill="white"/>
</g>
<path d="M303.754 378.83L318.493 345.948L309.96 317.734C307.372 309.177 307.977 299.972 311.663 291.827L326.049 263.944L338.895 259.365L369.04 255.347C369.573 255.524 371.086 255.614 380.014 258.582C387.517 261.076 393.871 266.185 397.919 272.976L373.566 344.003C373.566 344.003 390.083 380.141 388.012 396.708L303.754 378.83Z" fill="#C2C2C2"/>
<path d="M328.468 263.21C328.468 263.21 311.606 266.943 305.458 289.95L297.895 314.45L311.732 315.302L328.468 263.21Z" fill="#C2C2C2"/>
<path d="M310.472 316.099C310.461 316.103 310.408 315.986 310.319 315.757C310.235 315.527 310.092 315.193 309.955 314.747C309.689 313.854 309.366 312.532 309.241 310.862C308.97 307.536 309.631 302.816 311.834 298.197C312.383 297.048 312.998 295.953 313.616 294.936C314.224 293.907 314.805 292.912 315.327 291.949C316.384 290.029 317.124 288.201 317.644 286.627C318.164 285.052 318.539 283.76 318.813 282.871C318.943 282.458 319.048 282.121 319.133 281.85C319.21 281.617 319.256 281.497 319.268 281.5C319.279 281.503 319.256 281.629 319.202 281.869C319.133 282.144 319.049 282.488 318.945 282.909C318.711 283.809 318.373 285.111 317.881 286.703C317.388 288.294 316.661 290.16 315.612 292.102C315.094 293.075 314.517 294.077 313.912 295.11C313.293 296.139 312.696 297.207 312.151 298.347C309.974 302.913 309.285 307.558 309.488 310.846C309.58 312.498 309.861 313.812 310.085 314.71C310.34 315.598 310.499 316.088 310.472 316.099Z" fill="#263238"/>
<path d="M268.621 392.32C268.543 392.425 260.633 386.659 250.957 379.442C241.277 372.223 233.497 366.288 233.575 366.182C233.653 366.077 241.561 371.842 251.24 379.061C260.917 386.278 268.699 392.215 268.621 392.32Z" fill="#363636"/>
<path d="M386.678 393.407L362.749 373.739C360.111 359.086 346.61 348.135 330.956 349.561C325.058 350.098 319.456 352.394 314.877 356.15L301.005 367.021C279.444 361.142 246.666 351.951 229.821 347.215C222.933 345.279 215.547 346.397 209.541 350.284L209.225 350.488C200.408 356.195 196.117 366.819 198.498 377.048C200.009 383.543 204.056 389.157 209.743 392.641C218.251 397.853 231.429 405.893 242.76 412.669L241.256 413.847L251.268 430.316L271.882 423.961C285.817 421.973 315.237 418.146 315.237 418.146L306.824 413.188L308.75 412.594C324.772 426.244 344.364 432.528 368.619 421.939C380.59 416.329 388.063 402.844 386.678 393.407Z" fill="#3C3C48"/>
<path d="M345.65 391.211C345.655 391.218 345.589 391.279 345.455 391.393C345.299 391.521 345.101 391.685 344.853 391.888C344.291 392.337 343.506 392.963 342.509 393.759C341.995 394.165 341.427 394.614 340.807 395.103C340.186 395.596 339.453 396.052 338.697 396.586C337.933 397.11 337.117 397.67 336.252 398.263C335.816 398.557 335.376 398.87 334.912 399.171C334.436 399.457 333.949 399.751 333.45 400.051C331.449 401.245 329.29 402.613 326.843 403.848C325.629 404.483 324.391 405.175 323.083 405.823C321.763 406.448 320.406 407.091 319.014 407.751C313.41 410.306 307.132 412.875 300.402 415.164C286.955 419.797 274.523 423.133 265.619 425.832C263.386 426.488 261.374 427.104 259.612 427.661C257.846 428.206 256.325 428.677 255.093 429.095C253.881 429.489 252.928 429.799 252.243 430.021C251.937 430.115 251.691 430.191 251.498 430.25C251.33 430.3 251.241 430.321 251.238 430.314C251.235 430.306 251.318 430.269 251.481 430.205C251.671 430.134 251.911 430.044 252.211 429.931C252.889 429.688 253.833 429.35 255.034 428.92C256.258 428.474 257.771 427.977 259.531 427.407C261.287 426.826 263.294 426.188 265.521 425.511C274.406 422.728 286.823 419.341 300.246 414.715C306.965 412.43 313.231 409.879 318.83 407.353C320.221 406.701 321.578 406.066 322.897 405.448C324.205 404.809 325.442 404.126 326.657 403.501C329.106 402.283 331.268 400.936 333.274 399.763C333.774 399.469 334.263 399.181 334.74 398.9C335.207 398.605 335.648 398.297 336.086 398.008C336.956 397.428 337.776 396.879 338.546 396.366C339.307 395.844 340.045 395.399 340.673 394.918C341.3 394.442 341.876 394.005 342.396 393.61C343.415 392.845 344.217 392.244 344.792 391.812C345.052 391.622 345.259 391.472 345.423 391.353C345.568 391.254 345.644 391.205 345.65 391.211Z" fill="#363636"/>
<path d="M347.445 398.913C347.457 398.943 347.192 399.08 346.702 399.302C346.212 399.526 345.492 399.82 344.59 400.155C342.787 400.827 340.243 401.623 337.37 402.243C334.495 402.859 331.848 403.177 329.929 403.304C328.97 403.369 328.191 403.398 327.654 403.394C327.116 403.393 326.818 403.377 326.816 403.345C326.813 403.272 327.997 403.184 329.899 402.97C331.8 402.758 334.418 402.389 337.271 401.778C340.122 401.164 342.66 400.425 344.48 399.837C346.301 399.251 347.417 398.845 347.445 398.913Z" fill="#363636"/>
<path d="M311.905 358.917C311.985 359.02 296.228 371.401 276.715 386.567C257.195 401.738 241.311 413.948 241.231 413.844C241.15 413.741 256.904 401.363 276.424 386.192C295.937 371.027 311.824 358.813 311.905 358.917Z" fill="#363636"/>
<path d="M368.55 412.049C368.532 412.049 368.515 411.872 368.501 411.537C368.49 411.14 368.478 410.656 368.463 410.069C368.45 408.794 368.394 406.95 368.283 404.676C368.066 400.127 367.49 393.852 366.217 387.022C364.931 380.191 363.198 374.132 361.755 369.813C361.035 367.652 360.42 365.913 359.971 364.72C359.773 364.167 359.609 363.711 359.475 363.338C359.367 363.02 359.319 362.849 359.335 362.842C359.352 362.835 359.433 362.992 359.574 363.298C359.733 363.662 359.927 364.107 360.162 364.645C360.671 365.816 361.341 367.54 362.107 369.691C363.645 373.991 365.444 380.063 366.735 386.924C368.013 393.784 368.533 400.095 368.655 404.66C368.719 406.944 368.717 408.792 368.667 410.069C368.643 410.656 368.623 411.142 368.606 411.538C368.587 411.874 368.568 412.049 368.55 412.049Z" fill="#363636"/>
<path d="M307.813 411.8C307.819 411.793 307.889 411.844 308.018 411.951C308.169 412.079 308.354 412.237 308.582 412.432C309.081 412.849 309.773 413.515 310.729 414.293C312.65 415.838 315.509 417.999 319.38 420.111C323.243 422.219 328.136 424.235 333.812 425.537C334.515 425.726 335.24 425.853 335.975 425.979C336.709 426.106 337.449 426.253 338.201 426.368C339.715 426.526 341.253 426.781 342.837 426.822C345.995 427.055 349.285 426.92 352.614 426.53C353.445 426.415 354.271 426.299 355.092 426.185C355.904 426.02 356.711 425.855 357.512 425.691C359.114 425.369 360.664 424.921 362.171 424.442C365.177 423.455 367.985 422.223 370.503 420.772C375.567 417.898 379.371 414.116 381.796 410.459C384.262 406.806 385.412 403.367 385.965 400.98C386.234 399.778 386.377 398.83 386.454 398.186C386.489 397.889 386.519 397.648 386.543 397.451C386.565 397.286 386.582 397.201 386.591 397.202C386.6 397.203 386.602 397.289 386.597 397.455C386.587 397.653 386.575 397.896 386.559 398.196C386.516 398.847 386.406 399.804 386.166 401.023C385.671 403.442 384.562 406.94 382.107 410.665C379.693 414.393 375.859 418.261 370.746 421.192C368.204 422.671 365.368 423.929 362.332 424.932C360.81 425.42 359.245 425.875 357.626 426.202C356.817 426.367 356.002 426.535 355.183 426.702C354.354 426.818 353.519 426.935 352.68 427.052C349.317 427.446 345.994 427.578 342.807 427.337C341.208 427.29 339.657 427.029 338.129 426.865C337.37 426.747 336.625 426.596 335.885 426.465C335.144 426.334 334.413 426.202 333.705 426.009C327.985 424.669 323.068 422.6 319.201 420.436C315.326 418.267 312.485 416.049 310.598 414.448C309.658 413.642 308.987 412.95 308.51 412.507C308.296 412.297 308.122 412.126 307.981 411.987C307.863 411.87 307.806 411.806 307.813 411.8Z" fill="#363636"/>
<path d="M319.125 416.674C314.972 414.459 310.31 415.768 306.336 417.107C303.691 417.999 300.942 419.411 298.256 418.654C296.314 418.107 294.869 416.533 293.386 415.165C287.402 409.647 279.151 406.637 271.006 407.147C268.692 407.292 266.431 408.223 264.86 409.926C260.781 414.343 263.858 420.093 267.503 423.808C273.938 430.366 282.7 434.593 291.839 435.547C299.435 436.34 309.879 435.29 317.583 431.992C322.332 429.959 324.769 424.357 322.277 419.831C321.551 418.513 320.49 417.402 319.125 416.674Z" fill="white"/>
<g opacity="0.4">
<path d="M319.086 420.209C314.933 417.994 310.271 419.304 306.297 420.643C303.652 421.534 300.904 422.946 298.218 422.189C296.276 421.642 294.831 420.068 293.347 418.7C287.363 413.182 279.112 410.172 270.968 410.682C268.654 410.827 266.394 411.758 264.822 413.461C263.918 414.439 263.382 415.485 263.109 416.558C263.713 419.213 265.501 421.806 267.464 423.807C273.9 430.365 282.663 434.592 291.802 435.547C299.397 436.34 309.842 435.29 317.546 431.992C320.401 430.77 322.41 428.255 323.025 425.463C322.864 424.751 322.613 424.046 322.239 423.367C321.512 422.048 320.451 420.937 319.086 420.209Z" fill="#3C3C48"/>
</g>
<path d="M323.036 425.463C322.959 425.488 322.98 424.448 322.018 423.002C321.535 422.297 320.817 421.501 319.796 420.829C318.791 420.149 317.489 419.562 315.978 419.368C312.895 419.006 309.322 420.304 305.352 421.378C303.39 421.897 301.248 422.691 298.902 422.397C297.756 422.248 296.607 421.868 295.584 421.249C294.563 420.637 293.635 419.882 292.731 419.101C289.311 415.762 285.254 413.672 281.374 412.353C279.434 411.702 277.528 411.273 275.724 411.041C273.918 410.804 272.219 410.774 270.697 411.012C269.178 411.248 267.859 411.748 266.81 412.368C265.765 413.001 264.99 413.734 264.428 414.387C263.326 415.722 262.954 416.635 262.895 416.601C262.895 416.601 263.188 415.656 264.26 414.249C264.808 413.56 265.583 412.782 266.646 412.103C267.714 411.435 269.071 410.891 270.633 410.622C272.196 410.351 273.946 410.36 275.781 410.582C277.618 410.798 279.56 411.217 281.537 411.865C283.515 412.509 285.524 413.388 287.498 414.496C288.475 415.064 289.47 415.654 290.4 416.385C291.325 417.11 292.199 417.904 293.097 418.679C293.992 419.454 294.899 420.189 295.868 420.772C296.831 421.358 297.892 421.709 298.972 421.856C301.145 422.143 303.229 421.4 305.218 420.882C309.169 419.848 312.804 418.554 316.027 418.977C319.227 419.486 321.288 421.408 322.2 422.885C322.668 423.64 322.877 424.307 322.969 424.76C323.045 425.218 323.05 425.462 323.036 425.463Z" fill="white"/>
<path d="M323.036 425.463C322.959 425.488 322.98 424.448 322.018 423.002C321.535 422.297 320.817 421.501 319.796 420.829C318.791 420.149 317.489 419.562 315.978 419.368C312.895 419.006 309.322 420.304 305.352 421.378C303.39 421.897 301.248 422.691 298.902 422.397C297.756 422.248 296.607 421.868 295.584 421.249C294.563 420.637 293.635 419.882 292.731 419.101C289.311 415.762 285.254 413.672 281.374 412.353C279.434 411.702 277.528 411.273 275.724 411.041C273.918 410.804 272.219 410.774 270.697 411.012C269.178 411.248 267.859 411.748 266.81 412.368C265.765 413.001 264.99 413.734 264.428 414.387C263.326 415.722 262.954 416.635 262.895 416.601C262.895 416.601 263.188 415.656 264.26 414.249C264.808 413.56 265.583 412.782 266.646 412.103C267.714 411.435 269.071 410.891 270.633 410.622C272.196 410.351 273.946 410.36 275.781 410.582C277.618 410.798 279.56 411.217 281.537 411.865C283.515 412.509 285.524 413.388 287.498 414.496C288.475 415.064 289.47 415.654 290.4 416.385C291.325 417.11 292.199 417.904 293.097 418.679C293.992 419.454 294.899 420.189 295.868 420.772C296.831 421.358 297.892 421.709 298.972 421.856C301.145 422.143 303.229 421.4 305.218 420.882C309.169 419.848 312.804 418.554 316.027 418.977C319.227 419.486 321.288 421.408 322.2 422.885C322.668 423.64 322.877 424.307 322.969 424.76C323.045 425.218 323.05 425.462 323.036 425.463Z" fill="#263238"/>
<path d="M324.425 255.346C324.334 255.323 324.813 254.609 324.588 253.257C324.472 252.595 324.179 251.803 323.638 251.011C323.096 250.218 322.292 249.445 321.379 248.597C320.464 247.759 319.444 246.751 318.671 245.442C317.895 244.145 317.323 242.597 317.098 240.906C316.866 239.22 317.025 237.375 317.615 235.624C318.184 233.864 319.088 232.199 319.976 230.521C320.872 228.848 321.688 227.198 322.152 225.514C322.63 223.834 322.672 222.142 322.254 220.602C321.411 217.503 319.562 215.06 318.627 212.703C317.598 210.368 317.503 208.181 317.861 206.8C318.027 206.103 318.27 205.597 318.464 205.279C318.658 204.958 318.796 204.817 318.815 204.83C318.89 204.869 318.408 205.514 318.177 206.865C317.935 208.206 318.105 210.242 319.164 212.469C320.127 214.726 322.035 217.106 322.993 220.409C323.467 222.056 323.436 223.951 322.936 225.728C322.453 227.519 321.608 229.229 320.709 230.911C319.815 232.594 318.933 234.216 318.386 235.878C317.819 237.533 317.661 239.223 317.856 240.811C318.045 242.396 318.558 243.86 319.264 245.094C319.966 246.339 320.889 247.302 321.784 248.175C322.672 249.049 323.482 249.882 324.025 250.758C324.567 251.63 324.833 252.495 324.907 253.214C324.978 253.938 324.853 254.501 324.713 254.851C324.578 255.205 324.44 255.355 324.425 255.346Z" fill="#363641"/>
<path d="M367.711 240.318C368.775 243.032 371.676 244.835 374.591 244.843C377.506 244.85 380.31 243.188 381.932 240.766C383.553 238.344 384.038 235.251 383.509 232.384C383.27 231.087 382.833 229.79 382.984 228.48C383.198 226.621 384.551 225.086 385.014 223.274C385.849 220.01 383.463 216.562 380.357 215.256C377.251 213.951 373.687 214.354 370.442 215.26" fill="#363641"/>
<path d="M320.414 202.566C317.421 205.575 318.564 209.524 319.961 212.198C321.358 214.873 323.034 217.584 323.066 220.6C323.099 223.685 321.404 226.489 320.557 229.456C319.49 233.195 319.812 237.314 321.446 240.843C322.677 243.503 324.601 245.793 325.848 248.444C327.093 251.097 327.554 254.435 325.859 256.826C327.475 256.567 328.821 255.338 329.546 253.872C330.271 252.405 330.448 250.725 330.414 249.089C330.285 242.877 327.309 236.843 328.054 230.674C328.487 227.088 330.169 223.646 329.931 220.042C329.694 216.425 327.572 213.256 326.038 209.973C324.505 206.689 323.596 202.594 325.64 199.602" fill="#363641"/>
<path d="M327.775 190.784C324.109 191.258 320.474 193.176 318.702 196.42C316.93 199.663 317.54 204.254 320.568 206.372C323.424 208.37 327.474 207.712 330.407 205.829C332.572 204.441 334.374 202.395 335.16 199.946C335.944 197.498 335.613 194.644 334.022 192.623C332.432 190.603 329.532 189.611 327.126 190.517" fill="#363641"/>
<path d="M324.766 190.409C326.381 185.949 330.346 182.583 334.814 180.99C339.281 179.397 344.199 179.427 348.861 180.304C353.522 181.181 357.986 182.869 362.421 184.549C365.65 185.771 368.95 187.035 371.575 189.278C374.172 191.498 375.945 194.555 377.125 197.761C379.342 203.786 379.434 208.199 376.837 214.07C375.707 216.626 376.628 219.486 375.615 222.09C374.602 224.695 369.902 227.794 371.362 230.177" fill="#363641"/>
<path d="M369.094 255.351L367.155 198.189C367.067 195.628 365.034 193.561 362.475 193.43L335.965 188.234C327.541 187.801 322.53 198.415 322.455 206.848C322.372 216.218 322.639 227.661 324.123 234.569C327.106 248.458 337.941 249.661 337.941 249.661C337.942 249.633 338.247 255.081 338.531 259.974L338.079 281.504L369.094 255.351Z" fill="#FDE2D0"/>
<path d="M326.094 216.927C326.112 217.878 326.931 218.646 327.925 218.646C328.916 218.645 329.707 217.876 329.689 216.925C329.671 215.975 328.851 215.205 327.861 215.206C326.867 215.206 326.077 215.976 326.094 216.927Z" fill="#263238"/>
<path d="M325.217 211.748C325.452 211.97 326.759 210.889 328.693 210.79C330.623 210.663 332.096 211.581 332.294 211.332C332.391 211.222 332.141 210.811 331.498 210.395C330.866 209.98 329.805 209.601 328.6 209.67C327.396 209.742 326.407 210.24 325.849 210.726C325.28 211.214 325.101 211.649 325.217 211.748Z" fill="#263238"/>
<path d="M343.946 216.643C343.963 217.593 344.783 218.362 345.776 218.362C346.767 218.361 347.558 217.593 347.54 216.642C347.523 215.692 346.702 214.921 345.711 214.921C344.718 214.921 343.927 215.692 343.946 216.643Z" fill="#263238"/>
<path d="M344.33 211.989C344.566 212.211 345.874 211.13 347.806 211.031C349.737 210.904 351.21 211.822 351.406 211.574C351.503 211.463 351.256 211.053 350.612 210.636C349.98 210.221 348.919 209.842 347.715 209.912C346.511 209.984 345.522 210.482 344.963 210.967C344.395 211.455 344.215 211.89 344.33 211.989Z" fill="#263238"/>
<path d="M338.004 226.708C338.007 226.598 336.794 226.455 334.833 226.311C334.336 226.287 333.864 226.214 333.763 225.882C333.627 225.531 333.805 224.988 334.013 224.401C334.413 223.181 334.831 221.903 335.27 220.563C337.008 215.101 338.239 210.62 338.018 210.552C337.798 210.484 336.209 214.856 334.471 220.318C334.054 221.665 333.655 222.948 333.277 224.176C333.121 224.747 332.834 225.401 333.126 226.127C333.279 226.489 333.656 226.737 333.977 226.806C334.298 226.885 334.576 226.876 334.822 226.877C336.787 226.875 338.004 226.818 338.004 226.708Z" fill="#263238"/>
<path d="M337.988 249.665C337.988 249.665 347.447 249.763 356.482 243.646C356.482 243.646 352.269 253.534 338.175 252.982L337.988 249.665Z" fill="#FDE2D0"/>
<path d="M339.071 231.104C339.674 230.212 340.784 229.68 341.919 229.74C342.706 229.782 343.518 230.117 344.027 230.728C344.537 231.34 344.686 232.239 344.286 232.869C343.837 233.58 342.829 233.793 341.955 233.595C341.081 233.397 340.31 232.87 339.576 232.344C339.373 232.198 339.165 232.046 339.032 231.839C338.898 231.631 338.857 231.353 338.998 231.167" fill="#FDE2D0"/>
<path d="M324.547 194.171C325.463 198.567 332.511 198.897 336.865 197.798C339.972 201.419 345.021 203.264 349.73 202.5C350.371 202.396 351.043 202.25 351.653 202.47C352.299 202.704 352.733 203.295 353.174 203.821C355.146 206.175 358.02 207.753 361.065 208.154C361.906 212.547 365.694 216.218 370.111 216.924C370.111 216.924 371.509 216.131 370.684 210.498C369.858 204.864 369.81 193.052 369.81 193.052L354.08 186.95L335.549 184.563C335.549 184.563 322.996 186.732 324.547 194.171Z" fill="#363641"/>
<path d="M351.59 201.269C351.605 201.315 351.213 201.502 350.458 201.714C349.704 201.928 348.568 202.113 347.151 202.085C344.365 202.064 340.241 200.868 337.311 197.48L337.827 197.573C337.685 197.647 337.531 197.727 337.377 197.807C335.322 198.814 333.072 199.049 331.134 198.742C329.179 198.437 327.567 197.576 326.42 196.662C325.265 195.74 324.549 194.767 324.137 194.068C323.725 193.363 323.593 192.929 323.637 192.907C323.769 192.813 324.502 194.531 326.774 196.194C327.905 197.002 329.431 197.744 331.245 197.986C333.047 198.23 335.123 197.988 337.012 197.062C337.153 196.988 337.294 196.915 337.424 196.848L337.726 196.691L337.941 196.941C340.665 200.106 344.513 201.341 347.18 201.507C349.903 201.71 351.556 201.112 351.59 201.269Z" fill="#363641"/>
<path d="M322.308 208.523C322.295 208.598 321.01 208.247 319.607 206.733C318.229 205.285 316.853 202.441 317.494 199.263C318.185 196.094 320.589 194.044 322.433 193.273C324.327 192.452 325.643 192.647 325.625 192.721C325.645 192.872 324.385 192.901 322.69 193.801C321.026 194.654 318.919 196.606 318.306 199.434C317.73 202.269 318.874 204.904 320.054 206.353C321.245 207.86 322.386 208.393 322.308 208.523Z" fill="#363641"/>
<path d="M380.732 227.298C380.654 227.171 382.073 226.421 384.078 224.916C385.058 224.149 386.154 223.113 386.903 221.686C387.662 220.282 387.908 218.434 387.144 216.752C386.423 215.069 385.012 213.818 383.54 213.254C382.043 212.688 380.529 212.732 379.332 212.986C376.901 213.53 375.714 214.703 375.628 214.567C375.596 214.532 375.846 214.213 376.421 213.765C377 213.333 377.917 212.761 379.194 212.416C380.455 212.071 382.11 211.945 383.803 212.537C385.488 213.135 387.085 214.515 387.906 216.425C388.786 218.333 388.461 220.537 387.576 222.048C386.71 223.602 385.486 224.654 384.426 225.389C383.355 226.124 382.424 226.591 381.779 226.902C381.132 227.207 380.76 227.347 380.732 227.298Z" fill="#363641"/>
<path d="M381.356 227.379C381.409 227.358 381.643 227.786 382.003 228.588C382.36 229.391 382.854 230.567 383.32 232.081C383.775 233.592 384.213 235.461 384.201 237.593C384.19 239.7 383.722 242.115 382.313 244.199C380.894 246.277 378.678 247.601 376.507 247.878C374.308 248.208 372.307 247.257 371.207 246.071C370.056 244.89 369.615 243.555 369.565 242.657C369.507 241.747 369.704 241.27 369.739 241.281C369.815 241.29 369.734 241.779 369.885 242.614C370.026 243.44 370.518 244.626 371.616 245.651C372.689 246.684 374.443 247.45 376.402 247.121C378.334 246.837 380.344 245.614 381.627 243.733C382.914 241.83 383.386 239.586 383.437 237.58C383.491 235.56 383.13 233.739 382.755 232.239C381.955 229.239 381.223 227.427 381.356 227.379Z" fill="#363641"/>
<path d="M314.556 313.485L306.711 299.013C306.191 298.053 305.185 297.454 304.093 297.454H248.248C247.143 297.454 246.128 298.066 245.613 299.045L300.972 336.246L325.466 339.058C325.993 338.059 326.01 336.868 325.513 335.854L314.556 313.485Z" fill="#263238"/>
<g opacity="0.3">
<path d="M373.618 346.607C363.807 342.331 352.531 341.711 343.308 336.283C339.782 334.207 336.659 331.481 333.053 329.547C329.448 327.613 325.068 326.527 321.262 328.032C317.456 329.536 314.572 335.248 316.545 338.834C317.301 340.743 320.909 342.535 322.956 342.359C325.002 342.184 326.939 341.341 328.977 341.083C333.352 340.528 337.556 342.687 341.501 344.657C350 348.902 358.792 352.561 367.794 355.6C369.896 356.311 372.104 356.996 374.298 356.668C376.493 356.341 378.654 354.684 378.8 352.47C378.984 349.689 376.173 347.721 373.618 346.607Z" fill="black"/>
</g>
<path d="M325.474 339.059L305.888 300.713C305.366 299.69 304.314 299.046 303.164 299.046H245.352L266.89 337.838L325.474 339.059Z" fill="#878787"/>
<path d="M280.167 312.839C280.974 313.486 282.152 313.356 282.799 312.549C283.446 311.742 283.315 310.563 282.508 309.917C281.702 309.271 280.523 309.401 279.876 310.207C279.229 311.014 279.36 312.193 280.167 312.839Z" fill="#EBEBEB"/>
<path d="M331.005 319.051L325.187 314.559C322.798 311.594 319.195 309.871 315.387 309.871H312.218L310.056 312.304C310.056 312.304 294.542 312.98 293.97 314.893L293.956 315.51L293.948 315.872L307.217 316.764C307.217 316.764 295.929 316.729 295.254 316.754C294.51 316.781 292.104 316.565 292.153 317.889C292.193 318.979 293.482 319.837 295.433 320.122C296.235 320.24 306.013 321.089 306.013 321.089C306.013 321.089 295.747 320.991 295.25 320.988C294.044 320.982 294.196 322.916 294.914 323.159C295.48 323.35 309.265 327.373 309.265 327.373C309.265 327.373 306.947 328.927 305.055 328.792C303.163 328.656 299.919 326.223 299.243 327.373C298.567 328.522 298.703 329.197 299.108 329.468C299.514 329.738 303.973 332.036 305.46 332.441C306.947 332.846 319.084 334.767 319.084 334.767L329.151 333.477L331.005 319.051Z" fill="#FDE2D0"/>
<path d="M304.785 312.491C304.784 312.396 307.222 312.307 310.229 312.292C313.236 312.276 315.674 312.339 315.674 312.433C315.675 312.527 313.238 312.616 310.23 312.632C307.224 312.648 304.786 312.585 304.785 312.491Z" fill="#FDE2D0"/>
<path d="M331.014 319.05L373.722 327.179L378.006 273.486C378.006 273.486 389.525 263.799 395.617 270.409C401.71 277.018 402.161 284.84 401.77 288.738C401.38 292.636 397.5 338.519 394.28 346.284C389.778 357.141 378.249 356.557 375.029 355.768C371.809 354.979 325.867 333.254 325.867 333.254L331.014 319.05Z" fill="#FDE2D0"/>
<path d="M376.437 273.207C374.932 285.331 371.975 303.883 371.809 316.099C371.809 316.595 401.181 319.05 401.181 319.05C401.181 319.05 402.712 291.39 401.606 282.98C400.35 273.435 393.207 266.855 393.207 266.855H383.99L376.437 273.207Z" fill="#C2C2C2"/>
<path d="M401.176 319.05C401.175 319.063 400.97 319.056 400.581 319.03C400.156 318.996 399.589 318.951 398.878 318.895C397.359 318.758 395.228 318.565 392.605 318.327C387.268 317.807 379.939 317.092 371.784 316.297L371.594 316.278L371.607 316.086C371.632 315.709 371.66 315.304 371.687 314.896C372.28 306.451 372.817 298.809 373.209 293.23C373.421 290.489 373.592 288.257 373.715 286.667C373.781 285.921 373.834 285.328 373.873 284.884C373.914 284.477 373.942 284.264 373.955 284.265C373.969 284.265 373.968 284.481 373.953 284.89C373.933 285.335 373.904 285.93 373.87 286.678C373.778 288.269 373.648 290.504 373.489 293.249C373.127 298.83 372.631 306.475 372.083 314.924C372.056 315.332 372.027 315.738 372.002 316.114L371.825 315.904C379.975 316.746 387.3 317.504 392.634 318.055C395.252 318.344 397.379 318.579 398.894 318.746C399.603 318.833 400.167 318.901 400.591 318.953C400.975 319.004 401.178 319.037 401.176 319.05Z" fill="#C2C2C2"/>
</svg>
