<svg width="18" height="16" viewBox="0 0 18 16" fill="none" xmlns="http://www.w3.org/2000/svg">
<path d="M7.04132 9.73596H6.54132V10.236V15.0393C6.54132 15.283 6.33355 15.5 6.06307 15.5H3.12831C2.85783 15.5 2.65006 15.283 2.65006 15.0393V8.31462V7.81462H2.15006H0.539256L8.67243 0.620578C8.6726 0.620427 8.67277 0.620275 8.67294 0.620124C8.85576 0.459959 9.13989 0.459959 9.32271 0.620124C9.32288 0.620275 9.32305 0.620427 9.32323 0.620578L17.4564 7.81462H15.8456H15.3456V8.31462V15.0393C15.3456 15.283 15.1378 15.5 14.8673 15.5H11.9326C11.6621 15.5 11.4543 15.283 11.4543 15.0393V10.236V9.73596H10.9543H7.04132Z" stroke="#CCD4F2"/>
</svg>
